<?xml version="1.0" encoding="UTF-8" standalone="no"?>
<!DOCTYPE svg PUBLIC "-//W3C//DTD SVG 1.1//EN" "http://www.w3.org/Graphics/SVG/1.1/DTD/svg11.dtd">
<svg version="1.1" xmlns="http://www.w3.org/2000/svg" xmlns:xlink="http://www.w3.org/1999/xlink" preserveAspectRatio="xMidYMid meet" viewBox="0 0 640 640" width="640" height="640"><defs><path d="M0 0L640 0L640 640L0 640L0 0Z" id="b1hz7Z8Y9"></path><path d="M83.95 562.22L563.95 562.22L563.95 82.22L83.95 82.22L83.95 562.22ZM99.95 98.22L547.95 98.22L547.95 546.22L99.95 546.22L99.95 98.22Z" id="i17dZPkeWy"></path><path d="M475.95 274.22L475.95 194.22L235.95 194.22L235.95 274.22L283.95 274.22L283.95 242.22L331.95 242.22L331.95 418.22L283.95 418.22L283.95 466.22L427.95 466.22L427.95 418.22L379.95 418.22L379.95 242.22L427.95 242.22L427.95 274.22L475.95 274.22ZM363.95 226.22L363.95 434.22L411.95 434.22L411.95 450.22L299.95 450.22L299.95 434.22L347.95 434.22L347.95 226.22L267.95 226.22L267.95 258.22L251.95 258.22L251.95 210.22L459.95 210.22L459.95 258.22L443.95 258.22L443.95 226.22L363.95 226.22Z" id="g1aT1pfLbD"></path><path d="M127.95 115.31C124.13 113.1 119.23 114.41 117.03 118.24C116.33 119.45 115.96 120.82 115.95 122.22C115.95 135.82 115.95 244.62 115.95 258.22C115.95 261.87 118.42 265.05 121.95 265.96C122.6 266.13 123.28 266.22 123.95 266.22C126.86 266.22 129.54 264.64 130.95 262.1C133.48 257.53 146.17 234.69 169.02 193.58C200.26 189.12 217.62 186.64 221.09 186.14C225.46 185.52 228.5 181.46 227.88 177.09C227.53 174.67 226.1 172.54 223.99 171.31C223.98 171.31 137.55 120.91 127.95 115.31ZM162.79 178.3C160.31 178.66 158.14 180.15 156.93 182.34C155.26 185.34 146.94 200.34 131.95 227.35L131.95 136.15L196.07 173.55C178.32 176.08 167.22 177.67 162.79 178.3Z" id="kzBow0qIC"></path><path d="M211.95 114.22C211.95 114.22 211.95 114.22 211.95 114.22C211.95 123.82 211.95 129.15 211.95 130.22C211.95 130.22 211.95 130.22 211.95 130.22C192.75 130.22 182.09 130.22 179.95 130.22C179.95 130.22 179.95 130.22 179.95 130.22C179.95 120.62 179.95 115.29 179.95 114.22C179.95 114.22 179.95 114.22 179.95 114.22C199.15 114.22 209.82 114.22 211.95 114.22Z" id="b10O0Qj7kJ"></path><path d="M259.95 114.22C259.95 114.22 259.95 114.22 259.95 114.22C259.95 123.82 259.95 129.15 259.95 130.22C259.95 130.22 259.95 130.22 259.95 130.22C240.75 130.22 230.09 130.22 227.95 130.22C227.95 130.22 227.95 130.22 227.95 130.22C227.95 120.62 227.95 115.29 227.95 114.22C227.95 114.22 227.95 114.22 227.95 114.22C247.15 114.22 257.82 114.22 259.95 114.22Z" id="b3R0SWdlPl"></path><path d="M307.95 114.22C307.95 114.22 307.95 114.22 307.95 114.22C307.95 123.82 307.95 129.15 307.95 130.22C307.95 130.22 307.95 130.22 307.95 130.22C288.75 130.22 278.09 130.22 275.95 130.22C275.95 130.22 275.95 130.22 275.95 130.22C275.95 120.62 275.95 115.29 275.95 114.22C275.95 114.22 275.95 114.22 275.95 114.22C295.15 114.22 305.82 114.22 307.95 114.22Z" id="a2Y0ETT7rk"></path><path d="M355.95 114.22C355.95 114.22 355.95 114.22 355.95 114.22C355.95 123.82 355.95 129.15 355.95 130.22C355.95 130.22 355.95 130.22 355.95 130.22C336.75 130.22 326.09 130.22 323.95 130.22C323.95 130.22 323.95 130.22 323.95 130.22C323.95 120.62 323.95 115.29 323.95 114.22C323.95 114.22 323.95 114.22 323.95 114.22C343.15 114.22 353.82 114.22 355.95 114.22Z" id="a2b0FOeFiT"></path><path d="M403.95 114.22C403.95 114.22 403.95 114.22 403.95 114.22C403.95 123.82 403.95 129.15 403.95 130.22C403.95 130.22 403.95 130.22 403.95 130.22C384.75 130.22 374.09 130.22 371.95 130.22C371.95 130.22 371.95 130.22 371.95 130.22C371.95 120.62 371.95 115.29 371.95 114.22C371.95 114.22 371.95 114.22 371.95 114.22C391.15 114.22 401.82 114.22 403.95 114.22Z" id="fVL1bKtMs"></path><path d="M451.95 114.22C451.95 114.22 451.95 114.22 451.95 114.22C451.95 123.82 451.95 129.15 451.95 130.22C451.95 130.22 451.95 130.22 451.95 130.22C432.75 130.22 422.09 130.22 419.95 130.22C419.95 130.22 419.95 130.22 419.95 130.22C419.95 120.62 419.95 115.29 419.95 114.22C419.95 114.22 419.95 114.22 419.95 114.22C439.15 114.22 449.82 114.22 451.95 114.22Z" id="a4JJIubHvw"></path><path d="M499.95 114.22C499.95 114.22 499.95 114.22 499.95 114.22C499.95 123.82 499.95 129.15 499.95 130.22C499.95 130.22 499.95 130.22 499.95 130.22C480.75 130.22 470.09 130.22 467.95 130.22C467.95 130.22 467.95 130.22 467.95 130.22C467.95 120.62 467.95 115.29 467.95 114.22C467.95 114.22 467.95 114.22 467.95 114.22C487.15 114.22 497.82 114.22 499.95 114.22Z" id="abprdtDhm"></path><path d="M259.95 514.22C259.95 514.22 259.95 514.22 259.95 514.22C259.95 523.82 259.95 529.15 259.95 530.22C259.95 530.22 259.95 530.22 259.95 530.22C240.75 530.22 230.09 530.22 227.95 530.22C227.95 530.22 227.95 530.22 227.95 530.22C227.95 520.62 227.95 515.29 227.95 514.22C227.95 514.22 227.95 514.22 227.95 514.22C247.15 514.22 257.82 514.22 259.95 514.22Z" id="cJD3RVS"></path><path d="M307.95 514.22C307.95 514.22 307.95 514.22 307.95 514.22C307.95 523.82 307.95 529.15 307.95 530.22C307.95 530.22 307.95 530.22 307.95 530.22C288.75 530.22 278.09 530.22 275.95 530.22C275.95 530.22 275.95 530.22 275.95 530.22C275.95 520.62 275.95 515.29 275.95 514.22C275.95 514.22 275.95 514.22 275.95 514.22C295.15 514.22 305.82 514.22 307.95 514.22Z" id="b5hFyqUwPM"></path><path d="M211.95 514.22C211.95 514.22 211.95 514.22 211.95 514.22C211.95 523.82 211.95 529.15 211.95 530.22C211.95 530.22 211.95 530.22 211.95 530.22C192.75 530.22 182.09 530.22 179.95 530.22C179.95 530.22 179.95 530.22 179.95 530.22C179.95 520.62 179.95 515.29 179.95 514.22C179.95 514.22 179.95 514.22 179.95 514.22C199.15 514.22 209.82 514.22 211.95 514.22Z" id="bq5k0aScK"></path><path d="M355.95 514.22C355.95 514.22 355.95 514.22 355.95 514.22C355.95 523.82 355.95 529.15 355.95 530.22C355.95 530.22 355.95 530.22 355.95 530.22C336.75 530.22 326.09 530.22 323.95 530.22C323.95 530.22 323.95 530.22 323.95 530.22C323.95 520.62 323.95 515.29 323.95 514.22C323.95 514.22 323.95 514.22 323.95 514.22C343.15 514.22 353.82 514.22 355.95 514.22Z" id="lvNxLFPV6"></path><path d="M403.95 514.22C403.95 514.22 403.95 514.22 403.95 514.22C403.95 523.82 403.95 529.15 403.95 530.22C403.95 530.22 403.95 530.22 403.95 530.22C384.75 530.22 374.09 530.22 371.95 530.22C371.95 530.22 371.95 530.22 371.95 530.22C371.95 520.62 371.95 515.29 371.95 514.22C371.95 514.22 371.95 514.22 371.95 514.22C391.15 514.22 401.82 514.22 403.95 514.22Z" id="aCuHNR1jc"></path><path d="M451.95 514.22C451.95 514.22 451.95 514.22 451.95 514.22C451.95 523.82 451.95 529.15 451.95 530.22C451.95 530.22 451.95 530.22 451.95 530.22C432.75 530.22 422.09 530.22 419.95 530.22C419.95 530.22 419.95 530.22 419.95 530.22C419.95 520.62 419.95 515.29 419.95 514.22C419.95 514.22 419.95 514.22 419.95 514.22C439.15 514.22 449.82 514.22 451.95 514.22Z" id="a985NQ21b"></path><path d="M499.95 514.22C499.95 514.22 499.95 514.22 499.95 514.22C499.95 523.82 499.95 529.15 499.95 530.22C499.95 530.22 499.95 530.22 499.95 530.22C480.75 530.22 470.09 530.22 467.95 530.22C467.95 530.22 467.95 530.22 467.95 530.22C467.95 520.62 467.95 515.29 467.95 514.22C467.95 514.22 467.95 514.22 467.95 514.22C487.15 514.22 497.82 514.22 499.95 514.22Z" id="eDgNtqynu"></path><path d="M531.95 114.22C531.95 114.22 531.95 114.22 531.95 114.22C531.95 133.42 531.95 144.09 531.95 146.22C531.95 146.22 531.95 146.22 531.95 146.22C522.35 146.22 517.02 146.22 515.95 146.22C515.95 146.22 515.95 146.22 515.95 146.22C515.95 127.02 515.95 116.35 515.95 114.22C515.95 114.22 515.95 114.22 515.95 114.22C525.55 114.22 530.89 114.22 531.95 114.22Z" id="c4LCmbBlx"></path><path d="M531.95 162.22C531.95 162.22 531.95 162.22 531.95 162.22C531.95 181.42 531.95 192.09 531.95 194.22C531.95 194.22 531.95 194.22 531.95 194.22C522.35 194.22 517.02 194.22 515.95 194.22C515.95 194.22 515.95 194.22 515.95 194.22C515.95 175.02 515.95 164.35 515.95 162.22C515.95 162.22 515.95 162.22 515.95 162.22C525.55 162.22 530.89 162.22 531.95 162.22Z" id="b5EHFDLfR"></path><path d="M531.95 210.22C531.95 210.22 531.95 210.22 531.95 210.22C531.95 229.42 531.95 240.09 531.95 242.22C531.95 242.22 531.95 242.22 531.95 242.22C522.35 242.22 517.02 242.22 515.95 242.22C515.95 242.22 515.95 242.22 515.95 242.22C515.95 223.02 515.95 212.35 515.95 210.22C515.95 210.22 515.95 210.22 515.95 210.22C525.55 210.22 530.89 210.22 531.95 210.22Z" id="c2KecvylzT"></path><path d="M531.95 258.22C531.95 258.22 531.95 258.22 531.95 258.22C531.95 277.42 531.95 288.09 531.95 290.22C531.95 290.22 531.95 290.22 531.95 290.22C522.35 290.22 517.02 290.22 515.95 290.22C515.95 290.22 515.95 290.22 515.95 290.22C515.95 271.02 515.95 260.35 515.95 258.22C515.95 258.22 515.95 258.22 515.95 258.22C525.55 258.22 530.89 258.22 531.95 258.22Z" id="f5a6o4qutj"></path><path d="M531.95 306.22C531.95 306.22 531.95 306.22 531.95 306.22C531.95 325.42 531.95 336.09 531.95 338.22C531.95 338.22 531.95 338.22 531.95 338.22C522.35 338.22 517.02 338.22 515.95 338.22C515.95 338.22 515.95 338.22 515.95 338.22C515.95 319.02 515.95 308.35 515.95 306.22C515.95 306.22 515.95 306.22 515.95 306.22C525.55 306.22 530.89 306.22 531.95 306.22Z" id="a6eYVWFQe"></path><path d="M531.95 354.22C531.95 354.22 531.95 354.22 531.95 354.22C531.95 373.42 531.95 384.09 531.95 386.22C531.95 386.22 531.95 386.22 531.95 386.22C522.35 386.22 517.02 386.22 515.95 386.22C515.95 386.22 515.95 386.22 515.95 386.22C515.95 367.02 515.95 356.35 515.95 354.22C515.95 354.22 515.95 354.22 515.95 354.22C525.55 354.22 530.89 354.22 531.95 354.22Z" id="d18Luej2w4"></path><path d="M531.95 402.22C531.95 402.22 531.95 402.22 531.95 402.22C531.95 421.42 531.95 432.09 531.95 434.22C531.95 434.22 531.95 434.22 531.95 434.22C522.35 434.22 517.02 434.22 515.95 434.22C515.95 434.22 515.95 434.22 515.95 434.22C515.95 415.02 515.95 404.35 515.95 402.22C515.95 402.22 515.95 402.22 515.95 402.22C525.55 402.22 530.89 402.22 531.95 402.22Z" id="jgX2ROfSX"></path><path d="M531.95 450.22C531.95 450.22 531.95 450.22 531.95 450.22C531.95 469.42 531.95 480.09 531.95 482.22C531.95 482.22 531.95 482.22 531.95 482.22C522.35 482.22 517.02 482.22 515.95 482.22C515.95 482.22 515.95 482.22 515.95 482.22C515.95 463.02 515.95 452.35 515.95 450.22C515.95 450.22 515.95 450.22 515.95 450.22C525.55 450.22 530.89 450.22 531.95 450.22Z" id="d9qgTVbWE"></path><path d="M531.95 498.22C531.95 498.22 531.95 498.22 531.95 498.22C531.95 517.42 531.95 528.09 531.95 530.22C531.95 530.22 531.95 530.22 531.95 530.22C522.35 530.22 517.02 530.22 515.95 530.22C515.95 530.22 515.95 530.22 515.95 530.22C515.95 511.02 515.95 500.35 515.95 498.22C515.95 498.22 515.95 498.22 515.95 498.22C525.55 498.22 530.89 498.22 531.95 498.22Z" id="birE66VgH"></path><path d="M131.95 306.22C131.95 306.22 131.95 306.22 131.95 306.22C131.95 325.42 131.95 336.09 131.95 338.22C131.95 338.22 131.95 338.22 131.95 338.22C122.35 338.22 117.02 338.22 115.95 338.22C115.95 338.22 115.95 338.22 115.95 338.22C115.95 319.02 115.95 308.35 115.95 306.22C115.95 306.22 115.95 306.22 115.95 306.22C125.55 306.22 130.89 306.22 131.95 306.22Z" id="jvdQe67N"></path><path d="M131.95 354.22C131.95 354.22 131.95 354.22 131.95 354.22C131.95 373.42 131.95 384.09 131.95 386.22C131.95 386.22 131.95 386.22 131.95 386.22C122.35 386.22 117.02 386.22 115.95 386.22C115.95 386.22 115.95 386.22 115.95 386.22C115.95 367.02 115.95 356.35 115.95 354.22C115.95 354.22 115.95 354.22 115.95 354.22C125.55 354.22 130.89 354.22 131.95 354.22Z" id="a1MlbBZE8H"></path><path d="M131.95 402.22C131.95 402.22 131.95 402.22 131.95 402.22C131.95 421.42 131.95 432.09 131.95 434.22C131.95 434.22 131.95 434.22 131.95 434.22C122.35 434.22 117.02 434.22 115.95 434.22C115.95 434.22 115.95 434.22 115.95 434.22C115.95 415.02 115.95 404.35 115.95 402.22C115.95 402.22 115.95 402.22 115.95 402.22C125.55 402.22 130.89 402.22 131.95 402.22Z" id="a1hxqO9vV3"></path><path d="M131.95 450.22C131.95 450.22 131.95 450.22 131.95 450.22C131.95 469.42 131.95 480.09 131.95 482.22C131.95 482.22 131.95 482.22 131.95 482.22C122.35 482.22 117.02 482.22 115.95 482.22C115.95 482.22 115.95 482.22 115.95 482.22C115.95 463.02 115.95 452.35 115.95 450.22C115.95 450.22 115.95 450.22 115.95 450.22C125.55 450.22 130.89 450.22 131.95 450.22Z" id="b11GayIHll"></path><path d="M115.95 498.22L115.95 530.22L131.95 530.22L163.95 530.22L163.95 514.22L131.95 514.22L131.95 498.22L131.95 498.22L115.95 498.22Z" id="b4C5sm0iEM"></path></defs><g><g><g><use xlink:href="#b1hz7Z8Y9" opacity="1" fill="#f5f411" fill-opacity="1"></use></g><g><use xlink:href="#i17dZPkeWy" opacity="1" fill="#000000" fill-opacity="1"></use><g><use xlink:href="#i17dZPkeWy" opacity="1" fill-opacity="0" stroke="#000000" stroke-width="1" stroke-opacity="0"></use></g></g><g><use xlink:href="#g1aT1pfLbD" opacity="1" fill="#000000" fill-opacity="1"></use><g><use xlink:href="#g1aT1pfLbD" opacity="1" fill-opacity="0" stroke="#000000" stroke-width="1" stroke-opacity="0"></use></g></g><g><use xlink:href="#kzBow0qIC" opacity="1" fill="#000000" fill-opacity="1"></use><g><use xlink:href="#kzBow0qIC" opacity="1" fill-opacity="0" stroke="#000000" stroke-width="1" stroke-opacity="0"></use></g></g><g><use xlink:href="#b10O0Qj7kJ" opacity="1" fill="#000000" fill-opacity="1"></use><g><use xlink:href="#b10O0Qj7kJ" opacity="1" fill-opacity="0" stroke="#000000" stroke-width="1" stroke-opacity="0"></use></g></g><g><use xlink:href="#b3R0SWdlPl" opacity="1" fill="#000000" fill-opacity="1"></use><g><use xlink:href="#b3R0SWdlPl" opacity="1" fill-opacity="0" stroke="#000000" stroke-width="1" stroke-opacity="0"></use></g></g><g><use xlink:href="#a2Y0ETT7rk" opacity="1" fill="#000000" fill-opacity="1"></use><g><use xlink:href="#a2Y0ETT7rk" opacity="1" fill-opacity="0" stroke="#000000" stroke-width="1" stroke-opacity="0"></use></g></g><g><use xlink:href="#a2b0FOeFiT" opacity="1" fill="#000000" fill-opacity="1"></use><g><use xlink:href="#a2b0FOeFiT" opacity="1" fill-opacity="0" stroke="#000000" stroke-width="1" stroke-opacity="0"></use></g></g><g><use xlink:href="#fVL1bKtMs" opacity="1" fill="#000000" fill-opacity="1"></use><g><use xlink:href="#fVL1bKtMs" opacity="1" fill-opacity="0" stroke="#000000" stroke-width="1" stroke-opacity="0"></use></g></g><g><use xlink:href="#a4JJIubHvw" opacity="1" fill="#000000" fill-opacity="1"></use><g><use xlink:href="#a4JJIubHvw" opacity="1" fill-opacity="0" stroke="#000000" stroke-width="1" stroke-opacity="0"></use></g></g><g><use xlink:href="#abprdtDhm" opacity="1" fill="#000000" fill-opacity="1"></use><g><use xlink:href="#abprdtDhm" opacity="1" fill-opacity="0" stroke="#000000" stroke-width="1" stroke-opacity="0"></use></g></g><g><use xlink:href="#cJD3RVS" opacity="1" fill="#000000" fill-opacity="1"></use><g><use xlink:href="#cJD3RVS" opacity="1" fill-opacity="0" stroke="#000000" stroke-width="1" stroke-opacity="0"></use></g></g><g><use xlink:href="#b5hFyqUwPM" opacity="1" fill="#000000" fill-opacity="1"></use><g><use xlink:href="#b5hFyqUwPM" opacity="1" fill-opacity="0" stroke="#000000" stroke-width="1" stroke-opacity="0"></use></g></g><g><use xlink:href="#bq5k0aScK" opacity="1" fill="#000000" fill-opacity="1"></use><g><use xlink:href="#bq5k0aScK" opacity="1" fill-opacity="0" stroke="#000000" stroke-width="1" stroke-opacity="0"></use></g></g><g><use xlink:href="#lvNxLFPV6" opacity="1" fill="#000000" fill-opacity="1"></use><g><use xlink:href="#lvNxLFPV6" opacity="1" fill-opacity="0" stroke="#000000" stroke-width="1" stroke-opacity="0"></use></g></g><g><use xlink:href="#aCuHNR1jc" opacity="1" fill="#000000" fill-opacity="1"></use><g><use xlink:href="#aCuHNR1jc" opacity="1" fill-opacity="0" stroke="#000000" stroke-width="1" stroke-opacity="0"></use></g></g><g><use xlink:href="#a985NQ21b" opacity="1" fill="#000000" fill-opacity="1"></use><g><use xlink:href="#a985NQ21b" opacity="1" fill-opacity="0" stroke="#000000" stroke-width="1" stroke-opacity="0"></use></g></g><g><use xlink:href="#eDgNtqynu" opacity="1" fill="#000000" fill-opacity="1"></use><g><use xlink:href="#eDgNtqynu" opacity="1" fill-opacity="0" stroke="#000000" stroke-width="1" stroke-opacity="0"></use></g></g><g><use xlink:href="#c4LCmbBlx" opacity="1" fill="#000000" fill-opacity="1"></use><g><use xlink:href="#c4LCmbBlx" opacity="1" fill-opacity="0" stroke="#000000" stroke-width="1" stroke-opacity="0"></use></g></g><g><use xlink:href="#b5EHFDLfR" opacity="1" fill="#000000" fill-opacity="1"></use><g><use xlink:href="#b5EHFDLfR" opacity="1" fill-opacity="0" stroke="#000000" stroke-width="1" stroke-opacity="0"></use></g></g><g><use xlink:href="#c2KecvylzT" opacity="1" fill="#000000" fill-opacity="1"></use><g><use xlink:href="#c2KecvylzT" opacity="1" fill-opacity="0" stroke="#000000" stroke-width="1" stroke-opacity="0"></use></g></g><g><use xlink:href="#f5a6o4qutj" opacity="1" fill="#000000" fill-opacity="1"></use><g><use xlink:href="#f5a6o4qutj" opacity="1" fill-opacity="0" stroke="#000000" stroke-width="1" stroke-opacity="0"></use></g></g><g><use xlink:href="#a6eYVWFQe" opacity="1" fill="#000000" fill-opacity="1"></use><g><use xlink:href="#a6eYVWFQe" opacity="1" fill-opacity="0" stroke="#000000" stroke-width="1" stroke-opacity="0"></use></g></g><g><use xlink:href="#d18Luej2w4" opacity="1" fill="#000000" fill-opacity="1"></use><g><use xlink:href="#d18Luej2w4" opacity="1" fill-opacity="0" stroke="#000000" stroke-width="1" stroke-opacity="0"></use></g></g><g><use xlink:href="#jgX2ROfSX" opacity="1" fill="#000000" fill-opacity="1"></use><g><use xlink:href="#jgX2ROfSX" opacity="1" fill-opacity="0" stroke="#000000" stroke-width="1" stroke-opacity="0"></use></g></g><g><use xlink:href="#d9qgTVbWE" opacity="1" fill="#000000" fill-opacity="1"></use><g><use xlink:href="#d9qgTVbWE" opacity="1" fill-opacity="0" stroke="#000000" stroke-width="1" stroke-opacity="0"></use></g></g><g><use xlink:href="#birE66VgH" opacity="1" fill="#000000" fill-opacity="1"></use><g><use xlink:href="#birE66VgH" opacity="1" fill-opacity="0" stroke="#000000" stroke-width="1" stroke-opacity="0"></use></g></g><g><use xlink:href="#jvdQe67N" opacity="1" fill="#000000" fill-opacity="1"></use><g><use xlink:href="#jvdQe67N" opacity="1" fill-opacity="0" stroke="#000000" stroke-width="1" stroke-opacity="0"></use></g></g><g><use xlink:href="#a1MlbBZE8H" opacity="1" fill="#000000" fill-opacity="1"></use><g><use xlink:href="#a1MlbBZE8H" opacity="1" fill-opacity="0" stroke="#000000" stroke-width="1" stroke-opacity="0"></use></g></g><g><use xlink:href="#a1hxqO9vV3" opacity="1" fill="#000000" fill-opacity="1"></use><g><use xlink:href="#a1hxqO9vV3" opacity="1" fill-opacity="0" stroke="#000000" stroke-width="1" stroke-opacity="0"></use></g></g><g><use xlink:href="#b11GayIHll" opacity="1" fill="#000000" fill-opacity="1"></use><g><use xlink:href="#b11GayIHll" opacity="1" fill-opacity="0" stroke="#000000" stroke-width="1" stroke-opacity="0"></use></g></g><g><use xlink:href="#b4C5sm0iEM" opacity="1" fill="#000000" fill-opacity="1"></use><g><use xlink:href="#b4C5sm0iEM" opacity="1" fill-opacity="0" stroke="#000000" stroke-width="1" stroke-opacity="0"></use></g></g></g></g></svg>