<?xml version="1.0" encoding="UTF-8" standalone="no"?>
<svg
   xmlns:dc="http://purl.org/dc/elements/1.1/"
   xmlns:cc="http://creativecommons.org/ns#"
   xmlns:rdf="http://www.w3.org/1999/02/22-rdf-syntax-ns#"
   xmlns:svg="http://www.w3.org/2000/svg"
   xmlns="http://www.w3.org/2000/svg"
   viewBox="0 0 1260 1260"
   height="1260"
   width="1260"
   xml:space="preserve"
   id="svg2"
   version="1.1"><metadata
     id="metadata8"><rdf:RDF><cc:Work
         rdf:about=""><dc:format>image/svg+xml</dc:format><dc:type
           rdf:resource="http://purl.org/dc/dcmitype/StillImage" /></cc:Work></rdf:RDF></metadata><defs
     id="defs6" /><g
     transform="matrix(1.3333333,0,0,-1.3333333,-582,1801.56)"
     id="g10"><g
       transform="scale(0.122768)"
       id="g12"><path
         id="path30"
         style="fill:#321614;fill-opacity:1;fill-rule:nonzero;stroke:none"
         d="m 9821.65,8038.99 c 126.99,164.97 190.35,383.91 190.35,653.62 0,261.48 -59.7,475.09 -178.95,638.25 h 377.55 c 102.3,0 185.4,83.14 185.4,185.43 0,102.45 -83.1,185.47 -185.4,185.47 h -591.37 v 1150.64 c 0,84.8 -68.74,153.5 -153.54,153.5 -58.15,0 -108.17,-32.7 -134.23,-80.2 -4,-3.3 -8.39,-6.2 -12.22,-10 -508.12,-508.2 -1183.31,-788.2 -1900.99,-788.2 -717.61,0 -1392.7,280 -1900.89,788.2 -11.11,11.1 -23.76,19.4 -36.91,26.5 -27.9,38.5 -72.94,63.7 -124.1,63.7 -84.83,0 -153.58,-68.7 -153.58,-153.5 V 9701.76 h -782.95 c -102.45,0 -185.46,-83.02 -185.46,-185.47 0,-102.29 83.01,-185.43 185.46,-185.43 h 549.01 c -119.19,-163.16 -178.94,-376.77 -178.94,-638.25 0,-269.77 63.4,-488.72 190.33,-653.68 -580.29,-631.53 -879.93,-1410.7 -847.13,-2223.47 34.14,-846.52 422.98,-1632.33 1099.68,-2237.18 68.57,-155.79 224.18,-264.96 405.03,-264.96 h 3524.88 c 180.1,0 335.03,108.14 404.02,262.74 678.3,605.14 1067.9,1391.86 1102.2,2239.4 32.8,812.77 -266.9,1591.94 -847.25,2223.53" /><path
         id="path32"
         style="fill:#ffffff;fill-opacity:1;fill-rule:nonzero;stroke:none"
         d="M 9298.14,7723.52 V 3754.58 c 0,-74.63 -60.76,-135.33 -135.46,-135.33 H 5637.8 c -74.62,0 -135.33,60.7 -135.33,135.33 v 3970.51 c 6.48,-1.57 12.42,-3.61 19.01,-5.04 4.33,-0.96 8.82,-1.74 13.14,-2.64 34.62,-7.32 70.18,-13.67 107.26,-18.78 1.68,-0.24 3.42,-0.48 5.1,-0.72 81.7,-10.86 169.29,-16.49 262.98,-16.49 313.25,0 561.71,69.41 744.37,196.64 2.71,1.9 5.4,3.83 8.04,5.76 23.57,16.84 46.13,34.54 67.49,53.38 1.02,0.9 2.16,1.75 3.18,2.64 20.62,18.36 39.89,37.9 58.36,58.05 5.4,5.9 10.61,11.89 15.83,17.88 13.5,15.73 26.4,31.93 38.7,48.54 4.43,6.05 9.24,11.81 13.55,18.05 12.36,17.64 23.59,36.36 34.62,55.07 1.49,2.64 3.24,5.04 4.74,7.62 5.45,9.43 10.55,19.13 15.65,28.79 8.46,16.13 16.44,32.7 23.99,49.61 4.02,8.87 8.23,17.63 12,26.75 9.41,23.09 17.88,46.85 25.68,71.15 2.88,8.99 5.58,18.12 8.27,27.23 7.27,25.19 14.05,50.76 19.56,77.15 0.55,2.4 1.2,4.73 1.74,7.19 6.11,30 10.86,60.96 14.77,92.5 0.77,6.61 1.55,13.21 2.27,19.92 3.48,32.28 6.18,65.02 7.37,98.79 33.72,-124.4 69.71,-275.76 107.85,-461.12 1.57,-7.91 5.22,-26.62 10.51,-53.37 33.47,-169.48 129.15,-654.22 129.33,-655.07 15.9,-77.25 111.27,-143.47 182.55,-90.09 18.17,13.62 37.48,35.52 47.68,55.97 5.34,10.67 11.39,22.62 14.69,34.12 l 96.33,487.93 c 0.37,1.27 0.98,2.23 1.28,3.5 l 24.23,121.1 c 1.8,9.31 3.66,18.06 5.45,27.3 43.37,216.97 83.92,390.33 121.73,529.73 1.19,-33.77 3.87,-66.51 7.36,-98.73 0.86,-7.97 1.86,-15.84 2.88,-23.69 3.25,-25.32 7.2,-50.1 11.88,-74.38 1.37,-7.26 2.54,-14.64 4.03,-21.85 5.93,-27.89 12.95,-55 20.74,-81.57 3.3,-11.04 7.07,-21.72 10.68,-32.52 5.22,-15.7 10.8,-31.07 16.74,-46.25 4.91,-12.65 9.89,-25.25 15.36,-37.55 6.18,-14.09 13.13,-27.64 19.97,-41.33 10.02,-19.8 20.7,-39.05 32.02,-57.83 4.64,-7.61 9.38,-15.11 14.23,-22.55 2.34,-3.66 4.57,-7.5 6.97,-11.16 7.03,-10.44 14.21,-20.76 21.65,-30.84 12.6,-16.91 25.6,-33.47 39.47,-49.36 6.6,-7.63 13.62,-15 20.5,-22.38 13.82,-14.75 28.07,-29.03 43.02,-42.82 5.87,-5.41 11.77,-10.87 17.82,-16.08 20.64,-17.94 42.05,-35.15 64.72,-51.23 2.34,-1.69 4.8,-3.18 7.17,-4.8 24.11,-16.74 49.2,-32.63 75.67,-47.33 0.98,-0.53 1.79,-1.02 2.77,-1.56 173.09,-95.57 394.73,-146.9 664.51,-146.9 93.91,0 181.72,5.63 263.5,16.55 1.39,0.18 2.61,0.36 3.91,0.54 38.04,5.23 74.7,11.7 110.13,19.26 3.26,0.72 6.6,1.26 9.77,1.91 6.52,1.44 12.47,3.48 18.9,5.05 v -1.21" /><path
         id="path34"
         style="fill:#85d5bd;fill-opacity:1;fill-rule:nonzero;stroke:none"
         d="m 10300.6,5830.3 c -0.6,-15.43 -2.4,-30.67 -3.2,-46.02 -110.2,474.07 -344.2,931.58 -692.17,1344.41 V 7728.8 C 10083,7180.77 10328.3,6517.92 10300.6,5830.3" /><path
         id="path36"
         style="fill:#85d5bd;fill-opacity:1;fill-rule:nonzero;stroke:none"
         d="m 5195.33,7727.19 v -600.05 c -347.2,-412.34 -580.72,-869.39 -690.78,-1342.86 -0.92,15.35 -2.6,30.59 -3.19,46.02 -27.71,686.96 217.14,1349.14 693.97,1896.89" /><path
         id="path38"
         style="fill:#53b7a9;fill-opacity:1;fill-rule:nonzero;stroke:none"
         d="m 4863.74,4600.88 c -0.73,4.91 -0.73,9.7 -1.86,14.56 -147.2,636.11 -25.26,1291.63 333.45,1880.94 V 4138.74 c -127.4,145.99 -237.96,300.65 -331.59,462.14" /><path
         id="path40"
         style="fill:#53b7a9;fill-opacity:1;fill-rule:nonzero;stroke:none"
         d="m 9605.23,4137.24 v 2361.3 c 359.78,-589.84 482.17,-1246.21 334.77,-1883.1 -1.14,-4.86 -1.14,-9.65 -1.87,-14.56 -93.92,-162.04 -204.94,-317.22 -332.9,-463.64" /><path
         id="path42"
         style="fill:#85d5bd;fill-opacity:1;fill-rule:nonzero;stroke:none"
         d="m 5801.61,9700.44 c 35.47,1.74 71.04,3.31 108.35,3.31 372.4,0 717.56,-148.35 914.31,-314.87 83.98,-71.04 164.72,-161.98 240.37,-269.77 h 672.61 c 75.65,107.79 156.41,198.73 240.39,269.77 186.41,157.76 506.28,297.53 855.97,312.05 2.85,0.11 5.53,0.83 8.46,0.83 h 9.05 c 13.68,0.37 27.04,1.99 40.81,1.99 22.23,0 43,-1.4 64.59,-1.99 h 355.55 v 793.64 c -533.61,-437.2 -1195.59,-674.99 -1893.82,-674.99 -704.59,0 -1372.18,242.39 -1908.34,687.29 v -805.94 h 278.45 c 4.56,0 8.82,-1.02 13.25,-1.32" /><path
         id="path44"
         style="fill:#ffffff;fill-opacity:1;fill-rule:nonzero;stroke:none"
         d="m 5909.96,9334.41 c 581.27,0 808.38,-254.3 808.38,-641.8 0,-390.58 -251.29,-641.86 -808.38,-641.86 -557.03,0 -808.26,254.34 -808.26,641.86 0,387.5 251.23,641.8 808.26,641.8" /><path
         id="path46"
         style="fill:#ffffff;fill-opacity:1;fill-rule:nonzero;stroke:none"
         d="m 8825.46,9332.53 c 5.54,-0.53 10.92,-1.67 16.61,-1.67 h 157.05 c 481.97,-31.13 701.08,-276.6 701.08,-638.25 0,-387.52 -251.2,-641.86 -808.27,-641.86 -557.07,0 -808.36,251.28 -808.36,641.86 0,372.16 210.39,620.8 741.89,639.92" /><path
         id="path48"
         style="fill:#85d5bd;fill-opacity:1;fill-rule:nonzero;stroke:none"
         d="M 7957.84,4929.48 H 9052.39 V 6178.1 h -219.76 c -36.66,-91.37 -80.07,-186.99 -120.64,-271.08 l -166,-344.69 -166.01,344.69 c -40.48,84.09 -83.98,179.71 -120.71,271.08 H 7957.84 V 4929.48" /><path
         id="path50"
         style="fill:#85d5bd;fill-opacity:1;fill-rule:nonzero;stroke:none"
         d="m 5748.17,4929.48 h 532.559 v 539.938 H 5748.17 Z" /><path
         id="path52"
         style="fill:#f1dc3c;fill-opacity:1;fill-rule:nonzero;stroke:none"
         d="m 7957.84,3864.95 h 1094.55 v 770.23 H 7957.84 Z" /><path
         id="path54"
         style="fill:#f1dc3c;fill-opacity:1;fill-rule:nonzero;stroke:none"
         d="m 5748.17,3864.95 h 532.559 v 770.23 H 5748.17 Z" /><path
         id="path56"
         style="fill:#f37322;fill-opacity:1;fill-rule:nonzero;stroke:none"
         d="m 6280.73,6391.59 -18.89,39.22 c -93.34,193.89 -204.68,450.15 -204.68,569.87 0,204.5 166.35,370.84 370.72,370.84 204.43,0 370.71,-166.34 370.71,-370.84 0,-111.45 -96.33,-340.65 -184.98,-528.29 h 1049.94 v 765.97 c -17.34,-18.96 -35.94,-36.77 -55.85,-51.71 -59.76,-44.75 -130.29,-68.38 -204.14,-68.38 -173.12,0 -330.58,131.41 -366.39,305.69 -0.07,0.23 -0.07,0.23 -61.49,311.14 l -16.14,81.94 c -191.53,-202.03 -512.89,-382.53 -1049.58,-382.53 -55.19,0 -109.17,1.86 -161.79,5.52 V 5763.7 h 532.56 v 627.89" /><path
         id="path58"
         style="fill:#2e6279;fill-opacity:1;fill-rule:nonzero;stroke:none"
         d="m 7399.67,4635.18 c -36.71,-91.36 -80.15,-186.92 -120.7,-271.08 l -165.98,-344.68 -166.05,344.68 c -40.48,84.16 -83.98,179.72 -120.69,271.08 h -251.22 v -770.23 h 1088.52 v 770.23 h -263.88" /><path
         id="path60"
         style="fill:#f1dc3c;fill-opacity:1;fill-rule:nonzero;stroke:none"
         d="m 6575.03,4929.48 h 167.66 c -0.06,1.38 -0.48,3.23 -0.48,4.55 0,204.45 166.34,370.78 370.78,370.78 204.37,0 370.71,-166.33 370.71,-370.78 0,-1.32 -0.43,-3.17 -0.46,-4.55 h 180.31 V 6178.1 H 6575.03 V 4929.48" /><path
         id="path62"
         style="fill:#f1dc3c;fill-opacity:1;fill-rule:nonzero;stroke:none"
         d="m 9052.39,7439.97 c -52.21,-3.66 -105.73,-5.46 -160.46,-5.46 -442.95,0 -738.14,124.04 -934.09,278.22 V 6472.39 h 217.86 c 0,1.38 -0.41,3.18 -0.41,4.49 0,204.5 166.25,370.84 370.7,370.84 204.37,0 370.78,-166.34 370.78,-370.84 0,-1.31 -0.49,-3.11 -0.57,-4.49 h 136.19 v 967.58" /><path
         id="path64"
         style="fill:#f37322;fill-opacity:1;fill-rule:nonzero;stroke:none"
         d="m 8545.99,5986.98 c 0,0 186.45,387.08 186.45,489.9 0,103.07 -83.49,186.57 -186.45,186.57 -102.96,0 -186.45,-83.5 -186.45,-186.57 0,-102.82 186.45,-489.9 186.45,-489.9" /><path
         id="path66"
         style="fill:#2e6279;fill-opacity:1;fill-rule:nonzero;stroke:none"
         d="m 6427.88,7187.24 c -102.93,0 -186.44,-83.51 -186.44,-186.56 0,-102.8 186.44,-489.9 186.44,-489.9 0,0 186.44,387.1 186.44,489.9 0,103.05 -83.51,186.56 -186.44,186.56" /><path
         id="path68"
         style="fill:#85d5bd;fill-opacity:1;fill-rule:nonzero;stroke:none"
         d="m 7112.99,4444.07 c 0,0 186.44,387.09 186.44,489.96 0,103 -83.51,186.5 -186.44,186.5 -102.95,0 -186.5,-83.5 -186.5,-186.5 0,-102.87 186.5,-489.96 186.5,-489.96" /><path
         id="path70"
         style="fill:#eaf8f2;fill-opacity:1;fill-rule:nonzero;stroke:none"
         d="m 6303.36,8691.64 c 0,-233.82 -189.57,-423.39 -423.46,-423.39 -233.82,0 -423.38,189.57 -423.38,423.39 0,233.9 189.56,423.45 423.38,423.45 233.89,0 423.46,-189.55 423.46,-423.45" /><path
         id="path72"
         style="fill:#eaf8f2;fill-opacity:1;fill-rule:nonzero;stroke:none"
         d="m 9345.39,8691.64 c 0,-233.82 -189.55,-423.39 -423.41,-423.39 -233.85,0 -423.4,189.57 -423.4,423.39 0,233.9 189.55,423.45 423.4,423.45 233.86,0 423.41,-189.55 423.41,-423.45" /><path
         id="path74"
         style="fill:#321614;fill-opacity:1;fill-rule:nonzero;stroke:none"
         d="m 5879.9,8427.16 c 146.6,0 265.44,118.84 265.44,265.45 0,38.68 -8.75,75.28 -23.69,108.45 -21.35,-9.53 -44.87,-15.06 -69.76,-15.06 -94.96,0 -171.99,76.97 -171.99,171.98 -146.54,0 -265.38,-118.82 -265.38,-265.37 0,-146.61 118.84,-265.45 265.38,-265.45" /><path
         id="path76"
         style="fill:#321614;fill-opacity:1;fill-rule:nonzero;stroke:none"
         d="m 8921.98,8427.16 c 146.54,0 265.38,118.84 265.38,265.45 0,38.68 -8.63,75.28 -23.62,108.45 -21.34,-9.53 -44.88,-15.06 -69.81,-15.06 -94.97,0 -171.95,76.97 -171.95,171.98 -146.62,0 -265.38,-118.82 -265.38,-265.37 0,-146.61 118.76,-265.45 265.38,-265.45" /></g></g></svg>