<svg width="1023" height="57" viewBox="0 0 1023 57" fill="none" xmlns="http://www.w3.org/2000/svg">
<path d="M44.8487 6.87611C45.4795 11.3628 47.6302 20.9204 48.6052 24.9558C48.8633 26.0974 49.15 27.0797 49.4081 27.4779C50.7558 29.6283 51.8455 26.7611 51.8455 26.7611C56.0608 15.1062 49.4081 7.59293 47.2861 5.57523C46.9133 5.20355 46.2538 4.75222 45.6516 4.59293C44.7913 4.35399 44.6479 4.80532 44.6479 5.177C44.6766 5.54868 44.82 6.58408 44.8487 6.87611ZM103.548 3.23894C104.379 3.79647 107.275 6.61063 103.548 7.03541C98.214 7.61948 88.0628 7.96461 71.2302 21C64.8642 25.9381 50.5838 39.2389 42.9274 55.7788C42.8414 55.9912 42.5833 56.0974 42.3539 56.0443C41.6657 55.8584 40.4326 55.1682 41.0635 52.5133C41.9238 48.9292 49.6662 30.2655 70.1406 13.8053C76.822 8.44248 92.7656 -4.19468 103.548 3.23894Z" fill="#FF4800"/>
<path d="M9.29091 29.7876C10.1225 29.9469 10.8394 30.0266 11.9291 30.0266C16.1444 30.0266 19.0119 27.5044 19.0119 24.3186C19.0119 21.4513 16.8039 20.4159 13.965 20.4159C12.7033 20.4159 11.757 20.4956 11.1548 20.6549L9.29091 29.7876ZM6.91083 17.3097C8.68872 16.9115 11.3269 16.6726 13.9077 16.6726C16.6319 16.6726 19.4707 17.2036 21.3633 18.5841C23.0552 19.7788 24.0302 21.531 24.0302 23.9469C24.0302 27.1328 22.3957 29.7345 20.331 31.2478C18.0083 32.9735 14.6819 33.7965 11.2122 33.7965C10.1798 33.7965 9.26223 33.6637 8.48799 33.5841L6.39467 43.8053H1.46246L6.91083 17.3097Z" fill="white"/>
<path d="M37.3643 27.7168C36.8482 27.5841 36.1886 27.5044 35.2997 27.5044C30.6829 27.5044 27.0698 32.3363 27.0698 36.7699C27.0698 38.8142 27.9014 40.4867 30.0807 40.4867C32.4608 40.4867 35.2997 37.7788 36.3033 32.8142L37.3643 27.7168ZM35.357 43.8053C35.357 42.6372 35.5291 41.0974 35.7012 39.4513H35.6151C33.5505 43.0089 30.7403 44.2566 28.0734 44.2566C24.3169 44.2566 21.8508 41.5487 21.8508 37.6195C21.8508 30.9823 26.8691 23.9204 36.6475 23.9204C38.9415 23.9204 41.4076 24.3186 43.0421 24.7965L40.8341 34.9381C40.2319 37.8053 39.8878 41.4956 39.9738 43.8053H35.357Z" fill="white"/>
<path d="M71.5744 36.1062C71.5744 38.7876 73.0942 40.6726 75.675 40.6726C79.4315 40.6726 81.9263 35.8673 81.9263 31.9912C81.9263 30 80.9226 27.5044 77.9117 27.5044C73.9258 27.5044 71.5744 32.469 71.5744 36.1062ZM87.1166 31.9381C87.1166 38.5752 82.1557 44.2301 74.9868 44.2301C69.6818 44.2301 66.4128 40.8319 66.4128 36.1859C66.4128 29.6018 71.3736 23.8938 78.5425 23.8938C84.1916 23.9204 87.1166 27.6637 87.1166 31.9381Z" fill="white"/>
<path d="M88.0629 43.8053L90.787 30.3717C91.3032 28.062 91.6186 26.0177 91.8767 24.3451H96.3501L95.8626 27.823H95.9486C97.8986 25.2213 100.565 23.9204 103.49 23.9204C106.501 23.9204 108.853 25.5929 108.853 29.2832C108.853 30.1593 108.681 31.5133 108.48 32.469L106.186 43.8053H101.139L103.376 32.8142C103.519 32.0974 103.634 31.2478 103.634 30.5044C103.634 28.8584 102.974 27.7168 100.996 27.7168C98.7015 27.7168 95.7766 30.2655 94.859 34.8319L93.0524 43.8319H88.0629V43.8053Z" fill="white"/>
<path d="M122.244 27.3982C119.09 27.3982 117.025 30 116.423 32.3628C121.613 32.3894 124.94 31.7522 124.94 29.4159C124.911 28.1416 123.85 27.3982 122.244 27.3982ZM127.033 42.6903C124.968 43.6991 122.158 44.2566 119.606 44.2566C113.785 44.2566 110.975 40.9381 110.975 36.1859C110.975 30.3186 115.62 23.9204 122.875 23.9204C127.004 23.9204 129.642 26.1239 129.642 29.3894C129.642 34.3805 123.993 35.9735 115.878 35.8142C115.792 36.5044 115.964 37.8053 116.452 38.5752C117.283 39.9027 118.774 40.5664 120.753 40.5664C123.133 40.5664 125.026 40.0089 126.546 39.292L127.033 42.6903Z" fill="white"/>
<path d="M141.772 27.3982C138.618 27.3982 136.553 30 135.951 32.3628C141.141 32.3894 144.468 31.7522 144.468 29.4159C144.468 28.1416 143.378 27.3982 141.772 27.3982ZM146.59 42.6903C144.525 43.6991 141.715 44.2566 139.163 44.2566C133.342 44.2566 130.531 40.9381 130.531 36.1859C130.531 30.3186 135.177 23.9204 142.432 23.9204C146.561 23.9204 149.199 26.1239 149.199 29.3894C149.199 34.3805 143.55 35.9735 135.435 35.8142C135.349 36.5044 135.521 37.8053 136.008 38.5752C136.84 39.9027 138.331 40.5664 140.31 40.5664C142.69 40.5664 144.582 40.0089 146.102 39.292L146.59 42.6903Z" fill="white"/>
<path d="M149.515 43.8053L151.981 31.8053C152.554 29.0443 152.841 26.0443 153.042 24.3451H157.4C157.286 25.6726 157.142 27.0266 156.913 28.4336H157.028C158.461 25.8319 160.727 23.9204 163.594 23.9204C163.996 23.9204 164.369 23.9735 164.713 23.9735L163.709 28.5398C163.451 28.4867 163.107 28.4867 162.763 28.4867C159.178 28.4867 156.884 31.8319 156.081 36L154.476 43.8319H149.515V43.8053Z" fill="white"/>
<path d="M168.555 26.1239H168.928C169.301 26.1239 169.559 25.9381 169.559 25.646C169.559 25.3274 169.301 25.1682 168.928 25.1682C168.756 25.1682 168.641 25.1682 168.584 25.1947V26.1239H168.555ZM168.211 24.9558C168.383 24.9292 168.641 24.9027 168.899 24.9027C169.272 24.9027 169.53 24.9823 169.702 25.1151C169.846 25.2212 169.932 25.4071 169.932 25.6195C169.932 25.9646 169.702 26.177 169.416 26.2832C169.616 26.3628 169.76 26.5487 169.817 26.8142C169.903 27.1593 169.96 27.4248 170.018 27.531H169.645C169.588 27.4513 169.53 27.2389 169.473 26.9204C169.387 26.5752 169.244 26.4425 168.899 26.4159H168.555V27.531H168.182V24.9558H168.211Z" fill="white"/>
<path d="M169.043 23.9204C167.666 23.9204 166.548 24.9558 166.548 26.2301C166.548 27.5044 167.666 28.5398 169.043 28.5398C170.419 28.5398 171.538 27.5044 171.538 26.2301C171.509 24.9292 170.391 23.9204 169.043 23.9204ZM169.043 24.2655C170.19 24.2655 171.136 25.1416 171.136 26.2035C171.136 27.292 170.19 28.1416 169.043 28.1416C167.867 28.1416 166.949 27.2655 166.949 26.2035C166.921 25.1416 167.867 24.2655 169.043 24.2655Z" fill="white"/>
<path d="M278.37 28.6583C278.375 44.1547 265.684 56.7194 250.024 56.7236C234.364 56.7274 221.668 44.169 221.663 28.6726C221.663 28.6675 221.663 28.6634 221.663 28.6583C221.659 13.1623 234.35 0.596922 250.009 0.592805C265.669 0.588688 278.366 13.1477 278.37 28.6441C278.37 28.6488 278.37 28.6533 278.37 28.6583Z" fill="#FF9900"/>
<path d="M211.8 0.601261C196.234 0.699111 183.629 13.2318 183.629 28.6595C183.629 44.1474 196.332 56.7174 211.983 56.7174C219.329 56.7174 226.024 53.9472 231.063 49.4069C231.062 49.4069 231.062 49.4062 231.06 49.4056H231.067C232.098 48.4752 233.06 47.4714 233.945 46.4011H228.136C227.36 45.4739 226.655 44.5077 226.022 43.5109H236.041C236.65 42.546 237.202 41.544 237.691 40.5063H224.368C223.914 39.543 223.52 38.5579 223.183 37.5585H238.877C239.823 34.7617 240.337 31.7695 240.337 28.6592C240.337 26.5971 240.111 24.5865 239.683 22.6508H222.351C222.565 21.6545 222.836 20.6703 223.16 19.7032H238.86C238.509 18.6741 238.101 17.6712 237.637 16.699H224.366C224.845 15.6869 225.388 14.7024 225.993 13.7518H236.004C235.338 12.7014 234.601 11.6979 233.804 10.7473H228.222C229.085 9.74216 230.035 8.79564 231.067 7.91309C226.028 3.37209 219.33 0.601261 211.983 0.601261C211.922 0.601261 211.861 0.600944 211.8 0.601261Z" fill="#CC0000"/>
<path d="M275.526 43.3263C275.68 43.3263 275.83 43.3659 275.977 43.4438C276.124 43.5217 276.237 43.6341 276.319 43.7801C276.401 43.9245 276.442 44.0768 276.442 44.2345C276.442 44.3903 276.401 44.5411 276.321 44.6855C276.24 44.8296 276.127 44.942 275.981 45.0221C275.837 45.1009 275.684 45.1408 275.525 45.1408C275.367 45.1408 275.214 45.1009 275.069 45.0221C274.924 44.9417 274.811 44.8299 274.729 44.6855C274.648 44.5411 274.608 44.3903 274.608 44.2345C274.608 44.0768 274.649 43.9245 274.731 43.7801C274.814 43.6341 274.928 43.5227 275.074 43.4438C275.222 43.3659 275.372 43.3263 275.526 43.3263ZM275.526 43.4768C275.397 43.4768 275.272 43.5097 275.149 43.5752C275.028 43.6408 274.933 43.7336 274.864 43.8564C274.795 43.9774 274.76 44.1028 274.76 44.2345C274.76 44.365 274.794 44.491 274.861 44.6107C274.93 44.7301 275.024 44.8239 275.145 44.891C275.267 44.9578 275.394 44.9907 275.525 44.9907C275.658 44.9907 275.785 44.9578 275.906 44.891C276.027 44.8239 276.121 44.7301 276.189 44.6107C276.256 44.491 276.289 44.3653 276.289 44.2345C276.289 44.1028 276.255 43.9771 276.186 43.8564C276.118 43.7336 276.023 43.6408 275.9 43.5752C275.779 43.5094 275.654 43.4768 275.526 43.4768ZM275.124 44.7355V43.7595H275.464C275.579 43.7595 275.663 43.7684 275.715 43.7874C275.766 43.8055 275.808 43.8362 275.839 43.8815C275.869 43.9261 275.885 43.9736 275.885 44.0243C275.885 44.0958 275.859 44.1579 275.807 44.2105C275.757 44.263 275.688 44.2931 275.603 44.2995C275.638 44.3137 275.666 44.3318 275.687 44.3514C275.727 44.3894 275.775 44.4537 275.833 44.5446L275.953 44.7355H275.759L275.672 44.5819C275.603 44.461 275.548 44.3856 275.505 44.3546C275.476 44.3327 275.434 44.3213 275.378 44.3213H275.284V44.7364H275.124L275.124 44.7355ZM275.283 44.1861H275.476C275.569 44.1861 275.631 44.1722 275.665 44.1452C275.699 44.1174 275.716 44.0819 275.716 44.0369C275.716 44.0078 275.708 43.9818 275.692 43.9597C275.675 43.9366 275.652 43.9201 275.623 43.9084C275.595 43.8973 275.542 43.891 275.464 43.891H275.284V44.1861" fill="#FCB340"/>
<path d="M221.392 36.708L221.77 34.1683C221.563 34.1683 221.26 34.2567 220.992 34.2567C219.941 34.2567 219.81 33.7009 219.892 33.2949L220.928 28.1871H222.525L222.854 25.3045H221.349L221.655 23.5578H218.506C218.439 23.6236 216.724 33.3814 216.724 34.5702C216.724 36.3292 217.722 37.112 219.129 37.0997C220.231 37.0905 221.089 36.7887 221.392 36.708Z" fill="#000066"/>
<path d="M222.348 31.8668C222.348 36.0886 225.164 37.0915 227.563 37.0915C229.778 37.0915 230.939 36.5835 230.939 36.5835L231.471 33.7019C231.471 33.7019 229.599 34.4549 228.078 34.4549C224.836 34.4549 225.405 32.0628 225.405 32.0628L231.633 32.0815C231.633 32.0815 232.029 30.1463 232.029 29.3575C232.029 27.3888 230.946 24.972 227.631 24.972C224.596 24.9726 222.348 28.2093 222.348 31.8668ZM227.643 27.6472C229.346 27.6472 229.032 29.5421 229.032 29.6957H225.68C225.68 29.4994 225.997 27.6472 227.643 27.6472Z" fill="#000066"/>
<path d="M246.759 36.707L247.299 33.4504C247.299 33.4504 245.817 34.1854 244.801 34.1854C242.659 34.1854 241.8 32.5672 241.8 30.8284C241.8 27.3017 243.643 25.3612 245.694 25.3612C247.232 25.3612 248.467 26.2159 248.467 26.2159L248.959 23.0514C248.959 23.0514 247.502 22.0099 245.933 22.0039C241.215 21.9855 238.515 25.2364 238.515 30.8563C238.515 34.5812 240.515 37.1162 244.117 37.1162C245.136 37.1162 246.759 36.707 246.759 36.707Z" fill="#000066"/>
<path d="M204.788 25.0185C202.717 25.0185 201.131 25.6769 201.131 25.6769L200.692 28.2504C200.692 28.2504 202.002 27.7238 203.982 27.7238C205.107 27.7238 205.929 27.8489 205.929 28.753C205.929 29.3021 205.828 29.5048 205.828 29.5048C205.828 29.5048 204.941 29.4316 204.531 29.4316C201.583 29.4316 199.177 30.5342 199.177 33.8586C199.177 36.4784 200.977 37.0791 202.092 37.0791C204.222 37.0791 205.065 35.7482 205.114 35.7444L205.089 36.8489C205.089 36.8489 207.747 36.8489 207.748 36.8489L208.933 28.6219C208.933 25.1306 205.856 25.0185 204.788 25.0185ZM205.248 31.6989C205.306 32.2012 205.116 34.5762 203.298 34.5762C202.361 34.5762 202.117 33.8668 202.117 33.4482C202.117 32.6299 202.566 31.6486 204.778 31.6486C205.293 31.6486 205.161 31.6853 205.248 31.6989Z" fill="#000066"/>
<path d="M211.759 37.0183C212.439 37.0183 216.326 37.1896 216.326 33.2202C216.326 29.5086 212.728 30.2423 212.728 28.7508C212.728 28.0091 213.314 27.7754 214.387 27.7754C214.812 27.7754 216.45 27.9094 216.45 27.9094L216.83 25.2716C216.83 25.2719 215.77 25.0369 214.045 25.0369C211.812 25.0369 209.545 25.9191 209.545 28.9376C209.545 32.3582 213.324 32.0147 213.324 33.4555C213.324 34.4172 212.268 34.4964 211.454 34.4964C210.046 34.4964 208.778 34.0179 208.774 34.041L208.371 36.6519C208.444 36.6741 209.227 37.0183 211.759 37.0183Z" fill="#000066"/>
<path d="M271.66 22.6255L271.115 26.65C271.115 26.65 269.978 25.0968 268.199 25.0968C264.852 25.0968 263.127 28.3974 263.127 32.1888C263.127 34.6367 264.357 37.036 266.871 37.036C268.679 37.036 269.682 35.7881 269.682 35.7881L269.549 36.8536H272.486L274.792 22.6473L271.66 22.6255ZM270.364 30.4475C270.364 32.0254 269.574 34.1335 267.938 34.1335C266.851 34.1335 266.341 33.2307 266.341 31.8142C266.341 29.4978 267.393 27.9699 268.72 27.9699C269.806 27.9699 270.364 28.7077 270.364 30.4475Z" fill="#000066"/>
<path d="M188.442 36.8654L190.279 26.1399L190.549 36.8654H192.629L196.509 26.1399L194.79 36.8654H197.881L200.261 22.6401L195.351 22.603L192.431 31.3126L192.351 22.6401H187.852L185.438 36.8654H188.442Z" fill="#000066"/>
<path d="M234.954 36.8856C235.833 31.9409 236.146 28.0357 238.708 28.8445C239.076 26.9306 239.954 25.2662 240.354 24.4561C240.354 24.4561 240.228 24.2696 239.436 24.2696C238.084 24.2696 236.278 26.9847 236.278 26.9847L236.548 25.3061H233.737L231.854 36.8853H234.954V36.8856Z" fill="#000066"/>
<path d="M253.082 25.0185C251.011 25.0185 249.424 25.6769 249.424 25.6769L248.986 28.2504C248.986 28.2504 250.297 27.7238 252.276 27.7238C253.4 27.7238 254.222 27.8489 254.222 28.753C254.222 29.3021 254.122 29.5048 254.122 29.5048C254.122 29.5048 253.236 29.4316 252.825 29.4316C249.877 29.4316 247.471 30.5342 247.471 33.8586C247.471 36.4784 249.27 37.0791 250.386 37.0791C252.515 37.0791 253.359 35.7482 253.407 35.7444L253.382 36.8489H256.041L257.227 28.6219C257.227 25.1306 254.15 25.0185 253.082 25.0185ZM253.541 31.6989C253.599 32.2012 253.41 34.5762 251.592 34.5762C250.654 34.5762 250.411 33.8668 250.411 33.4482C250.411 32.6299 250.859 31.6486 253.071 31.6486C253.587 31.6486 253.455 31.6853 253.541 31.6989Z" fill="#000066"/>
<path d="M260.287 36.8856C260.77 33.2478 261.663 28.1406 264.041 28.8445C264.409 26.9306 264.054 26.9357 263.262 26.9357C261.909 26.9357 261.61 26.9844 261.61 26.9844L261.88 25.3058H259.069L257.186 36.8853H260.287V36.8856Z" fill="#000066"/>
<path d="M222.179 35.802L222.557 33.2627C222.35 33.2627 222.047 33.3501 221.779 33.3501C220.728 33.3501 220.612 32.7972 220.679 32.3884L221.528 27.2071H223.125L223.511 24.3982H222.005L222.311 22.6515H219.292C219.226 22.7174 217.51 32.4754 217.51 33.6636C217.51 35.4227 218.508 36.2061 219.916 36.1934C221.018 36.1842 221.876 35.8825 222.179 35.802Z" fill="white"/>
<path d="M223.135 30.9605C223.135 35.1823 225.951 36.1855 228.35 36.1855C230.565 36.1855 231.539 35.6956 231.539 35.6956L232.071 32.8143C232.071 32.8143 230.387 33.5486 228.865 33.5486C225.624 33.5486 226.191 31.1568 226.191 31.1568H232.326C232.326 31.1568 232.723 29.2211 232.723 28.4322C232.723 26.4638 231.732 24.0654 228.418 24.0654C225.382 24.066 223.135 27.3027 223.135 30.9605ZM228.429 26.7409C230.133 26.7409 229.819 28.6355 229.819 28.7888H226.467C226.467 28.5931 226.784 26.7409 228.429 26.7409Z" fill="white"/>
<path d="M247.546 35.8008L248.086 32.5438C248.086 32.5438 246.605 33.2788 245.588 33.2788C243.447 33.2788 242.588 31.6607 242.588 29.9222C242.588 26.3954 244.431 24.4552 246.482 24.4552C248.02 24.4552 249.255 25.3099 249.255 25.3099L249.748 22.1455C249.748 22.1455 247.917 21.4124 246.348 21.4124C242.862 21.4124 239.472 24.4042 239.472 30.0232C239.472 33.7491 241.303 36.2099 244.905 36.2099C245.924 36.2102 247.546 35.8008 247.546 35.8008Z" fill="white"/>
<path d="M205.575 24.112C203.505 24.112 201.918 24.7703 201.918 24.7703L201.48 27.3439C201.48 27.3439 202.79 26.8172 204.77 26.8172C205.894 26.8172 206.716 26.9423 206.716 27.8464C206.716 28.3955 206.615 28.5982 206.615 28.5982C206.615 28.5982 205.729 28.5247 205.318 28.5247C202.707 28.5247 199.964 29.6273 199.964 32.9517C199.964 35.5712 201.764 36.1722 202.879 36.1722C205.009 36.1722 205.927 34.8045 205.976 34.8004L205.876 35.942H208.535L209.721 27.7147C209.721 24.2244 206.644 24.112 205.575 24.112ZM206.222 30.8107C206.279 31.3133 205.903 33.669 204.086 33.669C203.148 33.669 202.904 32.9603 202.904 32.541C202.904 31.7234 203.353 30.7417 205.565 30.7417C206.08 30.7423 206.135 30.7968 206.222 30.8107Z" fill="white"/>
<path d="M212.546 36.112C213.226 36.112 217.113 36.283 217.113 32.3136C217.113 28.6026 213.515 29.3357 213.515 27.8448C213.515 27.1026 214.101 26.8689 215.173 26.8689C215.599 26.8689 217.236 27.0028 217.236 27.0028L217.617 24.365C217.617 24.3653 216.557 24.1303 214.832 24.1303C212.599 24.1303 210.332 25.0126 210.332 28.031C210.332 31.4513 214.112 31.1081 214.112 32.5489C214.112 33.5106 213.056 33.5888 212.242 33.5888C210.834 33.5888 209.565 33.1107 209.561 33.1335L209.158 35.7447C209.231 35.7669 210.013 36.112 212.546 36.112Z" fill="white"/>
<path d="M272.553 21.7449L271.901 25.7434C271.901 25.7434 270.765 24.1902 268.986 24.1902C266.22 24.1902 263.915 27.4905 263.915 31.2826C263.915 33.7304 265.144 36.1288 267.658 36.1288C269.467 36.1288 270.469 34.8812 270.469 34.8812L270.336 35.9467H273.273L275.579 21.7401L272.553 21.7449ZM271.151 29.5412C271.151 31.1192 270.361 33.2269 268.724 33.2269C267.638 33.2269 267.129 32.3244 267.129 30.9079C267.129 28.5918 268.18 27.0636 269.507 27.0636C270.593 27.0633 271.151 27.8021 271.151 29.5412Z" fill="white"/>
<path d="M189.229 35.9591L191.067 25.2336L191.337 35.9591H193.417L197.297 25.2336L195.578 35.9591H198.668L201.049 21.7335H196.269L193.293 30.4618L193.138 21.7335H188.733L186.318 35.9591H189.229Z" fill="white"/>
<path d="M235.742 35.9787C236.62 31.0336 236.783 27.0183 238.88 27.7533C239.247 25.8394 239.602 25.099 240.002 24.289C240.002 24.289 239.814 24.25 239.42 24.25C238.068 24.25 237.067 26.0778 237.067 26.0778L237.336 24.3992H234.525L232.642 35.9787H235.742Z" fill="white"/>
<path d="M254.512 24.112C252.442 24.112 250.855 24.7703 250.855 24.7703L250.417 27.3439C250.417 27.3439 251.727 26.8172 253.707 26.8172C254.831 26.8172 255.653 26.9423 255.653 27.8464C255.653 28.3955 255.553 28.5982 255.553 28.5982C255.553 28.5982 254.666 28.5247 254.255 28.5247C251.645 28.5247 248.902 29.6273 248.902 32.9517C248.902 35.5712 250.701 36.1722 251.816 36.1722C253.946 36.1722 254.864 34.8045 254.913 34.8004L254.814 35.942C254.814 35.942 257.471 35.942 257.472 35.942L258.658 27.7147C258.658 24.2244 255.581 24.112 254.512 24.112ZM255.16 30.8107C255.217 31.3133 254.841 33.669 253.023 33.669C252.085 33.669 251.842 32.9603 251.842 32.541C251.842 31.7234 252.291 30.7417 254.503 30.7417C255.017 30.7423 255.072 30.7968 255.16 30.8107Z" fill="white"/>
<path d="M261.087 35.9787C261.966 31.0336 262.129 27.0183 264.226 27.7533C264.593 25.8394 264.948 25.099 265.348 24.289C265.348 24.289 265.16 24.25 264.766 24.25C263.414 24.25 262.412 26.0778 262.412 26.0778L262.682 24.3992H259.871L257.987 35.9787H261.087Z" fill="white"/>
<path d="M275.514 34.1921C275.667 34.1921 275.818 34.231 275.964 34.3102C276.11 34.3868 276.225 34.4996 276.307 34.6455C276.389 34.7906 276.429 34.9416 276.429 35.0996C276.429 35.2558 276.389 35.4065 276.308 35.5506C276.228 35.6947 276.115 35.8077 275.969 35.8872C275.824 35.9664 275.671 36.0063 275.513 36.0063C275.354 36.0063 275.202 35.9664 275.056 35.8872C274.911 35.8071 274.798 35.6947 274.717 35.5506C274.636 35.4065 274.596 35.2558 274.596 35.0996C274.596 34.9416 274.636 34.7906 274.718 34.6455C274.801 34.4996 274.916 34.3875 275.062 34.3102C275.209 34.231 275.36 34.1921 275.514 34.1921ZM275.514 34.3415C275.385 34.3415 275.26 34.3745 275.137 34.4407C275.015 34.5053 274.92 34.5987 274.851 34.7209C274.783 34.8416 274.748 34.9679 274.748 35.099C274.748 35.2301 274.781 35.3555 274.848 35.4752C274.916 35.5946 275.011 35.6883 275.133 35.7558C275.254 35.8216 275.381 35.8549 275.514 35.8549C275.645 35.8549 275.773 35.8216 275.894 35.7558C276.015 35.6883 276.109 35.5946 276.177 35.4752C276.244 35.3546 276.277 35.2301 276.277 35.099C276.277 34.9679 276.243 34.8416 276.174 34.7209C276.106 34.5987 276.011 34.5053 275.888 34.4407C275.767 34.3748 275.642 34.3415 275.514 34.3415ZM275.112 35.6006V34.6243H275.452C275.567 34.6243 275.652 34.6335 275.703 34.6522C275.755 34.6696 275.795 34.701 275.827 34.7462C275.858 34.7912 275.874 34.8384 275.874 34.8891C275.874 34.9603 275.847 35.0227 275.796 35.0753C275.745 35.1278 275.677 35.1582 275.592 35.1639C275.626 35.1785 275.654 35.1959 275.676 35.2155C275.715 35.2542 275.764 35.3188 275.821 35.409L275.942 35.6003H275.747L275.66 35.4467C275.591 35.3254 275.536 35.2501 275.493 35.2193C275.464 35.1969 275.422 35.1858 275.366 35.1858H275.273V35.6009L275.112 35.6006ZM275.271 35.0512H275.465C275.557 35.0512 275.62 35.0376 275.653 35.0103C275.686 34.9837 275.704 34.9473 275.704 34.902C275.704 34.8732 275.696 34.8473 275.68 34.8254C275.664 34.802 275.641 34.7852 275.612 34.7735C275.583 34.7624 275.531 34.7567 275.452 34.7567H275.272V35.0512" fill="white"/>
<g clip-path="url(#clip0)">
<path d="M350.1 50.3364H338.678L345.822 5.80716H357.243L350.1 50.3364Z" fill="white"/>
<path d="M391.506 6.89577C389.253 5.99478 385.679 4.99998 381.261 4.99998C369.981 4.99998 362.038 11.0632 361.99 19.7318C361.896 26.1275 367.677 29.6798 372 31.8123C376.419 33.9914 377.921 35.4138 377.921 37.3561C377.876 40.3393 374.35 41.7144 371.062 41.7144C366.502 41.7144 364.058 41.0054 360.345 39.3457L358.841 38.6343L357.243 48.6301C359.922 49.8604 364.857 50.9521 369.981 51C381.966 51 389.769 45.0306 389.861 35.7928C389.907 30.7237 386.854 26.8396 380.273 23.6657C376.279 21.6282 373.832 20.2544 373.832 18.1697C373.879 16.2746 375.901 14.3335 380.411 14.3335C384.124 14.2384 386.852 15.1381 388.919 16.0385L389.952 16.5113L391.506 6.89577Z" fill="white"/>
<path d="M406.686 34.5613C407.627 32.0031 411.247 22.1023 411.247 22.1023C411.199 22.1974 412.185 19.497 412.749 17.8392L413.548 21.6761C413.548 21.6761 415.711 32.3349 416.18 34.5613C414.395 34.5613 408.942 34.5613 406.686 34.5613ZM420.785 5.80716H411.95C409.226 5.80716 407.156 6.61181 405.981 9.50177L389.015 50.3358H400.999C400.999 50.3358 402.973 44.8398 403.397 43.6561C404.711 43.6561 416.37 43.6561 418.062 43.6561C418.389 45.2195 419.424 50.3358 419.424 50.3358H430L420.785 5.80716Z" fill="white"/>
<path d="M329.138 5.80716L317.952 36.1718L316.73 30.0135C314.662 22.9076 308.176 15.1872 300.938 11.3484L311.184 50.2892H323.262L341.216 5.80716H329.138Z" fill="white"/>
<path d="M307.565 5.80716H289.188L289 6.70689C303.335 10.4021 312.829 19.3094 316.73 30.0154L312.735 9.55025C312.077 6.70626 310.056 5.90097 307.565 5.80716Z" fill="#1AC4FA"/>
</g>
<path d="M461.401 6.34081L441.549 49.6103H465.314L468.261 42.7113H474.995L477.941 49.6103H504.101V44.3448L506.432 49.6103H519.963L522.294 44.2335V49.6103H576.698L583.314 42.8905L589.508 49.6103L617.451 49.6659L597.536 28.0963L617.451 6.34081H589.941L583.502 12.9364L577.503 6.34081H518.318L513.236 17.509L508.034 6.34081H484.318V11.4271L481.68 6.34081C481.68 6.34081 461.401 6.34081 461.401 6.34081ZM465.999 12.4851H477.584L490.752 41.8264V12.4851H503.442L513.613 33.5227L522.986 12.4851H535.613V43.5338H527.93L527.867 19.2043L516.666 43.5338H509.793L498.529 19.2043V43.5338H482.723L479.726 36.5731H463.537L460.546 43.5277H452.078C452.078 43.5277 465.999 12.4851 465.999 12.4851ZM542.642 12.4851H573.884L583.439 22.651L593.302 12.4851H602.858L588.339 28.0902L602.858 43.5155H592.869L583.314 33.2315L573.4 43.5155H542.642V12.4851ZM471.635 17.7384L466.301 30.1384H476.962L471.635 17.7384ZM550.357 18.9138V24.5817H567.401V30.8991H550.357V37.0869H569.474L578.357 27.9728L569.851 18.9084H550.357V18.9138Z" fill="white"/>
<path d="M710.042 30.4062C716.908 30.4062 722.473 24.9497 722.473 18.2187C722.473 11.4878 716.908 6.03125 710.042 6.03125C703.177 6.03125 697.611 11.4878 697.611 18.2187C697.611 24.9497 703.177 30.4062 710.042 30.4062Z" fill="#EF9122"/>
<path d="M697.611 18.2187C697.611 11.4219 703.109 6.03125 710.042 6.03125C716.975 6.03125 722.473 11.4219 722.473 18.2187C722.473 25.0156 716.975 30.4062 710.042 30.4062" fill="#F26E21"/>
<path d="M701.436 9.54687C706.217 4.85938 714.106 4.85938 718.888 9.54687C723.669 14.2344 723.669 21.9687 718.888 26.6562" fill="#F44500"/>
<path d="M638.084 6.73438H631.391V29.7031H638.084C641.67 29.7031 644.3 28.7656 646.452 27.125C649.081 25.0156 650.755 21.7344 650.755 18.2187C650.755 11.4219 645.734 6.73438 638.084 6.73438V6.73438ZM643.583 24.0781C642.148 25.25 640.236 25.9531 637.367 25.9531H635.933V10.7188H637.128C639.997 10.7188 641.909 11.1875 643.344 12.5937C645.017 14 645.973 16.1094 645.973 18.2187C646.212 20.3281 645.256 22.6719 643.583 24.0781Z" fill="white"/>
<path d="M652.906 6.73438H657.448V29.7031H652.906V6.73438Z" fill="white"/>
<path d="M668.923 15.6406C666.055 14.7031 665.337 14 665.337 12.8281C665.337 11.4219 666.772 10.25 668.684 10.25C670.119 10.25 671.314 10.7188 672.509 12.125L674.9 9.07814C672.987 7.43752 670.597 6.50002 667.967 6.50002C663.903 6.50002 660.556 9.31252 660.556 13.0625C660.556 16.3438 661.991 17.75 666.294 19.3906C668.206 20.0938 668.923 20.3281 669.402 20.7969C670.358 21.2656 670.836 22.2031 670.836 23.1406C670.836 25.0156 669.402 26.4219 667.25 26.4219C665.098 26.4219 663.186 25.25 662.23 23.375L659.361 26.1875C661.512 29.2344 664.142 30.6406 667.489 30.6406C672.27 30.6406 675.617 27.5938 675.617 23.1406C675.617 19.1563 674.183 17.5156 668.923 15.6406V15.6406Z" fill="white"/>
<path d="M677.052 18.2187C677.052 25.0156 682.55 30.1719 689.483 30.1719C691.395 30.1719 693.069 29.7031 695.22 28.7656V23.375C693.308 25.25 691.634 25.9531 689.722 25.9531C685.18 25.9531 681.833 22.6719 681.833 17.9844C681.833 13.5312 685.18 10.0156 689.483 10.0156C691.634 10.0156 693.308 10.7187 695.22 12.5937V7.20311C693.308 6.26561 691.634 5.79686 689.483 5.79686C682.789 6.26561 677.052 11.6562 677.052 18.2187V18.2187Z" fill="white"/>
<path d="M732.753 22.2031L726.537 6.73438H721.517L731.319 30.4062H733.948L744.228 6.73438H739.208L732.753 22.2031Z" fill="#969696"/>
<path d="M746.141 29.7031H759.289V25.9531H750.922V19.625H759.05V15.6406H750.922V10.7188H759.289V6.73438H746.141V29.7031Z" fill="#969696"/>
<path d="M772.199 20.0938C775.784 19.3906 777.697 17.0469 777.697 13.5312C777.697 9.3125 774.589 6.73438 769.33 6.73438H762.397V29.7031H766.939V20.5625H767.656L774.111 29.7031H779.609L772.199 20.0938V20.0938ZM768.373 17.2812H766.939V10.25H768.373C771.242 10.25 772.916 11.4219 772.916 13.7656C772.916 16.1094 771.242 17.2812 768.373 17.2812Z" fill="white"/>
<path d="M638.084 6.73438H631.391V29.7031H638.084C641.67 29.7031 644.3 28.7656 646.452 27.125C649.081 25.0156 650.755 21.7344 650.755 18.2187C650.755 11.4219 645.734 6.73438 638.084 6.73438V6.73438ZM643.583 24.0781C642.148 25.25 640.236 25.9531 637.367 25.9531H635.933V10.7188H637.128C639.997 10.7188 641.909 11.1875 643.344 12.5937C645.017 14 645.973 16.1094 645.973 18.2187C646.212 20.3281 645.256 22.6719 643.583 24.0781Z" fill="white"/>
<path d="M652.906 6.73438H657.448V29.7031H652.906V6.73438Z" fill="white"/>
<path d="M668.923 15.6406C666.055 14.7031 665.337 14 665.337 12.8281C665.337 11.4219 666.772 10.25 668.684 10.25C670.119 10.25 671.314 10.7188 672.509 12.125L674.9 9.07814C672.987 7.43752 670.597 6.50002 667.967 6.50002C663.903 6.50002 660.556 9.31252 660.556 13.0625C660.556 16.3438 661.991 17.75 666.294 19.3906C668.206 20.0938 668.923 20.3281 669.402 20.7969C670.358 21.2656 670.836 22.2031 670.836 23.1406C670.836 25.0156 669.402 26.4219 667.25 26.4219C665.098 26.4219 663.186 25.25 662.23 23.375L659.361 26.1875C661.512 29.2344 664.142 30.6406 667.489 30.6406C672.27 30.6406 675.617 27.5938 675.617 23.1406C675.617 19.1563 674.183 17.5156 668.923 15.6406V15.6406Z" fill="white"/>
<path d="M689.722 30.1719C691.634 30.1719 693.308 29.7031 695.459 28.7656V23.375C693.547 25.25 691.873 25.9531 689.961 25.9531C685.419 25.9531 682.072 22.6719 682.072 17.9844C682.072 15.6406 683.028 13.7656 684.463 12.125L681.355 9.07812C678.964 11.1875 677.291 14.4687 677.291 17.9844C677.052 25.0156 682.55 30.1719 689.722 30.1719V30.1719Z" fill="white"/>
<path d="M772.199 20.0938C775.784 19.3906 777.697 17.0469 777.697 13.5312C777.697 9.3125 774.589 6.73438 769.33 6.73438H762.397V29.7031H766.939V20.5625H767.656L774.111 29.7031H779.609L772.199 20.0938V20.0938ZM768.373 17.2812H766.939V10.25H768.373C771.242 10.25 772.916 11.4219 772.916 13.7656C772.916 16.1094 771.242 17.2812 768.373 17.2812Z" fill="#969696"/>
<path d="M665.098 51.0313V38.1406L674.183 47.2813V38.8438H676.095V51.7344L667.011 42.5938V51.0313H665.098V51.0313Z" fill="white"/>
<path d="M685.658 40.7187H680.637V43.5313H685.419V45.4062H680.637V49.3906H685.658V51.0313H678.725V38.8438H685.658V40.7187Z" fill="white"/>
<path d="M691.634 40.7188V51.0313H689.722V40.7188H686.853V39.0782H694.503V40.7188H691.634Z" fill="white"/>
<path d="M697.372 39.0781L700.48 47.2813L703.827 38.6094L706.934 47.2813L710.281 39.0781H712.672L707.173 51.9688L704.066 43.2969L700.719 51.9688L695.459 39.0781H697.372V39.0781Z" fill="white"/>
<path d="M712.911 44.9375C712.931 43.2652 713.617 41.6669 714.823 40.4844C716.03 39.3018 717.66 38.6289 719.366 38.6094C721.071 38.6289 722.702 39.3018 723.908 40.4844C725.114 41.6669 725.8 43.2652 725.82 44.9375C725.8 46.6098 725.114 48.2081 723.908 49.3906C722.702 50.5732 721.071 51.2462 719.366 51.2656C717.692 51.2656 716.258 50.7969 715.063 49.625C713.628 48.4531 712.911 47.0469 712.911 44.9375V44.9375ZM714.823 44.9375C714.823 46.3438 715.302 47.2813 716.258 48.2188C717.214 49.1563 718.17 49.625 719.366 49.625C720.561 49.625 721.756 49.1563 722.713 48.2188C723.669 47.2813 724.147 46.3438 724.147 44.9375C724.147 43.5313 723.669 42.5938 722.713 41.6563C721.756 40.7188 720.8 40.25 719.366 40.25C718.17 40.25 716.975 40.7188 716.019 41.6563C715.302 42.5938 714.823 43.7656 714.823 44.9375Z" fill="white"/>
<path d="M732.514 45.875L736.339 51.0313H733.948L730.363 46.1094H730.123V51.0313H728.211V38.8438H730.363C732.036 38.8438 733.231 39.0781 733.948 39.7812C734.666 40.4844 735.144 41.4219 735.144 42.3594C735.144 43.2969 734.905 44 734.427 44.4687C733.948 45.4062 733.231 45.875 732.514 45.875V45.875ZM730.123 44.4687H730.602C732.275 44.4687 733.231 43.7656 733.231 42.5937C733.231 41.4219 732.275 40.7187 730.602 40.7187H729.884V44.4687H730.123Z" fill="white"/>
<path d="M739.925 43.7656L744.706 38.8438H747.097L741.598 44.2344L747.097 50.7969H744.706L740.164 45.4063L739.686 45.875V50.7969H737.773V38.6094H739.686V43.7656H739.925Z" fill="white"/>
<path d="M755.225 25.9531H750.922V21.7344L746.141 17.0469V29.7031H759.05L755.225 25.9531Z" fill="white"/>
<path d="M738.012 9.07813L732.753 22.2031L726.537 6.73438H721.517L731.319 30.4062H733.948L741.598 12.5938L738.012 9.07813Z" fill="white"/>
<path d="M1022.13 25.2543C1022.13 11.9158 1012.84 2.53432 999.815 2.53432C983.231 2.53432 972.115 14.5835 972.115 31.7902C972.115 45.2176 981.497 54.5101 994.747 54.5101C1006.8 54.5101 1015.78 48.6856 1019.47 39.3931H1006.08C1004.31 42.2831 1000.53 44.1061 995.903 44.1061C988.789 44.1061 984.342 39.3931 983.942 32.7239H1021.38C1021.87 30.1895 1022.13 28.0109 1022.13 25.2543ZM984.965 23.6981C986.165 17.5624 992.123 12.6716 999.326 12.6716C1005.55 12.6716 1010.26 17.2067 1010.26 23.6981H984.965Z" fill="white"/>
<path d="M936.146 53.3097L938.547 40.5047C945.883 41.9719 946.995 37.837 948.906 27.8775L949.84 22.9423C952.508 9.02575 957.888 2.08971 973.271 3.9571L970.871 16.7621C963.534 15.2949 962.245 20.8526 960.6 29.4782L959.666 34.4134C956.998 48.5078 951.441 55.1771 936.146 53.3097Z" fill="white"/>
<path d="M918.183 53.3541L927.254 3.73479H939.214L930.188 53.3541H918.183Z" fill="white"/>
<path d="M849.668 3.73479H861.272L865.052 39.6154L880.257 3.73479H891.773L895.819 39.9711L910.491 3.73479H922.051L901.021 53.3541H887.86L883.592 19.2075L869.053 53.3541H856.337L849.668 3.73479Z" fill="white"/>
<path d="M806.317 16.8955L792.534 30.0562H815.966L818.411 24.3206H806.54L813.965 16.8955L809.652 9.47036H829.793L811.208 53.3541H818.189L839.219 3.73479H798.581L806.317 16.8955Z" fill="#00B9FF"/>
<defs>
<clipPath id="clip0">
<rect width="141" height="46" fill="white" transform="translate(289 5)"/>
</clipPath>
</defs>
</svg>
