<?xml version="1.0" standalone="no"?> 
<!DOCTYPE svg PUBLIC "-//W3C//DTD SVG 1.1//EN" "http://www.w3.org/Graphics/SVG/1.1/DTD/svg11.dtd" >
<svg xmlns="http://www.w3.org/2000/svg">
<defs>
  <font id="fa-solid-900" horiz-adv-x="640">
    <font-face font-family="fa-solid-900"
      units-per-em="512" ascent="409"
      descent="103" />
    <missing-glyph horiz-adv-x="0" />
    <glyph glyph-name="arrow-left"
      unicode="&#xF101;"
      horiz-adv-x="448" d=" M257.5 -36.1L235.3 -58.3C225.9 -67.7 210.7 -67.7 201.4 -58.3L7 136C-2.4 145.4 -2.4 160.6 7 169.9L201.4 364.3C210.8 373.7 226 373.7 235.3 364.3L257.5 342.1C267 332.6 266.8 317.1 257.1 307.8L136.6 193H424C437.3 193 448 182.3 448 169V137C448 123.7 437.3 113 424 113H136.6L257.1 -1.8C266.9000000000001 -11.1 267.1 -26.6 257.5 -36.1z" />
    <glyph glyph-name="arrow-right"
      unicode="&#xF102;"
      horiz-adv-x="448" d=" M190.5 342.1L212.7 364.3C222.1 373.7 237.3 373.7 246.6 364.3L441 170C450.4 160.6 450.4 145.4 441 136.1L246.6 -58.3C237.2 -67.7 222 -67.7 212.7 -58.3L190.5 -36.1C181 -26.6 181.2 -11.1 190.9 -1.8L311.4 113H24C10.7 113 0 123.7 0 137V169C0 182.3 10.7 193 24 193H311.4L190.9 307.8C181.1 317.1 180.9 332.6 190.5 342.1z" />
    <glyph glyph-name="bars"
      unicode="&#xF103;"
      horiz-adv-x="448" d=" M16 277H432C440.837 277 448 284.163 448 293V333C448 341.837 440.837 349 432 349H16C7.163 349 0 341.837 0 333V293C0 284.163 7.163 277 16 277zM16 117H432C440.837 117 448 124.163 448 133V173C448 181.837 440.837 189 432 189H16C7.163 189 0 181.837 0 173V133C0 124.163 7.163 117 16 117zM16 -43H432C440.837 -43 448 -35.837 448 -27V13C448 21.837 440.837 29 432 29H16C7.163 29 0 21.837 0 13V-27C0 -35.837 7.163 -43 16 -43z" />
    <glyph glyph-name="bell"
      unicode="&#xF104;"
      horiz-adv-x="448" d=" M224 -103C259.32 -103 287.9700000000001 -74.35 287.9700000000001 -39H160.03C160.03 -74.35 188.68 -103 224 -103zM439.39 46.71C420.07 67.47 383.92 98.7000000000001 383.92 201C383.92 278.7000000000001 329.44 340.9000000000001 255.98 356.1600000000001V377C255.98 394.67 241.66 409 224 409S192.02 394.67 192.02 377V356.16C118.56 340.9 64.08 278.7 64.08 201C64.08 98.7 27.93 67.47 8.61 46.71C2.61 40.2600000000001 -0.05 32.55 0 25.0000000000001C0.11 8.6000000000001 12.98 -6.9999999999999 32.1 -6.9999999999999H415.9000000000001C435.0200000000001 -6.9999999999999 447.9000000000001 8.6000000000001 448.0000000000001 25.0000000000001C448.0500000000001 32.5500000000001 445.3900000000001 40.27 439.3900000000001 46.71z" />
    <glyph glyph-name="bold"
      unicode="&#xF105;"
      horiz-adv-x="384" d=" M314.52 170.22A119.76000000000002 119.76000000000002 0 0 1 232 377H48A16 16 0 0 1 32 361V345A16 16 0 0 1 48 329H64V-23H48A16 16 0 0 1 32 -39V-55A16 16 0 0 1 48 -71H256A128 128 0 0 1 384 57C384 106.49 355.62 148.92 314.52 170.22zM128 329H216A72 72 0 0 0 216 185H128zM240 -23H128V137H240A80 80 0 0 0 240 -23z" />
    <glyph glyph-name="books"
      unicode="&#xF106;"
      horiz-adv-x="576" d=" M575.11 -34.25L461.51 389.94C458.2 402.3 445.61 412.18 430.15 408.04L414.7 403.9C408.52 402.24 403.17 397.5 398.64 389.6600000000001C384.61 382.7200000000001 346.34 372.45 330.64 371.44C322.8 375.9700000000001 315.79 377.4 309.61 375.74L294.1500000000001 371.6C291.73 370.95 289.9500000000001 369.65 288.0000000000001 368.52V377C288.0000000000001 394.67 273.6700000000001 409 256.0000000000001 409H192.0000000000001C174.3300000000001 409 160.0000000000001 394.67 160.0000000000001 377V313H288.0000000000001L389.6600000000001 -83.94C392.9700000000001 -96.3 405.5600000000001 -106.1799999999999 421.0200000000001 -102.04L436.4700000000001 -97.9C442.6500000000001 -96.24 448.0000000000001 -91.5000000000001 452.5300000000001 -83.66C466.4400000000001 -76.78 504.7100000000001 -66.46 520.5300000000001 -65.44C528.3700000000001 -69.97 535.3800000000001 -71.4 541.5600000000001 -69.7400000000001L557.0200000000001 -65.6000000000001C572.4700000000001 -61.4600000000001 578.4300000000001 -46.6100000000001 575.1100000000001 -34.2500000000001zM440.7100000000001 -27.19L348.64 316.63L410.46 333.19L502.53 -10.63L440.71 -27.19zM0 25H128V281H0V25zM96 409H32C14.33 409 0 394.67 0 377V313H128V377C128 394.67 113.67 409 96 409zM0 -71C0 -88.67 14.33 -103 32 -103H96C113.67 -103 128 -88.67 128 -71V-7H0V-71zM160 25H288V281H160V25zM160 -71C160 -88.67 174.33 -103 192 -103H256C273.67 -103 288 -88.67 288 -71V-7H160V-71z" />
    <glyph glyph-name="camera-retro"
      unicode="&#xF107;"
      horiz-adv-x="512" d=" M48 377C21.5 377 0 355.5 0 329V-23C0 -49.5 21.5 -71 48 -71H464C490.5 -71 512 -49.5 512 -23V329C512 355.5 490.5 377 464 377H48zM48 345H154C157.3 345 160 342.3 160 339V319C160 315.7 157.3 313 154 313H38C34.7 313 32 315.7 32 319V329C32 337.8 39.2 345 48 345zM474 249H38C34.7 249 32 251.7 32 255V291C32 294.3 34.7 297 38 297H176L206.2 342.3C207.3 344 209.2 345 211.2 345H464C472.8 345 480 337.8 480 329V255C480 251.7 477.3 249 474 249zM256 -15C189.8 -15 136 38.8 136 105S189.8 225 256 225S376 171.2 376 105S322.2 -15 256 -15zM256 193C207.5 193 168 153.5 168 105S207.5 17 256 17S344 56.5 344 105S304.5 193 256 193zM208 89C199.2 89 192 96.2 192 105C192 140.3 220.7 169 256 169C264.8 169 272 161.8 272 153S264.8 137 256 137C238.4 137 224 122.6 224 105C224 96.2 216.8 89 208 89z" />
    <glyph glyph-name="camera"
      unicode="&#xF108;"
      horiz-adv-x="512" d=" M512 265V-23C512 -49.5 490.5 -71 464 -71H48C21.5 -71 0 -49.5 0 -23V265C0 291.5 21.5 313 48 313H136L148.3 345.9C155.3 364.6 173.2 377 193.2 377H318.7000000000001C338.7000000000001 377 356.6 364.6 363.6 345.9L376 313H464C490.5 313 512 291.5 512 265zM376 121C376 187.2 322.2 241 256 241S136 187.2 136 121S189.8 1 256 1S376 54.8 376 121zM344 121C344 72.5 304.5 33 256 33S168 72.5 168 121S207.5 209 256 209S344 169.5 344 121z" />
    <glyph glyph-name="cart-plus"
      unicode="&#xF109;"
      horiz-adv-x="576" d=" M504.717 89H211.572L218.117 57H486.535C501.936 57 513.351 42.699 509.938 27.681L504.421 3.405C523.112 -5.668 536 -24.828 536 -47C536 -78.202 510.481 -103.444 479.176 -102.994C449.353 -102.565 424.826 -78.3630000000001 424.021 -48.547C423.581 -32.26 430.106 -17.498 440.824 -6.999H231.176C241.553 -17.165 248 -31.326 248 -47C248 -78.813 221.472 -104.431 189.33 -102.938C160.79 -101.613 137.579 -78.553 136.079 -50.021C134.921 -27.987 146.515 -8.566 164.13 1.5650000000001L93.883 345H24C10.745 345 0 355.745 0 369V385C0 398.255 10.745 409 24 409H126.529C137.93 409 147.757 400.979 150.042 389.81L159.208 345H551.99C567.391 345 578.806 330.699 575.393 315.681L528.12 107.681C525.637 96.754 515.923 89 504.717 89zM408 241H360V281C360 289.837 352.837 297 344 297H328C319.163 297 312 289.837 312 281V241H264C255.163 241 248 233.837 248 225V209C248 200.163 255.163 193 264 193H312V153C312 144.163 319.163 137 328 137H344C352.837 137 360 144.163 360 153V193H408C416.837 193 424 200.163 424 209V225C424 233.837 416.837 241 408 241z" />
    <glyph glyph-name="chart-bar"
      unicode="&#xF10A;"
      horiz-adv-x="512" d=" M332.8 89H371.2C377.6 89 384 95.4 384 101.8V236.2C384 242.6 377.6 249 371.2 249H332.8C326.4000000000001 249 320 242.6 320 236.2V101.8C320 95.4 326.4 88.9999999999999 332.8 88.9999999999999zM428.8 89H467.2C473.6 89 480 95.4 480 101.8V332.2C480 338.6 473.6 345 467.2 345H428.8C422.4000000000001 345 416 338.6 416 332.2V101.8C416 95.4 422.4 89 428.8 89zM140.8 89H179.2C185.6 89 192 95.4 192 101.8V172.2C192 178.6 185.6 185 179.2 185H140.8C134.4 185 128 178.6 128 172.2V101.8C128 95.4 134.4 89 140.8 89zM236.8 89H275.2C281.6 89 288 95.4 288 101.8V300.2C288 306.6 281.6 313 275.2 313H236.8C230.4 313 224 306.6 224 300.2V101.8C224 95.4 230.4 89 236.8 89zM496 25H64V329C64 337.8400000000001 56.84 345 48 345H16C7.16 345 0 337.8400000000001 0 329V-7C0 -24.67 14.33 -39 32 -39H496C504.84 -39 512 -31.84 512 -23V9C512 17.84 504.84 25 496 25z" />
    <glyph glyph-name="check-circle"
      unicode="&#xF10B;"
      horiz-adv-x="512" d=" M504 153C504 16.033 392.967 -95 256 -95S8 16.033 8 153S119.033 401 256 401S504 289.967 504 153zM227.314 21.686L411.314 205.686C417.562 211.934 417.562 222.065 411.314 228.313L388.687 250.94C382.439 257.189 372.308 257.189 366.059 250.94L216 100.882L145.941 170.941C139.693 177.189 129.562 177.189 123.313 170.941L100.686 148.314C94.438 142.066 94.438 131.935 100.686 125.687L204.686 21.687C210.935 15.438 221.065 15.438 227.314 21.686z" />
    <glyph glyph-name="check"
      unicode="&#xF10C;"
      horiz-adv-x="512" d=" M173.898 -30.404L7.498 135.996C-2.499 145.993 -2.499 162.202 7.498 172.2L43.701 208.404C53.698 218.402 69.908 218.402 79.905 208.404L192 96.31L432.0950000000001 336.404C442.0920000000001 346.401 458.302 346.401 468.299 336.404L504.5020000000001 300.2C514.499 290.203 514.499 273.9940000000001 504.5020000000001 263.996L210.1020000000001 -30.405C200.1040000000001 -40.402 183.8950000000001 -40.402 173.8980000000001 -30.4040000000001z" />
    <glyph glyph-name="chevron-down"
      unicode="&#xF10D;"
      horiz-adv-x="448" d=" M207.029 27.524L12.686 221.868C3.313 231.241 3.313 246.437 12.686 255.809L35.353 278.476C44.71 287.833 59.875 287.851 69.254 278.516L224 124.495L378.745 278.516C388.124 287.851 403.289 287.833 412.646 278.476L435.313 255.809C444.686 246.436 444.686 231.24 435.313 221.868L240.971 27.524C231.598 18.152 216.402 18.152 207.029 27.524z" />
    <glyph glyph-name="chevron-left"
      unicode="&#xF10E;"
      horiz-adv-x="320" d=" M34.52 169.97L228.87 364.31C238.24 373.68 253.44 373.68 262.81 364.31L285.48 341.64C294.8400000000001 332.28 294.85 317.12 285.5200000000001 307.74L131.49 153L285.51 -1.75C294.85 -11.13 294.83 -26.29 285.47 -35.65L262.8 -58.32C253.43 -67.69 238.23 -67.69 228.86 -58.32L34.52 136.03C25.15 145.4 25.15 160.6 34.52 169.97z" />
    <glyph glyph-name="chevron-right"
      unicode="&#xF10F;"
      horiz-adv-x="320" d=" M285.476 136.029L91.132 -58.314C81.759 -67.687 66.563 -67.687 57.191 -58.314L34.524 -35.647C25.167 -26.2900000000001 25.149 -11.1250000000001 34.484 -1.746L188.505 153L34.484 307.745C25.149 317.124 25.167 332.289 34.524 341.646L57.191 364.313C66.564 373.6860000000001 81.76 373.6860000000001 91.132 364.313L285.475 169.97C294.848 160.598 294.848 145.402 285.476 136.029z" />
    <glyph glyph-name="chevron-up"
      unicode="&#xF110;"
      horiz-adv-x="448" d=" M240.971 278.476L435.314 84.133C444.687 74.7600000000001 444.687 59.564 435.314 50.192L412.647 27.525C403.29 18.168 388.125 18.15 378.7459999999999 27.485L224 181.505L69.255 27.484C59.876 18.149 44.711 18.167 35.354 27.524L12.687 50.191C3.314 59.564 3.314 74.7600000000001 12.687 84.1320000000001L207.03 278.475C216.402 287.848 231.598 287.848 240.971 278.476z" />
    <glyph glyph-name="circle"
      unicode="&#xF111;"
      horiz-adv-x="512" d=" M256 401C119 401 8 290 8 153S119 -95 256 -95S504 16 504 153S393 401 256 401z" />
    <glyph glyph-name="clock"
      unicode="&#xF112;"
      horiz-adv-x="512" d=" M256 401C119 401 8 290 8 153S119 -95 256 -95S504 16 504 153S393 401 256 401zM313.1 50.9L224.9 115C221.8 117.3 220 120.9 220 124.7V293C220 299.6 225.4 305 232 305H280C286.6 305 292 299.6 292 293V155.3L355.5 109.1C360.9 105.2000000000001 362 97.7000000000001 358.1 92.3L329.9000000000001 53.5C326.0000000000001 48.2 318.5000000000001 47 313.1 50.9z" />
    <glyph glyph-name="cloud-upload-alt"
      unicode="&#xF113;"
      horiz-adv-x="640" d=" M537.6 182.4C541.7 193.1 544 204.8 544 217C544 270 501 313 448 313C428.3 313 409.9 307 394.7 296.8C367 344.8 315.3 377 256 377C167.6 377 96 305.4 96 217C96 214.3 96.1 211.6 96.2 208.9C40.2 189.2 0 135.8 0 73C0 -6.5 64.5 -71 144 -71H512C582.7 -71 640 -13.7 640 57C640 118.9 596 170.6 537.6 182.4zM393.4 121H328V9C328 0.2 320.8 -7 312 -7H264C255.2 -7 248 0.2 248 9V121H182.6C168.3 121 161.2 138.2 171.3 148.3L276.7 253.7C282.9 259.9 293.1 259.9 299.3 253.7L404.7000000000001 148.3C414.8000000000001 138.2 407.6 121 393.4000000000001 121z" />
    <glyph glyph-name="code"
      unicode="&#xF114;"
      horiz-adv-x="640" d=" M278.9 -102.5L217.9 -84.8C211.5 -83 207.9 -76.3 209.7 -69.9L346.2 400.3C348 406.7 354.7 410.3 361.1 408.5L422.1 390.8C428.5 389 432.1 382.3 430.3 375.9L293.8 -94.3C291.9000000000001 -100.7 285.3 -104.4 278.9000000000001 -102.5zM164.9 9.7L208.4 56.1C213 60.9999999999999 212.7 68.8 207.6 73.3L117 153L207.6 232.7C212.7 237.2 213.1 245 208.4 249.9L164.9 296.3C160.4 301.1 152.8 301.4 147.9 296.8L3.8 161.8C-1.3 157.1 -1.3 149 3.8 144.3L147.9 9.2C152.8 4.6 160.4 4.8000000000001 164.9 9.7zM492.1 9.1L636.1999999999999 144.1999999999999C641.3 148.8999999999999 641.3 157 636.1999999999999 161.6999999999999L492.1 296.9C487.3 301.4 479.7 301.2 475.1 296.4L431.6 250C427 245.1 427.3 237.3 432.4000000000001 232.8L523 153L432.4 73.3C427.3 68.8 426.9 61 431.6 56.1L475.1 9.7C479.6 4.8000000000001 487.2 4.6 492.1 9.1z" />
    <glyph glyph-name="cog"
      unicode="&#xF115;"
      horiz-adv-x="512" d=" M487.4 93.3L444.8 117.9C449.1 141.1 449.1 164.9 444.8 188.1L487.4 212.7C492.3 215.5 494.5 221.3 492.9 226.7C481.8 262.3 462.9 294.5 438.2 321.3C434.4 325.4 428.2 326.4 423.4 323.6L380.8 299C362.9000000000001 314.4 342.3 326.3 320 334.1V383.2C320 388.8 316.1 393.7 310.6 394.9C273.9000000000001 403.1 236.3 402.7 201.4 394.9C195.9 393.7 192 388.8 192 383.2V334C169.8000000000001 326.1 149.2000000000001 314.2 131.2000000000001 298.9L88.7 323.5C83.8 326.3 77.7 325.4 73.9 321.2C49.2 294.5 30.3 262.3 19.2 226.6C17.5 221.2 19.8 215.4 24.7 212.6L67.3 188C63 164.8 63 141 67.3 117.8L24.7 93.2C19.8 90.4 17.6 84.6 19.2 79.2C30.3 43.6 49.2 11.4 73.9 -15.4C77.7 -19.5 83.9 -20.5 88.7 -17.7L131.3 6.9C149.2 -8.4999999999999 169.8 -20.4 192.1 -28.2V-77.4C192.1 -83 196 -87.9 201.5 -89.1C238.2000000000001 -97.2999999999999 275.8 -96.9 310.7000000000001 -89.1C316.2000000000001 -87.9 320.1 -82.9999999999999 320.1 -77.4V-28.2C342.3 -20.3 362.9000000000001 -8.4 380.9000000000001 6.9L423.5000000000001 -17.7C428.4000000000001 -20.5 434.5000000000001 -19.6 438.3000000000001 -15.4C463.0000000000001 11.3 481.9000000000001 43.5 493.0000000000001 79.2000000000001C494.5000000000001 84.7000000000001 492.3000000000001 90.5000000000001 487.4 93.3000000000001zM256 73C211.9 73 176 108.9 176 153S211.9 233 256 233S336 197.1 336 153S300.1 73 256 73z" />
    <glyph glyph-name="cogs"
      unicode="&#xF116;"
      horiz-adv-x="640" d=" M512.1 218L503.9 203.7C500.9 198.4 494.5000000000001 196.2 488.8 198.3C477 202.7 466.2 209 456.7 216.9C452.1 220.7 450.9 227.4 453.9 232.6L462.1 246.9C455.2 254.9 449.8 264.2 446.2 274.3H429.7C423.7 274.3 418.5 278.6 417.5 284.6C415.5 296.6 415.4 309.2 417.5 321.7C418.5 327.7 423.7 332.1 429.7 332.1H446.2C449.8 342.2 455.2 351.5 462.1 359.5L453.9 373.8C450.9 379 452 385.7 456.7 389.5C466.2 397.4 477.1 403.7 488.8 408.1C494.5 410.2 500.9 408 503.9 402.7L512.1 388.4C522.6 390.3 533.3000000000001 390.3 543.8000000000001 388.4L552 402.7C555 408 561.4 410.2 567.1 408.1C578.9 403.7 589.7 397.4 599.2 389.5C603.8000000000001 385.7 605 379 602 373.8L593.8 359.5C600.6999999999999 351.5 606.0999999999999 342.2 609.6999999999999 332.1H626.1999999999999C632.1999999999999 332.1 637.4 327.8 638.4 321.8C640.4 309.8 640.5 297.2 638.4 284.7C637.4 278.7 632.1999999999999 274.3 626.1999999999999 274.3H609.6999999999999C606.0999999999999 264.2 600.6999999999999 254.9 593.8 246.9L602 232.6C605 227.4 603.9 220.7 599.2 216.9C589.7 209 578.8000000000001 202.7 567.1 198.3C561.4 196.2 555 198.4 552 203.7L543.8 218C533.4 216.1 522.5999999999999 216.1 512.0999999999999 218zM501.6 276.8C540.1 247.2 584 291.1 554.4 329.6C515.9 359.3 472 315.3 501.6 276.8zM386.3 122.9L420 106.1C430.1 100.3 434.5 87.9999999999999 430.5 76.9999999999999C421.6 52.8 404.1 30.6 387.9 11.1999999999999C380.5 2.3 367.7 0.0999999999999 357.6 5.8999999999999L328.5 22.6999999999999C312.5 8.9999999999999 293.8999999999999 -1.9000000000001 273.6 -9.0000000000001V-42.6000000000001C273.6 -54.2000000000001 265.3 -64.2000000000001 253.9 -66.2000000000001C229.3 -70.4000000000001 203.5 -70.6000000000001 178 -66.2000000000001C166.5 -64.2000000000001 158 -54.3000000000001 158 -42.6000000000001V-9C137.7 -1.8 119.1 9 103.1 22.7L74 6C64 0.2 51.1 2.4 43.7 11.3C27.5 30.7 10.4 52.9 1.5 77C-2.5 87.9 1.9 100.2 12 106.1L45.3 122.9C41.4 143.8 41.4 165.3000000000001 45.3 186.3000000000001L12 203.2C1.9 209 -2.6 221.3 1.5 232.2C10.4 256.4 27.5 278.6 43.7 298C51.1 306.9 63.9 309.1 74 303.3L103.1 286.5C119.1 300.2 137.7 311.1 158 318.2V351.9C158 363.4 166.2 373.4 177.6 375.4C202.2 379.6 228.1 379.8 253.6 375.5C265.1 373.5 273.6 363.6 273.6 351.9V318.3C293.9000000000001 311.1 312.5 300.3 328.5 286.6L357.6 303.4C367.6 309.2 380.5 307 387.9000000000001 298.1C404.1 278.7 421.1 256.5 430.0000000000001 232.3C434.0000000000001 221.4 430.1000000000001 209.1 420.0000000000001 203.2L386.3000000000001 186.4C390.2000000000001 165.4 390.2000000000001 143.9 386.3000000000001 122.9zM268.7000000000001 101.8C327.9000000000001 178.8 240.0000000000001 266.7 163.0000000000001 207.5C103.8000000000001 130.5 191.7000000000001 42.5999999999999 268.7000000000001 101.8zM512.1 -80.9L503.9 -95.2C500.9 -100.5000000000001 494.5000000000001 -102.7 488.8 -100.6C477 -96.2 466.2 -89.9 456.7 -82C452.1 -78.2 450.9 -71.5 453.9 -66.3L462.1 -52C455.2 -44 449.8 -34.7 446.2 -24.6H429.7C423.7 -24.6 418.5 -20.3 417.5 -14.3C415.5 -2.3 415.4 10.3 417.5 22.8C418.5 28.8 423.7 33.2 429.7 33.2H446.2C449.8 43.3 455.2 52.6 462.1 60.6L453.9 74.9C450.9 80.1 452 86.8 456.7 90.6C466.2 98.4999999999999 477.1 104.8 488.8 109.2C494.5 111.3 500.9 109.1 503.9 103.8L512.1 89.5C522.6 91.4 533.3000000000001 91.4 543.8000000000001 89.5L552.0000000000001 103.8C555.0000000000001 109.1 561.4000000000001 111.3 567.1000000000001 109.2C578.9000000000001 104.8 589.7000000000002 98.5 599.2000000000002 90.6C603.8000000000002 86.8 605.0000000000001 80.1 602.0000000000001 74.9L593.8000000000001 60.6C600.7 52.6 606.1 43.3 609.7 33.2H626.2C632.2 33.2 637.4000000000001 28.9 638.4000000000001 22.9C640.4000000000001 10.9 640.5000000000001 -1.7 638.4000000000001 -14.2C637.4000000000001 -20.2 632.2 -24.6 626.2 -24.6H609.7C606.1 -34.7 600.7 -44 593.8000000000001 -52L602.0000000000001 -66.3C605.0000000000001 -71.5 603.9000000000001 -78.2 599.2000000000002 -82C589.7000000000002 -89.9 578.8000000000002 -96.2 567.1000000000001 -100.6C561.4000000000001 -102.7 555.0000000000001 -100.5 552.0000000000001 -95.2L543.8000000000001 -80.9C533.4000000000001 -82.8 522.6 -82.8 512.1 -80.9zM501.6 -22C540.1 -51.6 584 -7.7 554.4 30.8C515.9 60.4 472 16.5 501.6 -22z" />
    <glyph glyph-name="compress-arrows-alt"
      unicode="&#xF117;"
      horiz-adv-x="512" d=" M200 121H88C66.6 121 55.9 95.2 71 80L103.9 49L4.7 -50.3C-1.5 -56.5 -1.5 -66.7 4.7 -72.9L30.1 -98.3C36.3 -104.5 46.5 -104.5 52.7 -98.3L152 1L183.1 -32C198.2 -47.1 224 -36.4 224 -15V97C224 110.3 213.3 121 200 121zM312 185H424C445.4 185 456.1 210.9 441 226L408 257L507.3 356.3C513.5 362.5 513.5 372.7 507.3 378.9L481.9 404.3C475.7 410.5 465.5 410.5 459.3 404.3L360 305L328.9 338C313.8 353.1 288 342.4 288 321V209C288 195.7 298.7 185 312 185zM408 49L441 80.1C456.1 95.2000000000001 445.4 121 424 121H312C298.7 121 288 110.3 288 97V-15C288 -36.4 313.9 -47.1 329 -32L360 0.9L459.3 -98.4C465.5 -104.6 475.7 -104.6 481.9 -98.4L507.3 -73.0000000000001C513.5 -66.8000000000001 513.5 -56.6000000000001 507.3 -50.4L408 49zM183 337.9L152 305L52.7 404.3C46.5 410.5 36.3 410.5 30.1 404.3L4.7 378.9C-1.5 372.7 -1.5 362.5 4.7 356.3L104 257L71 225.9C55.9 210.8 66.6 185 88 185H200C213.3 185 224 195.7 224 209V321C224 342.3 198.1 353 183 337.9z" />
    <glyph glyph-name="compress"
      unicode="&#xF118;"
      horiz-adv-x="448" d=" M436 217H312C298.7 217 288 227.7 288 241V365C288 371.6 293.4 377 300 377H340C346.6 377 352 371.6 352 365V281H436C442.6 281 448 275.6 448 269V229C448 222.4 442.6 217 436 217zM160 241V365C160 371.6 154.6 377 148 377H108C101.4 377 96 371.6 96 365V281H12C5.4 281 0 275.6 0 269V229C0 222.4 5.4 217 12 217H136C149.3 217 160 227.7 160 241zM160 -59V65C160 78.3 149.3 89 136 89H12C5.4 89 0 83.6 0 77V37C0 30.4 5.4 25 12 25H96V-59C96 -65.6 101.4 -71 108 -71H148C154.6 -71 160 -65.6 160 -59zM352 -59V25H436C442.6 25 448 30.4 448 37V77C448 83.6 442.6 89 436 89H312C298.7 89 288 78.3 288 65V-59C288 -65.6 293.4 -71 300 -71H340C346.6 -71 352 -65.6 352 -59z" />
    <glyph glyph-name="computer-classic"
      unicode="&#xF119;"
      horiz-adv-x="448" d=" M32 -87A16 16 0 0 1 48 -103H400A16 16 0 0 1 416 -87V-39H32zM416 409H32A32 32 0 0 1 0 377V9A16 16 0 0 1 16 -7H432A16 16 0 0 1 448 9V377A32 32 0 0 1 416 409zM80 53A20 20 0 1 0 100 73A20 20 0 0 0 80 53zM384 65A8 8 0 0 0 376 57H232A8 8 0 0 0 224 65V81A8 8 0 0 0 232 89H376A8 8 0 0 0 384 81zM384 185A32 32 0 0 0 352 153H96A32 32 0 0 0 64 185V313A32 32 0 0 0 96 345H352A32 32 0 0 0 384 313z" />
    <glyph glyph-name="credit-card-front"
      unicode="&#xF11A;"
      horiz-adv-x="576" d=" M528 377H48C21.5 377 0 355.5 0 329V-23C0 -49.5 21.5 -71 48 -71H528C554.5 -71 576 -49.5 576 -23V329C576 355.5 554.5 377 528 377zM192 141C192 147.6 197.4 153 204 153H268C274.6 153 280 147.6 280 141V101C280 94.4 274.6 89 268 89H204C197.4 89 192 94.4 192 101V141zM160 5C160 -1.6 154.6 -7 148 -7H76C69.4 -7 64 -1.6 64 5V13C64 19.6 69.4 25 76 25H148C154.6 25 160 19.6 160 13V5zM176 101C176 94.4 170.6 89 164 89H76C69.4 89 64 94.4 64 101V141C64 147.6 69.4 153 76 153H164C170.6 153 176 147.6 176 141V101zM352 5C352 -1.6 346.6 -7 340 -7H204C197.4 -7 192 -1.6 192 5V13C192 19.6 197.4 25 204 25H340C346.6 25 352 19.6 352 13V5zM384 101C384 94.4 378.6 89 372 89H308C301.4 89 296 94.4 296 101V141C296 147.6 301.4 153 308 153H372C378.6 153 384 147.6 384 141V101zM512 101C512 94.4 506.6 89 500 89H412C405.4 89 400 94.4 400 101V141C400 147.6 405.4 153 412 153H500C506.6 153 512 147.6 512 141V101zM512 241C512 227.7 501.3 217 488 217H408C394.7 217 384 227.7 384 241V289C384 302.3 394.7 313 408 313H488C501.3 313 512 302.3 512 289V241z" />
    <glyph glyph-name="credit-card"
      unicode="&#xF11B;"
      horiz-adv-x="576" d=" M0 -23C0 -49.5 21.5 -71 48 -71H528C554.5 -71 576 -49.5 576 -23V153H0V-23zM192 45C192 51.6 197.4 57 204 57H340C346.6 57 352 51.6 352 45V5C352 -1.6 346.6 -7 340 -7H204C197.4 -7 192 -1.6 192 5V45zM64 45C64 51.6 69.4 57 76 57H148C154.6 57 160 51.6 160 45V5C160 -1.6 154.6 -7 148 -7H76C69.4 -7 64 -1.6 64 5V45zM576 329V281H0V329C0 355.5 21.5 377 48 377H528C554.5 377 576 355.5 576 329z" />
    <glyph glyph-name="cut"
      unicode="&#xF11C;"
      horiz-adv-x="448" d=" M278.06 153L444.48 319.43C449.17 324.12 449.17 331.7200000000001 444.48 336.4C411.68 369.2 358.49 369.2 325.69 336.4L210.18 220.88L185.32 245.74C189.63 256.66 192 268.55 192 281C192 334.02 149.02 377 96 377S0 334.02 0 281S42.98 185 96 185C100.54 185 104.99 185.32 109.36 185.93L142.29 153L109.36 120.07C104.99 120.68 100.53 121 96 121C42.98 121 0 78.02 0 25S42.98 -71 96 -71S192 -28.02 192 25C192 37.45 189.63 49.34 185.32 60.26L210.18 85.12L325.69 -30.4C358.49 -63.2 411.68 -63.2 444.48 -30.4C449.17 -25.72 449.17 -18.12 444.48 -13.4299999999999L278.06 153zM96 249C78.36 249 64 263.36 64 281S78.36 313 96 313S128 298.64 128 281S113.64 249 96 249zM96 -7C78.36 -7 64 7.36 64 25S78.36 57 96 57S128 42.64 128 25S113.64 -7 96 -7z" />
    <glyph glyph-name="dollar-sign"
      unicode="&#xF11D;"
      horiz-adv-x="288" d=" M209.2 175.6L101.2 207.2C88.7 210.8 80 222.5 80 235.5C80 251.8 93.2 265 109.5 265H175.8C188 265 200 261.3 210 254.5C216.1 250.4 224.3 251.4 229.5 256.5L264.3 290.5C271.4000000000001 297.4 270.4000000000001 308.9 262.5 315C238 334.2 207.4 344.9 176 345V393C176 401.8 168.8 409 160 409H128C119.2 409 112 401.8 112 393V345H109.5C45.8 345 -5.4 290.3 0.5 225.4C4.7 179.3 39.9 141.8 84.3 128.8L186.8 98.8C199.3 95.1 208 83.5 208 70.5C208 54.2 194.8 41 178.5 41H112.2C100 41 88 44.7 78 51.5C71.9 55.6 63.7 54.6 58.5 49.5L23.7 15.5C16.6 8.6 17.6 -2.9 25.5 -9C50 -28.2 80.6 -38.9 112 -39V-87C112 -95.8 119.2 -103 128 -103H160C168.8 -103 176 -95.8 176 -87V-38.8C222.6 -37.9 266.3 -10.2 281.7 33.9C303.2 95.5 267.1 158.7 209.2 175.6z" />
    <glyph glyph-name="donate"
      unicode="&#xF11E;"
      horiz-adv-x="512" d=" M256 -7C370.9 -7 464 86.1 464 201S370.9 409 256 409S48 315.9 48 201S141.1 -7 256 -7zM233.8 311.6V328.4C233.8 337.6 241.2 345 250.4 345H261.5C270.7 345 278.1 337.6 278.1 328.4V311.4C293.6 310.6 308.6 305.3 321.1 296C326.7000000000001 291.9 327.3 283.7 322.3 278.9L306 263.4C302.2 259.7000000000001 296.5 259.6 292 262.4C286.6 265.8 280.6 267.5 274.2 267.5H235.3C226.3 267.5 219 259.3 219 249.2C219 241 224 233.7 231.1 231.6L293.4 212.9C319.1 205.2 337.1 180.5 337.1 152.8C337.1 118.8 310.7 91.3 278 90.4V73.6C278 64.4 270.6 57 261.3999999999999 57H250.3C241.1 57 233.7 64.4 233.7 73.6V90.6C218.1999999999999 91.4 203.1999999999999 96.7000000000001 190.6999999999999 106C185.0999999999999 110.1 184.5 118.3 189.5 123.1L205.8 138.6C209.6 142.3 215.3 142.4 219.8 139.6C225.2 136.2000000000001 231.2 134.5 237.6 134.5H276.5C285.5 134.5 292.8 142.7 292.8 152.8C292.8 161 287.8 168.3 280.7 170.4L218.3999999999999 189.1C192.6999999999999 196.8 174.6999999999999 221.5 174.6999999999999 249.2C174.7999999999999 283.2 201.0999999999999 310.7 233.8 311.6zM480 57H447.5C427.9 31 402.9 9.3 374.5 -7H438.3C443.6 -7 447.9000000000001 -10.6 447.9000000000001 -15V-31C447.9000000000001 -35.4 443.6 -39 438.3 -39H73.6C68.3 -39 64 -35.4 64 -31V-15C64 -10.6 68.3 -7 73.6 -7H137.4C109 9.3 84.1 31 64.4 57H32C14.3 57 0 42.7 0 25V-71C0 -88.7 14.3 -103 32 -103H480C497.7 -103 512 -88.7 512 -71V25C512 42.7 497.7 57 480 57z" />
    <glyph glyph-name="download"
      unicode="&#xF11F;"
      horiz-adv-x="512" d=" M216 409H296C309.3 409 320 398.3 320 385V217H407.7C425.5 217 434.4 195.5 421.8 182.9L269.7 30.7C262.2 23.2 249.9 23.2 242.4 30.7L90.1 182.9C77.5 195.5 86.4 217 104.2 217H192V385C192 398.3 202.7 409 216 409zM512 33V-79C512 -92.3 501.3 -103 488 -103H24C10.7 -103 0 -92.3 0 -79V33C0 46.3 10.7 57 24 57H170.7L219.7 8C239.8 -12.1 272.2 -12.1 292.3 8L341.3 57H488C501.3 57 512 46.3 512 33zM388 -55C388 -44 379 -35 368 -35S348 -44 348 -55S357 -75 368 -75S388 -66 388 -55zM452 -55C452 -44 443 -35 432 -35S412 -44 412 -55S421 -75 432 -75S452 -66 452 -55z" />
    <glyph glyph-name="dragon"
      unicode="&#xF120;"
      horiz-adv-x="640" d=" M18.32 153.22L192 185.04L100.72 116.35C90.64 106.27 97.78 89.04 112.03 89.04H334.73C325.29 115.44 320 143.51 320 172.42V214.69L200.27 302.29C176.45 318.17 144.98 316.3 123.21 297.7000000000001L5.81 181.36C-6.57 171.03 2.36 150.94 18.32 153.22zM575.19 119.12L474.5300000000001 169.43A47.992 47.992 0 0 0 448 212.35V249.04H512L540.09 226.41C546.09 220.41 554.23 217.04 562.72 217.04H593.69A32 32 0 0 1 622.3100000000001 234.73L636.62 263.35A32.005 32.005 0 0 1 633.6 296.86L559.07 396.24C553.02 404.3 543.54 409 533.47 409H296.02C288.89 409 285.32 400.43 290.36 395.39L352 345.04L292.42 320.2C286.5200000000001 317.25 286.5200000000001 308.8400000000001 292.42 305.89L352 281.04V172.42C352 100.34 388.03 33.03 448 -6.96C252.41 -13.77 103.44 -47.97 13.9 -67.87C5.78 -69.67 0 -76.88 0 -85.2C0 -95 7.95 -103 17.76 -103H516.84C580.13 -103.01 636.45 -55.44 639.83 7.76C642.35 55.04 617.1 98.16 575.19 119.12zM489.18 342.75L534.83 331.3400000000001C532.08 320.43 522.36 312.45 510.7 313.08C497.7400000000001 313.79 484.85 325.61 489.1800000000001 342.75z" />
    <glyph glyph-name="edit"
      unicode="&#xF121;"
      horiz-adv-x="576" d=" M402.6 325.8L492.8 235.6C496.6 231.8 496.6 225.6 492.8 221.8L274.4 3.4L181.6 -6.9C169.2 -8.3 158.7 2.2 160.1 14.6L170.4 107.4L388.8 325.8C392.6 329.6 398.8 329.6 402.6 325.8zM564.6 348.7L515.8000000000001 397.5C500.6000000000001 412.7 475.9000000000001 412.7 460.6000000000001 397.5L425.2000000000001 362.1C421.4000000000001 358.3 421.4000000000001 352.1 425.2000000000001 348.3L515.4000000000001 258.1C519.2 254.3 525.4000000000001 254.3 529.2 258.1L564.6 293.5C579.8000000000001 308.8 579.8000000000001 333.5 564.6 348.7zM384 62.8V-39H64V281H293.8C297 281 300 282.3 302.3 284.5L342.3 324.5C349.9000000000001 332.1 344.5 345 333.8 345H48C21.5 345 0 323.5 0 297V-55C0 -81.5 21.5 -103 48 -103H400C426.5 -103 448 -81.5 448 -55V102.8C448 113.5 435.1 118.8 427.5 111.3L387.5 71.3C385.3 69 384 66 384 62.8z" />
    <glyph glyph-name="ellipsis-h"
      unicode="&#xF122;"
      horiz-adv-x="512" d=" M328 153C328 113.2 295.8 81 256 81S184 113.2 184 153S216.2 225 256 225S328 192.8 328 153zM432 225C392.2 225 360 192.8 360 153S392.2 81 432 81S504 113.2 504 153S471.8 225 432 225zM80 225C40.2 225 8 192.8 8 153S40.2 81 80 81S152 113.2 152 153S119.8 225 80 225z" />
    <glyph glyph-name="envelope"
      unicode="&#xF123;"
      horiz-adv-x="512" d=" M502.3 218.2C506.2 221.3 512 218.4 512 213.5V9C512 -17.5 490.5 -39 464 -39H48C21.5 -39 0 -17.5 0 9V213.4C0 218.4 5.7 221.2 9.7 218.1C32.1 200.7 61.8 178.6 163.8 104.5C184.9 89.1 220.5 56.7 256 56.9C291.7 56.6 328 89.7 348.3 104.5C450.3 178.6 479.9 200.8 502.3 218.2zM256 89C279.2 88.6 312.6 118.2 329.4 130.4C462.1 226.7 472.2 235.1 502.8 259.1C508.6 263.6 511.9999999999999 270.6 511.9999999999999 278V297C511.9999999999999 323.5 490.4999999999999 345 463.9999999999999 345H48C21.5 345 0 323.5 0 297V278C0 270.6 3.4 263.7 9.2 259.1C39.8 235.2 49.9 226.7 182.6 130.4C199.4 118.2 232.8 88.6 256 89z" />
    <glyph glyph-name="exchange-alt"
      unicode="&#xF124;"
      horiz-adv-x="512" d=" M0 241V257C0 270.255 10.745 281 24 281H384V329C384 350.367 409.899 361.0420000000001 424.971 345.971L504.971 265.971C514.343 256.598 514.343 241.402 504.971 232.03L424.971 152.03C409.956 137.018 384 147.544 384 169V217H24C10.745 217 0 227.745 0 241zM488 89H128V137C128 158.314 102.138 169.08 87.029 153.971L7.029 73.971C-2.343 64.598 -2.343 49.402 7.029 40.03L87.029 -39.97C102.057 -54.997 128 -44.437 128 -23V25H488C501.255 25 512 35.745 512 49V65C512 78.255 501.255 89 488 89z" />
    <glyph glyph-name="exchange"
      unicode="&#xF125;"
      horiz-adv-x="512" d=" M0 241V257C0 270.255 10.745 281 24 281H405.9700000000001L375.5030000000001 308.728C365.6880000000001 318.017 365.4730000000001 333.574 375.0290000000001 343.13L385.8690000000001 353.9700000000001C395.242 363.343 410.437 363.343 419.8100000000001 353.9700000000001L502.6270000000001 271.627C515.124 259.13 515.124 238.869 502.6270000000001 226.372L419.8100000000001 144.029C410.4370000000001 134.656 395.2410000000001 134.656 385.8690000000001 144.029L375.0290000000001 154.869C365.4730000000001 164.425 365.6880000000001 179.983 375.5030000000001 189.271L405.9700000000001 217H24C10.745 217 0 227.745 0 241zM488 89H106.03L136.497 116.728C146.312 126.017 146.527 141.574 136.971 151.13L126.131 161.97C116.758 171.343 101.563 171.343 92.19 161.97L9.373 79.627C-3.124 67.13 -3.124 46.869 9.373 34.372L92.19 -47.971C101.563 -57.344 116.759 -57.344 126.131 -47.971L136.971 -37.131C146.527 -27.575 146.312 -12.018 136.497 -2.729L106.03 25H488C501.255 25 512 35.745 512 49V65C512 78.255 501.255 89 488 89z" />
    <glyph glyph-name="exclamation-circle"
      unicode="&#xF126;"
      horiz-adv-x="512" d=" M504 153C504 16.003 392.957 -95 256 -95S8 16.003 8 153C8 289.9170000000001 119.043 401 256 401S504 289.9170000000001 504 153zM256 103C230.595 103 210 82.405 210 57S230.595 11 256 11S302 31.595 302 57S281.405 103 256 103zM212.327 268.346L219.745 132.346C220.092 125.982 225.354 121 231.727 121H280.273C286.646 121 291.908 125.982 292.255 132.346L299.673 268.346C300.048 275.2200000000001 294.575 281 287.6910000000001 281H224.308C217.424 281 211.952 275.2200000000001 212.327 268.346z" />
    <glyph glyph-name="exclamation-triangle"
      unicode="&#xF127;"
      horiz-adv-x="576" d=" M569.517 -31.013C587.975 -63.007 564.806 -103 527.94 -103H48.054C11.117 -103 -11.945 -62.945 6.477 -31.013L246.423 385.015C264.89 417.024 311.1430000000001 416.966 329.577 385.015L569.517 -31.013zM288 55C262.5950000000001 55 242 34.405 242 9S262.5950000000001 -37 288 -37S334 -16.405 334 9S313.405 55 288 55zM244.327 220.346L251.745 84.346C252.092 77.982 257.354 73 263.727 73H312.273C318.646 73 323.908 77.982 324.255 84.346L331.673 220.346C332.048 227.22 326.575 233 319.6910000000001 233H256.3080000000001C249.4240000000001 233 243.9520000000001 227.22 244.3270000000001 220.346z" />
    <glyph glyph-name="exclamation"
      unicode="&#xF128;"
      horiz-adv-x="192" d=" M176 -23C176 -67.112 140.112 -103 96 -103S16 -67.112 16 -23S51.888 57 96 57S176 21.112 176 -23zM25.26 383.801L38.86 111.801C39.499 99.028 50.041 89 62.83 89H129.17C141.959 89 152.501 99.028 153.14 111.801L166.74 383.801C167.425 397.51 156.496 409 142.77 409H49.23C35.504 409 24.575 397.51 25.26 383.801z" />
    <glyph glyph-name="external-link"
      unicode="&#xF129;"
      horiz-adv-x="512" d=" M432 89H400A16 16 0 0 1 384 73V-39H64V281H208A16 16 0 0 1 224 297V329A16 16 0 0 1 208 345H48A48 48 0 0 1 0 297V-55A48 48 0 0 1 48 -103H400A48 48 0 0 1 448 -55V73A16 16 0 0 1 432 89zM474.67 409H316A28 28 0 0 1 288 381V362.29A28 28 0 0 1 316.79 335.1L384 337L135.06 89.91L135 89.85A24 24 0 0 1 135 55.91L158.94 32.06L159 32A24 24 0 0 1 192.91 32.09L440 281L438.12 213.78V213A28 28 0 0 1 466.12 185H484A28 28 0 0 1 512 213V371.67H512A37.33 37.33 0 0 1 474.67 409z" />
    <glyph glyph-name="eye-slash"
      unicode="&#xF12A;"
      horiz-adv-x="640" d=" M320 9C244.15 9 182.75 67.71 177.1 142.11L72.2 223.18C58.41 205.88 45.72 187.59 35.48 167.59A32.35 32.35 0 0 1 35.48 138.4C89.71 32.59 197.07 -39 320 -39C346.9100000000001 -39 372.87 -35 397.89 -28.54L346 11.61A144.13 144.13 0 0 0 320 9zM633.8199999999999 -49.1L523.27 36.34A331.25 331.25 0 0 1 604.52 138.41A32.35 32.35 0 0 1 604.52 167.6C550.29 273.41 442.93 345 320 345A308.15000000000003 308.15000000000003 0 0 1 172.68 307.3L45.46 405.63A16 16 0 0 1 23 402.82L3.37 377.55A16 16 0 0 1 6.18 355.1L594.54 -99.63A16 16 0 0 1 617 -96.82L636.64 -71.55A16 16 0 0 1 633.8199999999999 -49.1zM450.0999999999999 92.9L410.7999999999999 123.28A94.75 94.75 0 0 1 416 153A94.76 94.76 0 0 1 294.69 245.21A47.650000000000006 47.650000000000006 0 0 0 304 217A46.64 46.64 0 0 0 302.46 207L228.85 263.89A142.31 142.31 0 0 0 320 297A143.92 143.92 0 0 0 464 153C464 131.37 458.71 111.21 450.1 92.89z" />
    <glyph glyph-name="file-alt"
      unicode="&#xF12B;"
      horiz-adv-x="384" d=" M224 273V409H24C10.7 409 0 398.3 0 385V-79C0 -92.3 10.7 -103 24 -103H360C373.3 -103 384 -92.3 384 -79V249H248C234.8 249 224 259.8 224 273zM288 37C288 30.4 282.6 25 276 25H108C101.4 25 96 30.4 96 37V45C96 51.6 101.4 57 108 57H276C282.6 57 288 51.6 288 45V37zM288 101C288 94.4 282.6 89 276 89H108C101.4 89 96 94.4 96 101V109C96 115.6 101.4 121 108 121H276C282.6 121 288 115.6 288 109V101zM288 173V165C288 158.4 282.6 153 276 153H108C101.4 153 96 158.4 96 165V173C96 179.6 101.4 185 108 185H276C282.6 185 288 179.6 288 173zM384 287.1V281H256V409H262.1C268.5 409 274.6 406.5 279.1 402L377 304C381.5 299.5 384 293.4 384 287.1z" />
    <glyph glyph-name="file-archive"
      unicode="&#xF12C;"
      horiz-adv-x="384" d=" M377 304L279.1 402C274.6 406.5 268.5 409 262.1 409H256V281H384V287.1C384 293.4 381.5 299.5 377 304zM128.4 73C110.5 73 96 60.9 96 46C96 31 110.6 19 128.5 19S160.9 31.1 160.9 46S146.3 73 128.4 73zM224 273V409H160.4V377H128.4V409H24C10.7 409 0 398.3 0 385V-79C0 -92.3 10.7 -103 24 -103H360C373.3 -103 384 -92.3 384 -79V249H248C234.8 249 224 259.8 224 273zM95.9 377H127.9V345H95.9zM128.2 -7C95 -7 70.2 23.4 76.8 55.9L96.4 153V185H128.4V217H96.4V249H128.4V281H96.4V313H128.4V345H160.4V313H128.4V281H160.4V249H128.4V217H160.4V185H128.4V153H150.5C156.2 153 161.2 148.9 162.3 143.3L179.6 55.6C186 23.2 161.2 -7 128.2 -7z" />
    <glyph glyph-name="file-check"
      unicode="&#xF12D;"
      horiz-adv-x="384" d=" M384 287.059V281H256V409H262.0590000000001C268.4240000000001 409 274.5290000000001 406.471 279.0300000000001 401.971L376.971 304.03A24.005 24.005 0 0 0 384 287.059zM248 249H384V-79C384 -92.255 373.255 -103 360 -103H24C10.745 -103 0 -92.255 0 -79V385C0 398.255 10.745 409 24 409H224V273C224 259.8 234.8 249 248 249zM313.296 139.268L285.127 167.666C280.4600000000001 172.3710000000001 272.862 172.402 268.1570000000001 167.734L162.12 62.55L116.14 108.902C111.473 113.607 103.874 113.638 99.169 108.97L70.772 80.8C66.067 76.133 66.036 68.535 70.704 63.83L153.305 -19.439C157.972 -24.1439999999999 165.57 -24.175 170.275 -19.5069999999999L313.228 122.2980000000001C317.933 126.965 317.964 134.5630000000001 313.296 139.268z" />
    <glyph glyph-name="file-image"
      unicode="&#xF12E;"
      horiz-adv-x="384" d=" M384 287.059V281H256V409H262.0590000000001A24 24 0 0 0 279.029 401.971L376.9700000000001 304.03A24.002000000000002 24.002000000000002 0 0 0 384 287.059zM248 249C234.8 249 224 259.8 224 273V409H24C10.745 409 0 398.255 0 385V-79C0 -92.255 10.745 -103 24 -103H360C373.255 -103 384 -92.255 384 -79V249H248zM112.545 233C139.055 233 160.545 211.51 160.545 185S139.055 137 112.545 137S64.545 158.49 64.545 185S86.036 233 112.545 233zM320.545 -7H64.545L65.03 41.485L104.545 81C109.231 85.686 116.344 85.201 121.03 80.515L160.545 41L264.06 144.515C268.746 149.201 276.344 149.201 281.031 144.515L320.545 105V-7z" />
    <glyph glyph-name="file-invoice-dollar"
      unicode="&#xF12F;"
      horiz-adv-x="384" d=" M377 304L279.1 402C274.6 406.5 268.5 409 262.1 409H256V281H384V287.1C384 293.4 381.5 299.5 377 304zM224 273V409H24C10.7 409 0 398.3 0 385V-79C0 -92.3 10.7 -103 24 -103H360C373.3 -103 384 -92.3 384 -79V249H248C234.8 249 224 259.8 224 273zM64 337C64 341.42 67.58 345 72 345H152C156.42 345 160 341.42 160 337V321C160 316.58 156.42 313 152 313H72C67.58 313 64 316.58 64 321V337zM64 257V273C64 277.42 67.58 281 72 281H152C156.42 281 160 277.42 160 273V257C160 252.58 156.42 249 152 249H72C67.58 249 64 252.58 64 257zM208 -6.88V-31C208 -35.42 204.42 -39 200 -39H184C179.58 -39 176 -35.42 176 -31V-6.71C164.71 -6.13 153.73 -2.19 144.63 4.64C140.73 7.5700000000001 140.53 13.41 144.06 16.78L155.81 27.99C158.58 30.63 162.7 30.75 165.94 28.72C169.81 26.3 174.2 25 178.76 25H206.87C213.37 25 218.67 30.92 218.67 38.19C218.67 44.14 215.06 49.38 209.9 50.92L164.9 64.42C146.31 70 133.32 87.84 133.32 107.81C133.32 132.33 152.37 152.25 175.99 152.88V177C175.99 181.42 179.57 185 183.99 185H199.99C204.41 185 207.99 181.42 207.99 177V152.71C219.28 152.13 230.26 148.2 239.36 141.36C243.26 138.43 243.46 132.59 239.93 129.22L228.18 118.01C225.41 115.37 221.29 115.25 218.05 117.28C214.18 119.71 209.79 121 205.23 121H177.12C170.62 121 165.32 115.08 165.32 107.81C165.32 101.86 168.93 96.62 174.09 95.08L219.09 81.58C237.68 76 250.67 58.16 250.67 38.19C250.67 13.66 231.62 -6.25 208 -6.88z" />
    <glyph glyph-name="file-music"
      unicode="&#xF130;"
      horiz-adv-x="384" d=" M224 273V409H24A23.94 23.94 0 0 1 0 385V-79A23.94 23.94 0 0 1 24 -103H360A23.94 23.94 0 0 1 384 -79V249H248A24.08 24.08 0 0 0 224 273zM288 185V25C288 7.33 266.5 -7 240 -7S192 7.33 192 25S213.5 57 240 57A69.89 69.89 0 0 0 256 55V131.36L160 93.84V-7C160 -24.67 138.5 -39 112 -39S64 -24.67 64 -7S85.5 25 112 25A69.89 69.89 0 0 0 128 23V137.75A16 16 0 0 0 139.19 153L267.19 200.25A16 16 0 0 0 288 185zM377 304L279.09 402A24 24 0 0 1 262.09 409H256V281H384V287.0900000000001A23.91 23.91 0 0 1 377 304z" />
    <glyph glyph-name="file-upload"
      unicode="&#xF131;"
      horiz-adv-x="384" d=" M224 273V409H24C10.7 409 0 398.3 0 385V-79C0 -92.3 10.7 -103 24 -103H360C373.3 -103 384 -92.3 384 -79V249H248C234.8 249 224 259.8 224 273zM289.18 56.99H224V-23.01C224 -31.85 216.84 -39.01 208 -39.01H176C167.16 -39.01 160 -31.85 160 -23.01V56.99H94.82C80.54 56.99 73.41 74.28 83.55 84.35L179.97 180.05C186.62 186.66 197.36 186.66 204.01 180.05L300.43 84.35C310.58 74.28 303.46 56.99 289.18 56.99zM377 304L279.1 402C274.6 406.5 268.5 409 262.1 409H256V281H384V287.1C384 293.4 381.5 299.5 377 304z" />
    <glyph glyph-name="file-word"
      unicode="&#xF132;"
      horiz-adv-x="384" d=" M224 273V409H24C10.7 409 0 398.3 0 385V-79C0 -92.3 10.7 -103 24 -103H360C373.3 -103 384 -92.3 384 -79V249H248C234.8 249 224 259.8 224 273zM281.1 153H305C312.7 153 318.4 145.9 316.7 138.3L278.7 -29.7C277.5 -35.2 272.6 -39 267 -39H229C223.5 -39 218.7 -35.2 217.4 -29.9C191.6 73.6 196.6 51.3 191.8 80.6H191.3C190.2 66.3 188.9 63.2000000000001 165.7 -29.9C164.4 -35.2 159.6 -39 154.1 -39H117C111.4 -39 106.5 -35.1 105.3 -29.6L67.5 138.4C65.8 145.9 71.5 153 79.2 153H103.7C109.4 153 114.4 149 115.5 143.3C131.1 65.3 135.6 33.8 136.5 21.1C138.1 31.3 143.8 53.8 165.9 143.8C167.2 149.2 172 152.9 177.6 152.9H206.7C212.3 152.9 217.1 149.1 218.4 143.7000000000001C242.4 43.3000000000001 247.2 19.7 248 14.3000000000001C247.8 25.5000000000001 245.4 32.1000000000001 269.6 143.5000000000001C270.6 149.1000000000001 275.5 153.0000000000001 281.1 153.0000000000001zM384 287.1V281H256V409H262.1C268.5 409 274.6 406.5 279.1 402L377 304C381.5 299.5 384 293.4 384 287.1z" />
    <glyph glyph-name="file"
      unicode="&#xF133;"
      horiz-adv-x="384" d=" M224 273V409H24C10.7 409 0 398.3 0 385V-79C0 -92.3 10.7 -103 24 -103H360C373.3 -103 384 -92.3 384 -79V249H248C234.8 249 224 259.8 224 273zM384 287.1V281H256V409H262.1C268.5 409 274.6 406.5 279.1 402L377 304C381.5 299.5 384 293.4 384 287.1z" />
    <glyph glyph-name="film"
      unicode="&#xF134;"
      horiz-adv-x="512" d=" M488 345H480V325C480 318.4 474.6 313 468 313H428C421.4 313 416 318.4 416 325V345H96V325C96 318.4 90.6 313 84 313H44C37.4 313 32 318.4 32 325V345H24C10.7 345 0 334.3 0 321V-15C0 -28.3 10.7 -39 24 -39H32V-19C32 -12.4 37.4 -7 44 -7H84C90.6 -7 96 -12.4 96 -19V-39H416V-19C416 -12.4 421.4 -7 428 -7H468C474.6 -7 480 -12.4 480 -19V-39H488C501.3 -39 512 -28.3 512 -15V321C512 334.3 501.3 345 488 345zM96 37C96 30.4 90.6 25 84 25H44C37.4 25 32 30.4 32 37V77C32 83.6 37.4 89 44 89H84C90.6 89 96 83.6 96 77V37zM96 133C96 126.4 90.6 121 84 121H44C37.4 121 32 126.4 32 133V173C32 179.6 37.4 185 44 185H84C90.6 185 96 179.6 96 173V133zM96 229C96 222.4 90.6 217 84 217H44C37.4 217 32 222.4 32 229V269C32 275.6 37.4 281 44 281H84C90.6 281 96 275.6 96 269V229zM368 21C368 14.4 362.6 9 356 9H156C149.4 9 144 14.4 144 21V117C144 123.6 149.4 129 156 129H356C362.6 129 368 123.6 368 117V21zM368 189C368 182.4 362.6 177 356 177H156C149.4 177 144 182.4 144 189V285C144 291.6 149.4 297 156 297H356C362.6 297 368 291.6 368 285V189zM480 37C480 30.4 474.6 25 468 25H428C421.4 25 416 30.4 416 37V77C416 83.6 421.4 89 428 89H468C474.6 89 480 83.6 480 77V37zM480 133C480 126.4 474.6 121 468 121H428C421.4 121 416 126.4 416 133V173C416 179.6 421.4 185 428 185H468C474.6 185 480 179.6 480 173V133zM480 229C480 222.4 474.6 217 468 217H428C421.4 217 416 222.4 416 229V269C416 275.6 421.4 281 428 281H468C474.6 281 480 275.6 480 269V229z" />
    <glyph glyph-name="folder-minus"
      unicode="&#xF135;"
      horiz-adv-x="512" d=" M464 281H272L208 345H48C21.49 345 0 323.51 0 297V9C0 -17.51 21.49 -39 48 -39H464C490.51 -39 512 -17.51 512 9V233C512 259.51 490.51 281 464 281zM368 113C368 104.16 360.84 97 352 97H160C151.16 97 144 104.16 144 113V129C144 137.84 151.16 145 160 145H352C360.84 145 368 137.84 368 129V113z" />
    <glyph glyph-name="folder-open"
      unicode="&#xF136;"
      horiz-adv-x="576" d=" M572.694 116.907L500.27 -7.248A63.99699999999999 63.99699999999999 0 0 0 444.989 -39H45.025C26.502 -39 14.961 -18.907 24.294 -2.907L96.718 121.2480000000001A64 64 0 0 0 152 153H551.9639999999999C570.487 153 582.0279999999999 132.907 572.694 116.907zM152 185H480V233C480 259.51 458.51 281 432 281H272L208 345H48C21.49 345 0 323.51 0 297V18.954L69.077 137.372C86.214 166.75 117.989 185 152 185z" />
    <glyph glyph-name="folder-plus"
      unicode="&#xF137;"
      horiz-adv-x="512" d=" M464 281H272L208 345H48C21.49 345 0 323.51 0 297V9C0 -17.51 21.49 -39 48 -39H464C490.51 -39 512 -17.51 512 9V233C512 259.51 490.51 281 464 281zM368 113C368 104.16 360.84 97 352 97H280V25C280 16.16 272.84 9 264 9H248C239.16 9 232 16.16 232 25V97H160C151.16 97 144 104.16 144 113V129C144 137.84 151.16 145 160 145H232V217C232 225.84 239.16 233 248 233H264C272.84 233 280 225.84 280 217V145H352C360.84 145 368 137.84 368 129V113z" />
    <glyph glyph-name="folder"
      unicode="&#xF138;"
      horiz-adv-x="512" d=" M464 281H272L208 345H48C21.49 345 0 323.51 0 297V9C0 -17.51 21.49 -39 48 -39H464C490.51 -39 512 -17.51 512 9V233C512 259.51 490.51 281 464 281z" />
    <glyph glyph-name="folders"
      unicode="&#xF139;"
      horiz-adv-x="640" d=" M96 73V281H48C21.49 281 0 259.51 0 233V-55C0 -81.51 21.49 -103 48 -103H464C490.51 -103 512 -81.51 512 -55V-7H176C131.89 -7 96 28.89 96 73zM592 345H400L336 409H176C149.49 409 128 387.51 128 361V73C128 46.49 149.49 25 176 25H592C618.51 25 640 46.49 640 73V297C640 323.51 618.51 345 592 345z" />
    <glyph glyph-name="font"
      unicode="&#xF13A;"
      horiz-adv-x="448" d=" M432 -23H398.68L263.68 366.24A16 16 0 0 1 248.55 377H199.45A16 16 0 0 1 184.33 366.24L49.32 -23H16A16 16 0 0 1 0 -39V-55A16 16 0 0 1 16 -71H144A16 16 0 0 1 160 -55V-39A16 16 0 0 1 144 -23H108.56L141.87 73H306.13L339.44 -23H304A16 16 0 0 1 288 -39V-55A16 16 0 0 1 304 -71H432A16 16 0 0 1 448 -55V-39A16 16 0 0 1 432 -23zM158.53 121L224 309.69L289.4700000000001 121z" />
    <glyph glyph-name="globe"
      unicode="&#xF13B;"
      horiz-adv-x="496" d=" M248 401C111 401 0 290 0 153S111 -95 248 -95S496 16 496 153S385 401 248 401zM427.3 241H360.1C353.4000000000001 277.5 342.6 309.8 328.9000000000001 335.7C371.8 316.7 406.6 283 427.3000000000001 241zM248 353C266.6 353 296.6 311.8 311.2 241H184.8C199.4 311.8 229.4 353 248 353zM48 153C48 166.7 49.4 180.1 52 193H129.7C128.7 179.9 128 166.7 128 153S128.7 126.1 129.7 113H52C49.4 125.9 48 139.3 48 153zM68.7 65H135.9C142.6 28.5 153.4 -3.8 167.1 -29.7C124.2 -10.7 89.4 23 68.7 65zM135.9 241H68.7C89.4 283 124.2 316.7 167.1 335.7C153.4 309.8 142.6 277.5 135.9 241zM248 -47C229.4 -47 199.4 -5.8 184.8 65H311.3C296.6 -5.8 266.6 -47 248 -47zM318.1 113H177.9C176.8 125.8 176 139 176 153S176.8 180.2 177.9 193H318.2000000000001C319.3000000000001 180.2 320.1 167 320.1 153S319.2000000000001 125.8 318.1 113zM328.9000000000001 -29.7C342.6 -3.8 353.3 28.5 360.1 65H427.3C406.6 23 371.8 -10.7 328.9 -29.7zM366.3 113C367.3 126.1 368 139.3 368 153S367.3 179.9 366.3 193H444C446.6 180.1 448 166.7 448 153S446.6 125.9 444 113H366.3z" />
    <glyph glyph-name="hashtag"
      unicode="&#xF13C;"
      horiz-adv-x="448" d=" M440.667 226.891L447.81 266.891C449.123 274.246 443.468 281 435.997 281H361.187L375.81 362.891C377.123 370.246 371.468 377 363.997 377H323.365A12 12 0 0 1 311.552 367.109L296.175 281H197.54L212.163 362.891C213.477 370.246 207.822 377 200.35 377H159.718A12 12 0 0 1 147.905 367.109L132.528 281H53.432A12 12 0 0 1 41.619 271.1090000000001L34.476 231.109C33.163 223.754 38.818 217 46.289 217H121.099L98.242 89H19.146A12 12 0 0 1 7.333 79.109L0.19 39.109C-1.123 31.754 4.532 25 12.003 25H86.813L72.19 -56.891C70.877 -64.246 76.532 -71 84.003 -71H124.635A12 12 0 0 1 136.448 -61.109L151.826 25H250.46L235.837 -56.891C234.523 -64.246 240.178 -71 247.65 -71H288.282A12 12 0 0 1 300.095 -61.109L315.472 25H394.568A12 12 0 0 1 406.381 34.891L413.524 74.891C414.837 82.246 409.182 89 401.711 89H326.901L349.7579999999999 217H428.854A12 12 0 0 1 440.6669999999999 226.891zM261.889 89H163.255L186.112 217H284.746L261.889 89z" />
    <glyph glyph-name="history"
      unicode="&#xF13D;"
      horiz-adv-x="512" d=" M504 153.469C504.253 16.829 392.82 -94.903 256.18 -94.999C197.165 -95.041 142.957 -74.469 100.358 -40.088C89.281 -31.148 88.453 -14.547 98.519 -4.481L109.786 6.786C118.395 15.395 132.139 16.337 141.677 8.77C173.062 -16.135 212.781 -31 256 -31C357.705 -31 440 51.311 440 153C440 254.705 357.689 337 256 337C207.186 337 162.851 318.031 129.932 287.068L180.686 236.314C190.766 226.234 183.627 209 169.373 209H24C15.163 209 8 216.163 8 225V370.373C8 384.627 25.234 391.766 35.314 381.687L84.686 332.315C129.209 374.864 189.552 401 256 401C392.81 401 503.747 290.2200000000001 504 153.469zM323.088 74.685L332.911 87.315C341.0489999999999 97.778 339.164 112.857 328.701 120.994L288 152.651V257C288 270.255 277.255 281 264 281H248C234.745 281 224 270.255 224 257V121.349L289.409 70.475C299.872 62.338 314.95 64.222 323.088 74.685z" />
    <glyph glyph-name="home"
      unicode="&#xF13E;"
      horiz-adv-x="576" d=" M280.37 260.74L96 108.89V-55A16 16 0 0 1 112 -71L224.06 -70.71A16 16 0 0 1 239.98 -54.71V41A16 16 0 0 0 255.98 57H319.98A16 16 0 0 0 335.98 41V-54.64A16 16 0 0 1 351.98 -70.69L464 -71A16 16 0 0 1 480 -55V109L295.67 260.74A12.19 12.19 0 0 1 280.37 260.74zM571.6 157.53L488 226.44V364.95A12 12 0 0 1 476 376.95H420A12 12 0 0 1 408 364.95V292.3400000000001L318.4700000000001 366A48 48 0 0 1 257.4700000000001 366L4.34 157.53A12 12 0 0 1 2.74 140.63L28.24 109.63A12 12 0 0 1 45.15 108L280.37 301.74A12.19 12.19 0 0 0 295.67 301.74L530.9 108A12 12 0 0 1 547.8 109.6L573.3 140.6A12 12 0 0 1 571.5999999999999 157.53z" />
    <glyph glyph-name="info-circle"
      unicode="&#xF13F;"
      horiz-adv-x="512" d=" M256 401C119.043 401 8 289.9170000000001 8 153C8 16.003 119.043 -95 256 -95S504 16.003 504 153C504 289.9170000000001 392.957 401 256 401zM256 291C279.1960000000001 291 298 272.1960000000001 298 249S279.1960000000001 207 256 207S214 225.804 214 249S232.804 291 256 291zM312 37C312 30.373 306.627 25 300 25H212C205.373 25 200 30.373 200 37V61C200 67.627 205.373 73 212 73H224V137H212C205.373 137 200 142.373 200 149V173C200 179.627 205.373 185 212 185H276C282.627 185 288 179.627 288 173V73H300C306.627 73 312 67.627 312 61V37z" />
    <glyph glyph-name="italic"
      unicode="&#xF140;"
      horiz-adv-x="320" d=" M320 361V345A16 16 0 0 0 304 329H237L149 -23H208A16 16 0 0 0 224 -39V-55A16 16 0 0 0 208 -71H16A16 16 0 0 0 0 -55V-39A16 16 0 0 0 16 -23H83L171 329H112A16 16 0 0 0 96 345V361A16 16 0 0 0 112 377H304A16 16 0 0 0 320 361z" />
    <glyph glyph-name="key"
      unicode="&#xF141;"
      horiz-adv-x="512" d=" M512 232.999C512 135.797 433.202 57 336 57C324.78 57 313.81 58.062 303.173 60.069L279.161 33.055A23.999000000000002 23.999000000000002 0 0 0 261.223 25H224V-15C224 -28.255 213.255 -39 200 -39H160V-79C160 -92.255 149.255 -103 136 -103H24C10.745 -103 0 -92.255 0 -79V-0.941C0 5.424 2.529 11.529 7.029 16.03L168.831 177.832C163.108 195.186 160 213.729 160 233C160 330.202 238.797 408.999 335.999 409C433.488 409.001 512 330.4890000000001 512 232.999zM336 281C336 254.49 357.49 233 384 233S432 254.49 432 281S410.51 329 384 329S336 307.51 336 281z" />
    <glyph glyph-name="leaf"
      unicode="&#xF142;"
      horiz-adv-x="576" d=" M546.2 399.3C540.6 411.8 524.6 412.3 517.9000000000001 400.5C486.9 346.6 431.4 313 368 313H288C182 313 96 227 96 121C96 114 96.8 107.3 97.5 100.5C161.3 146.2 253.4 185 384 185C392.8 185 400 177.8 400 169S392.8 153 384 153C132.6 153 26 -1.1 2.4 -59C-4.2 -75.3 3.6 -93.9 19.9 -100.6C36.3 -107.4 54.9 -99.5 61.7 -83.3C63.2 -79.7 82.6 -35.4 133.6 7.3C166 -36.6 227.6 -78.5000000000001 308.5 -69.9C465.5 -58.5 576 82.3 576 254.7C576 304.9 565.2 356.9 546.2 399.3z" />
    <glyph glyph-name="level-down-alt"
      unicode="&#xF143;"
      horiz-adv-x="320" d=" M313.553 16.669L209.587 -95.334C200.102 -105.548 183.911 -105.563 174.413 -95.334L70.438 16.669C56.232 31.969 67.062 57 88.025 57H152V329H68.024A11.996 11.996 0 0 0 59.539 332.515L3.539 388.515C-4.021 396.074 1.333 409 12.024 409H208C221.255 409 232 398.255 232 385V57H295.966C316.844 57 327.817 32.031 313.553 16.669z" />
    <glyph glyph-name="level-up-alt"
      unicode="&#xF144;"
      horiz-adv-x="320" d=" M313.553 289.331L209.587 401.334C200.102 411.548 183.911 411.563 174.413 401.334L70.438 289.331C56.232 274.031 67.062 249 88.025 249H152V-23H68.024A11.996 11.996 0 0 1 59.539 -26.515L3.539 -82.515C-4.021 -90.074 1.333 -103 12.024 -103H208C221.255 -103 232 -92.255 232 -79V249H295.966C316.844 249 327.817 273.969 313.553 289.331z" />
    <glyph glyph-name="link"
      unicode="&#xF145;"
      horiz-adv-x="512" d=" M326.612 223.609C386.3590000000001 163.8 385.5390000000001 67.911 326.9720000000001 9.019C326.862 8.899 326.7320000000001 8.769 326.612 8.649L259.4120000000001 -58.551C200.142 -117.821 103.713 -117.813 44.452 -58.551C-14.818 0.709 -14.818 97.149 44.452 156.409L81.558 193.515C91.398 203.355 108.344 196.815 108.852 182.909C109.5 165.187 112.678 147.382 118.542 130.1880000000001C120.528 124.3660000000001 119.109 117.9260000000001 114.759 113.576L101.672 100.489C73.646 72.463 72.767 26.8290000000001 100.517 -1.4709999999999C128.541 -30.05 174.603 -30.22 202.842 -1.9809999999999L270.0420000000001 65.2090000000001C298.233 93.4 298.115 138.9660000000001 270.0420000000001 167.0390000000001C266.341 170.733 262.6130000000001 173.603 259.701 175.608A16.037 16.037 0 0 0 252.754 188.214C252.3580000000001 198.781 256.1020000000001 209.67 264.452 218.0200000000001L285.506 239.0750000000001C291.027 244.5960000000001 299.688 245.2740000000001 306.09 240.8060000000001A152.482 152.482 0 0 0 326.612 223.609zM467.547 364.551C408.286 423.813 311.8570000000001 423.8210000000001 252.587 364.551L185.387 297.351C185.267 297.231 185.137 297.101 185.027 296.981C126.461 238.089 125.64 142.2 185.387 82.391A152.454 152.454 0 0 1 205.908 65.1949999999999C212.31 60.7269999999999 220.972 61.406 226.492 66.9259999999999L247.546 87.9809999999999C255.896 96.331 259.6400000000001 107.2199999999999 259.2440000000001 117.7869999999999A16.037 16.037 0 0 1 252.2970000000001 130.3929999999999C249.385 132.3979999999999 245.6570000000001 135.2679999999999 241.956 138.9619999999999C213.883 167.035 213.765 212.601 241.956 240.7919999999999L309.156 307.9819999999999C337.395 336.2209999999999 383.456 336.051 411.481 307.4719999999999C439.231 279.1719999999999 438.353 233.5379999999999 410.326 205.5119999999999L397.2390000000001 192.4249999999999C392.889 188.0749999999999 391.4700000000001 181.6349999999999 393.456 175.8129999999999C399.32 158.619 402.498 140.8139999999999 403.146 123.0919999999999C403.6550000000001 109.1859999999999 420.6 102.6459999999999 430.44 112.4859999999999L467.546 149.5919999999999C526.817 208.851 526.817 305.291 467.547 364.551z" />
    <glyph glyph-name="lock"
      unicode="&#xF146;"
      horiz-adv-x="448" d=" M400 185H376V257C376 340.8 307.8 409 224 409S72 340.8 72 257V185H48C21.5 185 0 163.5 0 137V-55C0 -81.5 21.5 -103 48 -103H400C426.5 -103 448 -81.5 448 -55V137C448 163.5 426.5 185 400 185zM296 185H152V257C152 296.7 184.3 329 224 329S296 296.7 296 257V185z" />
    <glyph glyph-name="magic"
      unicode="&#xF147;"
      horiz-adv-x="512" d=" M224 313L240 345L272 361L240 377L224 409L208 377L176 361L208 345L224 313zM80 249L106.66 302.33L160 329L106.66 355.67L80 409L53.34 355.67L0 329L53.34 302.33L80 249zM432 121L405.34 67.67L352 41L405.3400000000001 14.33L432 -39L458.66 14.33L512 41L458.66 67.67L432 121zM502.62 314.77L417.77 399.62C411.53 405.88 403.34 409 395.15 409C386.96 409 378.77 405.88 372.52 399.62L9.38 36.48C-3.12 23.98 -3.12 3.72 9.38 -8.77L94.23 -93.62C100.48 -99.87 108.67 -102.99 116.85 -102.99C125.04 -102.99 133.23 -99.87 139.48 -93.62L502.62 269.53C515.12 282.01 515.12 302.28 502.62 314.77zM359.45 205.54L308.54 256.45L395.14 343.05L446.05 292.14L359.45 205.54z" />
    <glyph glyph-name="minus-circle"
      unicode="&#xF148;"
      horiz-adv-x="512" d=" M256 401C119 401 8 290 8 153S119 -95 256 -95S504 16 504 153S393 401 256 401zM124 113C117.4 113 112 118.4 112 125V181C112 187.6 117.4 193 124 193H388C394.6 193 400 187.6 400 181V125C400 118.4 394.6 113 388 113H124z" />
    <glyph glyph-name="money-bill-alt"
      unicode="&#xF149;"
      horiz-adv-x="640" d=" M352 121H336V209C336 213.42 332.42 217 328 217H314.42C309.68 217 305.05 215.6 301.11 212.97L285.7800000000001 202.75A7.993999999999999 7.993999999999999 0 0 1 283.56 191.66L292.44 178.35A7.993999999999999 7.993999999999999 0 0 1 303.53 176.13L304 176.44V121H288C283.58 121 280 117.42 280 113V97C280 92.58 283.58 89 288 89H352C356.42 89 360 92.58 360 97V113C360 117.42 356.42 121 352 121zM608 345H32C14.33 345 0 330.67 0 313V-7C0 -24.67 14.33 -39 32 -39H608C625.67 -39 640 -24.67 640 -7V313C640 330.67 625.67 345 608 345zM48 9V73C83.35 73 112 44.35 112 9H48zM48 233V297H112C112 261.65 83.35 233 48 233zM320 41C266.98 41 224 91.15 224 153C224 214.86 266.98 265 320 265S416 214.86 416 153C416 91.13 373 41 320 41zM592 9H528C528 44.35 556.65 73 592 73V9zM592 233C556.65 233 528 261.65 528 297H592V233z" />
    <glyph glyph-name="music"
      unicode="&#xF14A;"
      horiz-adv-x="512" d=" M470.38 407.49L150.41 313A32 32 0 0 1 128 282.49V21.08A139 139 0 0 1 96 25C43 25 0 -3.66 0 -39S43 -103 96 -103S192 -74.34 192 -39V194.68L448 269.68V85.07A138.4 138.4 0 0 1 416 89C363 89 320 60.34 320 25S363 -39 416 -39S512 -10.35 512 25V377A32 32 0 0 1 470.38 407.49z" />
    <glyph glyph-name="pen"
      unicode="&#xF14B;"
      horiz-adv-x="512" d=" M290.74 315.76L418.76 187.74L140.77 -90.25L26.63 -102.85C11.35 -104.54 -1.56 -91.62 0.14 -76.34L12.84 37.88L290.74 315.76zM497.94 334.82L437.83 394.93C419.08 413.68 388.67 413.68 369.92 394.93L313.37 338.38L441.39 210.36L497.94 266.9100000000001C516.69 285.67 516.69 316.0700000000001 497.94 334.8200000000001z" />
    <glyph glyph-name="pencil"
      unicode="&#xF14C;"
      horiz-adv-x="512" d=" M491.609 335.375L437.748 389.214C411.37 415.593 368.6720000000001 415.597 342.288 389.215L24.91 73.911L0.329 -75.085C-2.346 -91.2999999999999 11.697 -105.346 27.916 -102.672L176.911 -78.09L492.237 239.288C518.567 265.6190000000001 518.818 308.1670000000001 491.609 335.375zM120.644 107L290.903 276.155L379.154 187.904L210 17.645V59H162V107H120.644zM82.132 -49.132L53.869 -20.869L66.009 52.718L84.409 71H126V23H174V-18.59L155.718 -36.991L82.132 -49.1320000000001zM461.117 270.401L461.066 270.35L461.015 270.2990000000001L412.985 221.9550000000001L324.9550000000001 309.985L373.2990000000001 358.0150000000001L373.3490000000001 358.0650000000001L373.3990000000001 358.115C382.5460000000001 367.261 397.3770000000001 367.374 406.6350000000001 358.1160000000001L460.489 304.2620000000001C470.367 294.3850000000001 470.4280000000001 279.713 461.117 270.4010000000001z" />
    <glyph glyph-name="plus-circle"
      unicode="&#xF14D;"
      horiz-adv-x="512" d=" M256 401C119 401 8 290 8 153S119 -95 256 -95S504 16 504 153S393 401 256 401zM400 125C400 118.4 394.6 113 388 113H296V21C296 14.4 290.6 9 284 9H228C221.4 9 216 14.4 216 21V113H124C117.4 113 112 118.4 112 125V181C112 187.6 117.4 193 124 193H216V285C216 291.6 221.4 297 228 297H284C290.6 297 296 291.6 296 285V193H388C394.6 193 400 187.6 400 181V125z" />
    <glyph glyph-name="plus"
      unicode="&#xF14E;"
      horiz-adv-x="448" d=" M416 201H272V345C272 362.67 257.67 377 240 377H208C190.33 377 176 362.67 176 345V201H32C14.33 201 0 186.67 0 169V137C0 119.33 14.33 105 32 105H176V-39C176 -56.67 190.33 -71 208 -71H240C257.67 -71 272 -56.67 272 -39V105H416C433.67 105 448 119.33 448 137V169C448 186.67 433.67 201 416 201z" />
    <glyph glyph-name="qrcode"
      unicode="&#xF14F;"
      horiz-adv-x="448" d=" M0 185H192V377H0V185zM64 313H128V249H64V313zM256 377V185H448V377H256zM384 249H320V313H384V249zM0 -71H192V121H0V-71zM64 57H128V-7H64V57zM416 121H448V-7H352V25H320V-71H256V121H352V89H416V121zM416 -39H448V-71H416V-39zM352 -39H384V-71H352V-39z" />
    <glyph glyph-name="question-circle"
      unicode="&#xF150;"
      horiz-adv-x="512" d=" M504 153C504 16.003 392.957 -95 256 -95S8 16.003 8 153C8 289.9170000000001 119.043 401 256 401S504 289.9170000000001 504 153zM262.655 319C208.158 319 173.4 296.043 146.106 255.242C142.57 249.956 143.753 242.827 148.821 238.984L183.52 212.674C188.725 208.727 196.141 209.666 200.185 214.796C218.049 237.454 230.298 250.593 257.488 250.593C277.9169999999999 250.593 303.1859999999999 237.445 303.1859999999999 217.635C303.1859999999999 202.659 290.8229999999999 194.968 270.652 183.659C247.128 170.472 216 154.059 216 113V109C216 102.373 221.373 97 228 97H284C290.627 97 296 102.373 296 109V110.333C296 138.795 379.1860000000001 139.98 379.1860000000001 217C379.1860000000001 275.0020000000001 319.021 319 262.6550000000001 319zM256 71C230.635 71 210 50.365 210 25C210 -0.364 230.635 -21 256 -21S302 -0.364 302 25C302 50.365 281.365 71 256 71z" />
    <glyph glyph-name="question"
      unicode="&#xF151;"
      horiz-adv-x="384" d=" M202.021 409C122.202 409 70.503 376.2970000000001 29.914 317.974C22.551 307.394 24.821 292.8880000000001 35.092 285.1L78.23 252.391C88.603 244.526 103.362 246.365 111.483 256.539C136.532 287.92 155.113 305.988 194.24 305.988C225.004 305.988 263.0560000000001 286.189 263.0560000000001 256.357C263.0560000000001 233.805 244.4390000000001 222.223 214.0630000000001 205.193C178.6400000000001 185.333 131.7640000000001 160.617 131.7640000000001 98.788V89C131.7640000000001 75.745 142.5090000000001 65 155.7640000000001 65H228.2350000000001C241.4900000000001 65 252.2350000000001 75.745 252.2350000000001 89V94.773C252.2350000000001 137.6330000000001 377.5030000000001 139.418 377.5030000000001 255.4000000000001C377.504 342.7440000000001 286.902 409 202.021 409zM192 35.541C153.804 35.541 122.729 4.466 122.729 -33.73C122.729 -71.925 153.804 -103 192 -103S261.271 -71.925 261.271 -33.729S230.1960000000001 35.541 192 35.541z" />
    <glyph glyph-name="r"
      unicode="&#xF152;"
      horiz-adv-x="640" d=" M537.6 182.4C541.7 193.1 544 204.8 544 217C544 270 501 313 448 313C428.3 313 409.9 307 394.7 296.8C367 344.8 315.3 377 256 377C167.6 377 96 305.4 96 217C96 214.3 96.1 211.6 96.2 208.9C40.2 189.2 0 135.8 0 73C0 -6.5 64.5 -71 144 -71H512C582.7 -71 640 -13.7 640 57C640 118.9 596 170.6 537.6 182.4zM393.4 121H328V9C328 0.2 320.8 -7 312 -7H264C255.2 -7 248 0.2 248 9V121H182.6C168.3 121 161.2 138.2 171.3 148.3L276.7 253.7C282.9 259.9 293.1 259.9 299.3 253.7L404.7000000000001 148.3C414.8000000000001 138.2 407.6 121 393.4000000000001 121z" />
    <glyph glyph-name="redo"
      unicode="&#xF153;"
      horiz-adv-x="512" d=" M500.33 409H452.92A12 12 0 0 1 440.92 396.43L444.92 313.67A247.42 247.42 0 0 1 256 401C119.34 401 7.9 289.4700000000001 8 152.81C8.1 15.93 119.1 -95 256 -95A247.09999999999997 247.09999999999997 0 0 1 422.18 -31.09A12 12 0 0 1 422.6600000000001 -13.66L388.6600000000001 20.34A12 12 0 0 1 372.2800000000001 20.89A176 176 0 1 0 402.1 251.2L300.5700000000001 256.07A12 12 0 0 1 288.0000000000001 244.07V196.66A12 12 0 0 1 300.0000000000001 184.66H500.33A12 12 0 0 1 512.33 196.66V397A12 12 0 0 1 500.33 409z" />
    <glyph glyph-name="repeat-alt"
      unicode="&#xF154;"
      horiz-adv-x="512" d=" M493.544 227.537C505.5 204.932 512.199 179.137 511.996 151.787C511.339 63.635 438.56 -7 350.404 -7H192V-54.495C192 -76.97 165.823 -86.763 151.029 -71.97L71.029 8.03C61.657 17.403 61.657 32.599 71.029 41.971L151.029 121.971C166.138 137.08 192 126.314 192 105V57H350.875C403.687 57 447.45 99.182 447.995 151.992C448.15 167.037 444.825 181.304 438.777 194.038C434.415 203.223 436.356 214.162 443.577 221.322C448.322 226.028 452.218 229.877 455.453 233.108C466.821 244.46 486.032 241.739 493.544 227.537zM64.005 154.008C64.55 206.818 108.313 249 161.125 249H320V201.495C320 179.121 346.121 169.183 360.971 184.03L440.971 264.03C450.343 273.403 450.343 288.599 440.971 297.971L360.971 377.971C346.014 392.923 320 382.7440000000001 320 360.455V313H161.596C73.44 313 0.661 242.365 0.005 154.212C-0.199 126.862 6.5 101.067 18.457 78.462C25.969 64.26 45.18 61.539 56.548 72.892C59.783 76.123 63.678 79.972 68.424 84.678C75.644 91.838 77.586 102.776 73.224 111.962C67.175 124.697 63.85 138.963 64.005 154.008z" />
    <glyph glyph-name="repeat"
      unicode="&#xF155;"
      horiz-adv-x="512" d=" M512 153C512 64.776 440.225 -7 352 -7H170.067L204.579 -39.419C214.454 -48.695 214.698 -64.302 205.118 -73.883L194.343 -84.658C184.97 -94.03 169.775 -94.03 160.402 -84.658L67.716 8.028C58.343 17.401 58.343 32.596 67.716 41.9690000000001L160.402 134.6550000000001C169.775 144.0280000000001 184.97 144.0280000000001 194.343 134.6550000000001L205.118 123.8800000000001C214.699 114.2990000000001 214.455 98.6930000000001 204.579 89.4160000000001L170.067 57H352C404.935 57 448 100.065 448 153C448 166.958 445.004 180.228 439.624 192.204C435.5630000000001 201.243 437.3400000000001 211.83 444.3470000000001 218.837L456.53 231.02C468.0290000000001 242.519 487.495 239.546 494.842 225.038C505.814 203.376 512 178.897 512 153zM72.376 113.796C66.996 125.772 64 139.042 64 153C64 205.935 107.065 249 160 249H341.933L307.421 216.581C297.546 207.305 297.302 191.698 306.882 182.117L317.657 171.342C327.03 161.97 342.225 161.97 351.598 171.342L444.284 264.028C453.657 273.401 453.657 288.596 444.284 297.9690000000001L351.598 390.6550000000001C342.225 400.028 327.03 400.028 317.657 390.6550000000001L306.882 379.88C297.301 370.299 297.545 354.693 307.421 345.416L341.933 313H160C71.775 313 0 241.224 0 153C0 127.103 6.186 102.624 17.157 80.961C24.504 66.453 43.97 63.48 55.469 74.979L67.652 87.162C74.66 94.17 76.438 104.757 72.376 113.796z" />
    <glyph glyph-name="reply"
      unicode="&#xF156;"
      horiz-adv-x="512" d=" M8.309 219.164L184.313 371.149C199.719 384.454 224 373.653 224 352.985V272.932C384.629 271.093 512 238.9000000000001 512 86.674C512 25.2329999999999 472.419 -35.635 428.6670000000001 -67.458C415.014 -77.389 395.5560000000001 -64.925 400.5900000000001 -48.827C445.9340000000001 96.185 379.0830000000001 134.683 224 136.915V49C224 28.3 199.7 17.547 184.3130000000001 30.836L8.3090000000001 182.836C-2.7619999999999 192.398 -2.7769999999999 209.589 8.3090000000001 219.164z" />
    <glyph glyph-name="rocket"
      unicode="&#xF157;"
      horiz-adv-x="512" d=" M505.05 389.9A15.890000000000002 15.890000000000002 0 0 1 492.85 402.1C460.65 409 435.46 409 410.36 409C307.1600000000001 409 245.26 353.8 199.07 281H94.87A48 48 0 0 1 52 254.51L2.58 155.71A24 24 0 0 1 24.07 121H127.84L105.37 98.53A32 32 0 0 1 105.37 53.28L156.27 2.37A32 32 0 0 1 201.53 2.37L224 24.84V-79A24 24 0 0 1 258.7 -100.49L357.4 -51.1A47.90999999999999 47.90999999999999 0 0 1 383.9 -8.2V96.21C456.49 142.51 511.9 204.61 511.9 307.3C512 332.5 512 357.7 505.05 389.9zM384 241A40 40 0 1 0 424 281A40 40 0 0 0 384 241z" />
    <glyph glyph-name="rss"
      unicode="&#xF158;"
      horiz-adv-x="448" d=" M128.081 -6.959C128.081 -42.328 99.409 -71 64.04 -71S0 -42.328 0 -6.959S28.672 57.082 64.041 57.082S128.081 28.409 128.081 -6.959zM303.741 -54.209C295.387 100.391 171.556 224.378 16.791 232.741C7.656 233.235 0 225.895 0 216.747V168.678C0 160.263 6.49 153.206 14.887 152.66C126.719 145.376 216.36 55.958 223.659 -56.112C224.206 -64.509 231.263 -70.999 239.677 -70.999H287.746C296.895 -71 304.235 -63.344 303.741 -54.209zM447.99 -54.497C439.596 179.323 251.465 368.555 16.503 376.99C7.473 377.314 0 370.019 0 360.984V312.916C0 304.291 6.835 297.271 15.453 296.9170000000001C206.632 289.078 360.08 135.601 367.918 -55.548C368.271 -64.166 375.291 -71.001 383.917 -71.001H431.985C441.019 -71 448.314 -63.527 447.99 -54.497z" />
    <glyph glyph-name="save"
      unicode="&#xF159;"
      horiz-adv-x="448" d=" M433.941 279.059L350.059 362.9410000000001A48 48 0 0 1 316.118 377H48C21.49 377 0 355.51 0 329V-23C0 -49.51 21.49 -71 48 -71H400C426.51 -71 448 -49.51 448 -23V245.118A48 48 0 0 1 433.941 279.059zM224 -7C188.654 -7 160 21.654 160 57C160 92.346 188.654 121 224 121S288 92.346 288 57C288 21.654 259.346 -7 224 -7zM320 297.52V197C320 190.373 314.627 185 308 185H76C69.373 185 64 190.373 64 197V301C64 307.627 69.373 313 76 313H304.52C307.703 313 310.755 311.736 313.005 309.485L316.485 306.005A11.996 11.996 0 0 0 320 297.52z" />
    <glyph glyph-name="search-minus"
      unicode="&#xF15A;"
      horiz-adv-x="512" d=" M304 217V185C304 178.4 298.6 173 292 173H124C117.4 173 112 178.4 112 185V217C112 223.6 117.4 229 124 229H292C298.6 229 304 223.6 304 217zM505 -67.7L476.7 -96C467.3 -105.4 452.1 -105.4 442.8 -96L343 3.7C338.5 8.2 336 14.3 336 20.7V37C300.7 9.4 256.3 -7 208 -7C93.1 -7 0 86.1 0 201S93.1 409 208 409S416 315.9 416 201C416 152.7 399.6 108.3 372 73H388.3C394.7 73 400.8 70.5 405.3 66L505 -33.7C514.3 -43.1 514.3 -58.3 505 -67.7zM344 201C344 276.2 283.2 337 208 337S72 276.2 72 201S132.8 65 208 65S344 125.8 344 201z" />
    <glyph glyph-name="search-plus"
      unicode="&#xF15B;"
      horiz-adv-x="512" d=" M304 217V185C304 178.4 298.6 173 292 173H236V117C236 110.4 230.6 105 224 105H192C185.4 105 180 110.4 180 117V173H124C117.4 173 112 178.4 112 185V217C112 223.6 117.4 229 124 229H180V285C180 291.6 185.4 297 192 297H224C230.6 297 236 291.6 236 285V229H292C298.6 229 304 223.6 304 217zM505 -67.7L476.7 -96C467.3 -105.4 452.1 -105.4 442.8 -96L343 3.7C338.5 8.2 336 14.3 336 20.7V37C300.7 9.4 256.3 -7 208 -7C93.1 -7 0 86.1 0 201S93.1 409 208 409S416 315.9 416 201C416 152.7 399.6 108.3 372 73H388.3C394.7 73 400.8 70.5 405.3 66L505 -33.7C514.3 -43.1 514.3 -58.3 505 -67.7zM344 201C344 276.2 283.2 337 208 337S72 276.2 72 201S132.8 65 208 65S344 125.8 344 201z" />
    <glyph glyph-name="search"
      unicode="&#xF15C;"
      horiz-adv-x="512" d=" M505 -33.7L405.3 66C400.8 70.5 394.7 73 388.3 73H372C399.6 108.3 416 152.7 416 201C416 315.9 322.9 409 208 409S0 315.9 0 201S93.1 -7 208 -7C256.3 -7 300.7 9.4 336 37V20.7C336 14.3 338.5 8.2 343 3.7L442.7 -96C452.1 -105.4 467.3 -105.4 476.6 -96L504.9 -67.7C514.3 -58.3 514.3 -43.1 505 -33.7zM208 73C137.3 73 80 130.2 80 201C80 271.7 137.2 329 208 329C278.7 329 336 271.8 336 201C336 130.3 278.8 73 208 73z" />
    <glyph glyph-name="shield-alt"
      unicode="&#xF15D;"
      horiz-adv-x="512" d=" M466.5 325.3L274.5 405.3A48.15 48.15 0 0 1 237.6 405.3L45.6 325.3C27.7 317.9 16 300.4 16 281C16 82.5 130.5 -54.7 237.5 -99.3C249.3 -104.2 262.6 -104.2 274.4 -99.3C360.1 -63.6 496 59.7 496 281C496 300.4 484.3 317.9 466.5 325.3zM256.1 -37.3L256 343.7L431.9 270.4C428.6 119 349.8 9.3 256.1 -37.3z" />
    <glyph glyph-name="shield-check"
      unicode="&#xF15E;"
      horiz-adv-x="512" d=" M466.5 325.3L274.5 405.3A48.15 48.15 0 0 1 237.6 405.3L45.6 325.3C27.7 317.9 16 300.4 16 281C16 82.5 130.5 -54.7 237.5 -99.3C249.3 -104.2 262.6 -104.2 274.4 -99.3C360.1 -63.6 496 59.7 496 281C496 300.4 484.3 317.9 466.5 325.3zM419.3 211.1L235.3 27.1C229.1 20.9 218.9 20.9 212.7 27.1L108.7 131.1C102.5 137.3 102.5 147.5 108.7 153.7L131.3 176.3C137.5 182.5 147.7 182.5 153.9 176.3L224 106.2000000000001L374.1 256.3000000000001C380.3 262.5 390.5 262.5 396.7000000000001 256.3000000000001L419.3000000000001 233.7000000000001C425.6000000000001 227.4000000000001 425.6000000000001 217.3000000000001 419.3000000000001 211.1000000000001z" />
    <glyph glyph-name="sign-in"
      unicode="&#xF15F;"
      horiz-adv-x="512" d=" M137.2 298.7L159.1 320.6C168.4 329.9 183.6 330 193 320.7L344.9 170C354.4 160.6 354.4 145.3 344.9 135.9L193 -14.7C183.6 -24 168.5 -24 159.1 -14.6L137.2 7.3C127.5 17 127.9 32.7 138 42L215.6 113.1H24C10.7 113.1 0 123.8 0 137.1V169.1C0 182.4 10.7 193.1 24 193.1H215.5L137.9 264.2000000000001C127.9 273.3 127.5 289.1 137.2 298.7000000000001zM512 57V249C512 302 469 345 416 345H332C325.4 345 320 339.6 320 333V293C320 286.4 325.4 281 332 281H416C433.7 281 448 266.7 448 249V57C448 39.3 433.7 25 416 25H332C325.4 25 320 19.6 320 13V-27C320 -33.6 325.4 -39 332 -39H416C469 -39 512 4 512 57z" />
    <glyph glyph-name="sign-out"
      unicode="&#xF160;"
      horiz-adv-x="512" d=" M180 -39H96C43 -39 0 4 0 57V249C0 302 43 345 96 345H180C186.6 345 192 339.6 192 333V293C192 286.4 186.6 281 180 281H96C78.3 281 64 266.7 64 249V57C64 39.3 78.3 25 96 25H180C186.6 25 192 19.6 192 13V-27C192 -33.6 186.6 -39 180 -39zM297.9 264.1L375.5 193H184C170.7 193 160 182.3000000000001 160 169V137C160 123.7 170.7 113 184 113H375.5L297.9 41.9C287.8 32.7 287.5 16.9 297.1 7.2L319 -14.7C328.3 -24 343.5 -24.1 352.8999999999999 -14.8L504.8999999999999 136C514.3999999999999 145.4 514.3999999999999 160.7 504.8999999999999 170.1L353 320.7C343.6 330 328.5 330 319.1 320.6L297.2000000000001 298.7000000000001C287.5000000000001 289.1 287.9000000000001 273.3 297.9000000000001 264.1z" />
    <glyph glyph-name="sort-amount-down"
      unicode="&#xF161;"
      horiz-adv-x="512" d=" M304 -7H240A16 16 0 0 1 224 -23V-55A16 16 0 0 1 240 -71H304A16 16 0 0 1 320 -55V-23A16 16 0 0 1 304 -7zM176 57H128V361A16 16 0 0 1 112 377H80A16 16 0 0 1 64 361V57H16C1.81 57 -5.37 39.76 4.71 29.69L84.71 -66.31A16 16 0 0 1 107.33 -66.31L187.33 29.69C197.35 39.74 190.22 57 176 57zM432 249H240A16 16 0 0 1 224 233V201A16 16 0 0 1 240 185H432A16 16 0 0 1 448 201V233A16 16 0 0 1 432 249zM368 121H240A16 16 0 0 1 224 105V73A16 16 0 0 1 240 57H368A16 16 0 0 1 384 73V105A16 16 0 0 1 368 121zM496 377H240A16 16 0 0 1 224 361V329A16 16 0 0 1 240 313H496A16 16 0 0 1 512 329V361A16 16 0 0 1 496 377z" />
    <glyph glyph-name="sort-amount-up"
      unicode="&#xF162;"
      horiz-adv-x="512" d=" M304 -7H240A16 16 0 0 1 224 -23V-55A16 16 0 0 1 240 -71H304A16 16 0 0 1 320 -55V-23A16 16 0 0 1 304 -7zM16 249H64V-55A16 16 0 0 1 80 -71H112A16 16 0 0 1 128 -55V249H176C190.21 249 197.38 266.24 187.31 276.31L107.31 372.31A16 16 0 0 1 84.69 372.31L4.69 276.31C-5.35 266.26 1.77 249 16 249zM432 249H240A16 16 0 0 1 224 233V201A16 16 0 0 1 240 185H432A16 16 0 0 1 448 201V233A16 16 0 0 1 432 249zM368 121H240A16 16 0 0 1 224 105V73A16 16 0 0 1 240 57H368A16 16 0 0 1 384 73V105A16 16 0 0 1 368 121zM496 377H240A16 16 0 0 1 224 361V329A16 16 0 0 1 240 313H496A16 16 0 0 1 512 329V361A16 16 0 0 1 496 377z" />
    <glyph glyph-name="sort-shapes-down"
      unicode="&#xF163;"
      horiz-adv-x="448" d=" M176 57H128V361A16 16 0 0 1 112 377H80A16 16 0 0 1 64 361V57H16C1.81 57 -5.36 39.76 4.71 29.69L84.71 -66.31A16 16 0 0 1 107.33 -66.31L187.33 29.69C197.35 39.74 190.22 57 176 57zM444.1 226.14L361 363.29C349.9100000000001 381.57 322.19 381.57 311.1 363.29L227.9000000000001 226.14C216.82 207.86 230.6700000000001 185 252.85 185H419.1500000000001C441.3300000000001 185 455.1800000000001 207.86 444.1 226.14zM408 121H264A24 24 0 0 1 240 97V-47A24 24 0 0 1 264 -71H408A24 24 0 0 1 432 -47V97A24 24 0 0 1 408 121z" />
    <glyph glyph-name="spinner"
      unicode="&#xF164;"
      horiz-adv-x="512" d=" M304 361C304 334.49 282.51 313 256 313S208 334.49 208 361S229.49 409 256 409S304 387.51 304 361zM256 -7C229.49 -7 208 -28.49 208 -55S229.49 -103 256 -103S304 -81.51 304 -55S282.51 -7 256 -7zM464 201C437.49 201 416 179.51 416 153S437.49 105 464 105S512 126.49 512 153S490.51 201 464 201zM96 153C96 179.51 74.51 201 48 201S0 179.51 0 153S21.49 105 48 105S96 126.49 96 153zM108.922 53.922C82.412 53.922 60.922 32.432 60.922 5.922S82.412 -42.078 108.922 -42.078S156.922 -20.588 156.922 5.922C156.922 32.431 135.431 53.922 108.922 53.922zM403.078 53.922C376.568 53.922 355.078 32.432 355.078 5.922S376.568 -42.078 403.078 -42.078S451.078 -20.588 451.078 5.922C451.078 32.431 429.588 53.922 403.078 53.922zM108.922 348.078C82.412 348.078 60.922 326.588 60.922 300.078S82.412 252.078 108.922 252.078S156.922 273.568 156.922 300.078S135.431 348.078 108.922 348.078z" />
    <glyph glyph-name="star"
      unicode="&#xF165;"
      horiz-adv-x="576" d=" M259.3 391.2L194 258.8L47.9 237.5C21.7 233.7 11.2 201.4 30.2 182.9L135.9 79.9L110.9 -65.6C106.4 -91.9 134.1 -111.6 157.3 -99.3L288 -30.6L418.7 -99.3C441.9 -111.5 469.6 -91.9 465.1 -65.6L440.1 79.9L545.8 182.9C564.8 201.4 554.3 233.7 528.0999999999999 237.5L382 258.8L316.7 391.2C305 414.8 271.1 415.1 259.3 391.2z" />
    <glyph glyph-name="sync"
      unicode="&#xF166;"
      horiz-adv-x="512" d=" M440.65 396.43L444.65 313.66A247.16 247.16 0 0 1 255.83 401C134.73 401 33.91 314.08 12.29 199.18A12 12 0 0 1 24.09 185H73.14A12 12 0 0 1 84.81 194.26A175.90999999999997 175.90999999999997 0 0 0 401.81 251.2L300.35 256.06A12 12 0 0 1 287.7800000000001 244.06V196.65A12 12 0 0 1 299.7800000000001 184.65H500A12 12 0 0 1 512 196.65V397A12 12 0 0 1 500 409H452.63A12 12 0 0 1 440.65 396.43zM255.83 -23A175.61 175.61 0 0 0 109.83 54.8L211.63 49.93A12 12 0 0 1 224.2 61.93V109.33A12 12 0 0 1 212.2 121.33H12A12 12 0 0 1 0 109.33V-91A12 12 0 0 1 12 -103H59.35A12 12 0 0 1 71.35 -90.4L67.2 -7.83A247.17 247.17 0 0 1 255.83 -95C376.94 -95 477.76 -8.08 499.38 106.82A12 12 0 0 1 487.58 121H438.53A12 12 0 0 1 426.86 111.74A175.86 175.86 0 0 0 255.83 -23z" />
    <glyph glyph-name="tablet-alt"
      unicode="&#xF167;"
      horiz-adv-x="448" d=" M400 409H48C21.5 409 0 387.5 0 361V-55C0 -81.5 21.5 -103 48 -103H400C426.5 -103 448 -81.5 448 -55V361C448 387.5 426.5 409 400 409zM224 -71C206.3 -71 192 -56.7 192 -39S206.3 -7 224 -7S256 -21.3 256 -39S241.7 -71 224 -71zM400 37C400 30.4 394.6 25 388 25H60C53.4 25 48 30.4 48 37V349C48 355.6 53.4 361 60 361H388C394.6 361 400 355.6 400 349V37z" />
    <glyph glyph-name="tags"
      unicode="&#xF168;"
      horiz-adv-x="640" d=" M497.941 183.059L286.0590000000001 394.941A48 48 0 0 1 252.118 409H48C21.49 409 0 387.51 0 361V156.882A48 48 0 0 1 14.059 122.941L225.941 -88.941C244.685 -107.6859999999999 275.077 -107.687 293.823 -88.941L497.941 115.177C516.6859999999999 133.922 516.6859999999999 164.314 497.941 183.059zM112 249C85.49 249 64 270.49 64 297S85.49 345 112 345S160 323.51 160 297S138.51 249 112 249zM625.941 115.177L421.823 -88.941C403.078 -107.6859999999999 372.686 -107.6859999999999 353.941 -88.941L353.581 -88.581L527.64 85.478C544.639 102.477 554 125.078 554 149.118S544.638 195.759 527.64 212.758L331.397 409H380.118A48 48 0 0 0 414.059 394.941L625.941 183.059C644.686 164.314 644.686 133.922 625.941 115.177z" />
    <glyph glyph-name="th"
      unicode="&#xF169;"
      horiz-adv-x="512" d=" M149.333 353V273C149.333 259.745 138.588 249 125.333 249H24C10.745 249 0 259.745 0 273V353C0 366.255 10.745 377 24 377H125.333C138.588 377 149.333 366.255 149.333 353zM330.6670000000001 113V193C330.6670000000001 206.255 319.9220000000001 217 306.6670000000001 217H205.333C192.078 217 181.333 206.255 181.333 193V113C181.333 99.745 192.078 89 205.333 89H306.666C319.9220000000001 89 330.667 99.745 330.667 113zM362.6670000000001 353V273C362.6670000000001 259.745 373.4120000000001 249 386.6670000000001 249H488C501.255 249 512 259.745 512 273V353C512 366.255 501.255 377 488 377H386.667C373.412 377 362.667 366.255 362.667 353zM330.6670000000001 273V353C330.6670000000001 366.255 319.9220000000001 377 306.6670000000001 377H205.333C192.078 377 181.333 366.255 181.333 353V273C181.333 259.745 192.078 249 205.333 249H306.666C319.9220000000001 249 330.667 259.745 330.667 273zM125.333 217H24C10.745 217 0 206.255 0 193V113C0 99.745 10.745 89 24 89H125.333C138.588 89 149.333 99.745 149.333 113V193C149.333 206.255 138.588 217 125.333 217zM0 33V-47C0 -60.255 10.745 -71 24 -71H125.333C138.588 -71 149.333 -60.255 149.333 -47V33C149.333 46.255 138.588 57 125.333 57H24C10.745 57 0 46.255 0 33zM386.667 89H488C501.255 89 512 99.745 512 113V193C512 206.255 501.255 217 488 217H386.667C373.412 217 362.667 206.255 362.667 193V113C362.667 99.745 373.412 89 386.667 89zM386.667 -71H488C501.255 -71 512 -60.255 512 -47V33C512 46.255 501.255 57 488 57H386.667C373.412 57 362.667 46.255 362.667 33V-47C362.667 -60.255 373.412 -71 386.667 -71zM181.333 33V-47C181.333 -60.255 192.078 -71 205.333 -71H306.666C319.921 -71 330.666 -60.255 330.666 -47V33C330.666 46.255 319.921 57 306.666 57H205.333C192.078 57 181.333 46.255 181.333 33z" />
    <glyph glyph-name="thumbs-up"
      unicode="&#xF16A;"
      horiz-adv-x="512" d=" M104 185H24C10.745 185 0 174.255 0 161V-79C0 -92.255 10.745 -103 24 -103H104C117.255 -103 128 -92.255 128 -79V161C128 174.255 117.255 185 104 185zM64 -63C50.745 -63 40 -52.255 40 -39S50.745 -15 64 -15S88 -25.745 88 -39S77.255 -63 64 -63zM384 327.548C384 285.132 358.03 261.3400000000001 350.723 233H452.446C485.843 233 511.843 205.254 511.999 174.902C512.083 156.964 504.453 137.653 492.56 125.705L492.45 125.595C502.286 102.258 500.687 69.558 483.142 46.126C491.823 20.231 483.073 -11.578 466.76 -28.631C471.058 -46.229 469.004 -61.206 460.612 -73.263C440.202 -102.587 389.616 -103 346.839 -103L343.994 -102.999C295.707 -102.982 256.188 -85.401 224.434 -71.274C208.477 -64.175 187.613 -55.387 171.783 -55.096C165.243 -54.976 160 -49.639 160 -43.098V170.672C160 173.872 161.282 176.943 163.558 179.193C203.172 218.337 220.206 259.78 252.675 292.304C267.479 307.136 272.863 329.54 278.068 351.206C282.515 369.707 291.817 409 312 409C336 409 384 401 384 327.548z" />
    <glyph glyph-name="thumbtack"
      unicode="&#xF16B;"
      horiz-adv-x="384" d=" M298.028 194.733L285.793 313H328C341.255 313 352 323.745 352 337V385C352 398.255 341.255 409 328 409H56C42.745 409 32 398.255 32 385V337C32 323.745 42.745 313 56 313H98.207L85.972 194.733C37.465 172.18 0 131.739 0 81C0 67.745 10.745 57 24 57H160V-47.007C160 -48.249 160.289 -49.474 160.845 -50.585L184.845 -98.585C187.786 -104.467 196.209 -104.4779999999999 199.156 -98.585L223.156 -50.585A8.008 8.008 0 0 1 224.001 -47.007V57H360.001C373.256 57 384.001 67.745 384.001 81C384 132.183 346.018 172.42 298.028 194.733z" />
    <glyph glyph-name="ticket"
      unicode="&#xF16C;"
      horiz-adv-x="576" d=" M128 249H448V57H128V249zM528 153C528 126.49 549.49 105 576 105V9C576 -17.51 554.51 -39 528 -39H48C21.49 -39 0 -17.51 0 9V105C26.51 105 48 126.49 48 153S26.51 201 0 201V297C0 323.51 21.49 345 48 345H528C554.51 345 576 323.51 576 297V201C549.49 201 528 179.51 528 153zM480 257C480 270.255 469.255 281 456 281H120C106.745 281 96 270.255 96 257V49C96 35.745 106.745 25 120 25H456C469.255 25 480 35.745 480 49V257z" />
    <glyph glyph-name="times-circle"
      unicode="&#xF16D;"
      horiz-adv-x="512" d=" M256 401C119 401 8 290 8 153S119 -95 256 -95S504 16 504 153S393 401 256 401zM377.6 87.9C382.3 83.2 382.3 75.6 377.6 70.9L338 31.4C333.3 26.7 325.7 26.7 321 31.4L256 97L190.9 31.4C186.2 26.7 178.6 26.7 173.9 31.4L134.4 71C129.7 75.7 129.7 83.3 134.4 88L200 153L134.4 218.1C129.7 222.8 129.7 230.4 134.4 235.1L174 274.7C178.7 279.4 186.3 279.4 191 274.7L256 209L321.1 274.6C325.8 279.3 333.4000000000001 279.3 338.1 274.6L377.7000000000001 235C382.4000000000001 230.3 382.4000000000001 222.7 377.7000000000001 218L312 153L377.6 87.9z" />
    <glyph glyph-name="times"
      unicode="&#xF16E;"
      horiz-adv-x="352" d=" M242.72 153L342.79 253.07C355.07 265.35 355.07 285.26 342.79 297.55L320.55 319.79C308.27 332.07 288.36 332.07 276.07 319.79L176 219.72L75.93 319.79C63.65 332.07 43.74 332.07 31.45 319.79L9.21 297.55C-3.07 285.27 -3.07 265.36 9.21 253.07L109.28 153L9.21 52.93C-3.07 40.65 -3.07 20.74 9.21 8.45L31.45 -13.79C43.73 -26.07 63.65 -26.07 75.93 -13.79L176 86.28L276.07 -13.79C288.35 -26.07 308.27 -26.07 320.55 -13.79L342.79 8.45C355.07 20.73 355.07 40.64 342.79 52.93L242.72 153z" />
    <glyph glyph-name="trash-alt"
      unicode="&#xF16F;"
      horiz-adv-x="448" d=" M32 -55A48 48 0 0 1 80 -103H368A48 48 0 0 1 416 -55V281H32zM304 201A16 16 0 0 0 336 201V-23A16 16 0 0 0 304 -23zM208 201A16 16 0 0 0 240 201V-23A16 16 0 0 0 208 -23zM112 201A16 16 0 0 0 144 201V-23A16 16 0 0 0 112 -23zM432 377H312L302.6 395.7A24 24 0 0 1 281.1 409H166.8A23.72 23.72 0 0 1 145.4 395.7L136 377H16A16 16 0 0 1 0 361V329A16 16 0 0 1 16 313H432A16 16 0 0 1 448 329V361A16 16 0 0 1 432 377z" />
    <glyph glyph-name="trash-o"
      unicode="&#xF170;"
      horiz-adv-x="448" d=" M32 -55A48 48 0 0 1 80 -103H368A48 48 0 0 1 416 -55V281H32zM304 201A16 16 0 0 0 336 201V-23A16 16 0 0 0 304 -23zM208 201A16 16 0 0 0 240 201V-23A16 16 0 0 0 208 -23zM112 201A16 16 0 0 0 144 201V-23A16 16 0 0 0 112 -23zM432 377H312L302.6 395.7A24 24 0 0 1 281.1 409H166.8A23.72 23.72 0 0 1 145.4 395.7L136 377H16A16 16 0 0 1 0 361V329A16 16 0 0 1 16 313H432A16 16 0 0 1 448 329V361A16 16 0 0 1 432 377z" />
    <glyph glyph-name="trash"
      unicode="&#xF171;"
      horiz-adv-x="448" d=" M432 377H312L302.6 395.7A24 24 0 0 1 281.1 409H166.8A23.72 23.72 0 0 1 145.4 395.7L136 377H16A16 16 0 0 1 0 361V329A16 16 0 0 1 16 313H432A16 16 0 0 1 448 329V361A16 16 0 0 1 432 377zM53.2 -58A48 48 0 0 1 101.1 -103H346.9A48 48 0 0 1 394.8 -58L416 281H32z" />
    <glyph glyph-name="unlock-alt"
      unicode="&#xF172;"
      horiz-adv-x="448" d=" M400 153H152V256.1C152 295.7 183.7 328.6 223.3 329C263.3 329.4 296 296.9 296 257V241C296 227.7 306.7 217 320 217H352C365.3 217 376 227.7 376 241V257C376 341 307.5 409.3 223.5 409C139.5 408.7 72 339.5 72 255.5V153H48C21.5 153 0 131.5 0 105V-55C0 -81.5 21.5 -103 48 -103H400C426.5 -103 448 -81.5 448 -55V105C448 131.5 426.5 153 400 153zM264 1C264 -21.1 246.1 -39 224 -39S184 -21.1 184 1V49C184 71.1 201.9 89 224 89S264 71.1 264 49V1z" />
    <glyph glyph-name="upload"
      unicode="&#xF173;"
      horiz-adv-x="512" d=" M296 25H216C202.7 25 192 35.7 192 49V217H104.3C86.5 217 77.6 238.5 90.2 251.1L242.3 403.3C249.8 410.8 262.1 410.8 269.6 403.3L421.8 251.1C434.4000000000001 238.5000000000001 425.5 217 407.7 217H320V49C320 35.7 309.3 25 296 25zM512 33V-79C512 -92.3 501.3 -103 488 -103H24C10.7 -103 0 -92.3 0 -79V33C0 46.3 10.7 57 24 57H160V49C160 18.1 185.1 -7 216 -7H296C326.9 -7 352 18.1 352 49V57H488C501.3 57 512 46.3 512 33zM388 -55C388 -44 379 -35 368 -35S348 -44 348 -55S357 -75 368 -75S388 -66 388 -55zM452 -55C452 -44 443 -35 432 -35S412 -44 412 -55S421 -75 432 -75S452 -66 452 -55z" />
    <glyph glyph-name="usd-circle"
      unicode="&#xF174;"
      horiz-adv-x="496" d=" M248 401C111 401 0 290 0 153S111 -95 248 -95S496 16 496 153S385 401 248 401zM272 25V9C272 0.2 264.8 -7 256 -7H240C231.2 -7 224 0.2 224 9V25.2C207.5 25.8 191.4 31 177.6 40.3C168.9 46.2 167.6 58.4 175.3 65.5L187.3 76.8C192.7 81.9 200.6 82.2 207 78.4C213.1 74.8 219.9 73.0000000000001 226.9 73.0000000000001H271.9C283.2 73.0000000000001 292.4 83.5000000000001 292.4 96.4C292.4 107.0000000000001 286.1 116.3 277.2 119.1L205 141C176 149.8 155.8 178 155.8 209.6C155.8 248.9 186.4 280.9 224 281V297C224 305.8 231.2 313 240 313H256C264.8 313 272 305.8 272 297V280.8C288.5 280.2000000000001 304.6 275 318.4 265.7000000000001C327.1 259.8 328.4 247.6 320.7 240.5000000000001L308.7 229.2C303.3 224.1 295.4 223.8 289 227.6C282.9 231.2 276.1 233.0000000000001 269.1 233.0000000000001H224.1C212.8 233.0000000000001 203.6 222.5 203.6 209.6C203.6 199 209.9 189.7 218.8 186.9L290.8 165C319.8 156.2 340 128 340 96.4C340.2 57.1 309.6 25.2 272 25z" />
    <glyph glyph-name="user-circle"
      unicode="&#xF175;"
      horiz-adv-x="496" d=" M248 401C111 401 0 290 0 153S111 -95 248 -95S496 16 496 153S385 401 248 401zM248 305C296.6 305 336 265.6 336 217S296.6 129 248 129S160 168.4 160 217S199.4 305 248 305zM248 -39C189.3 -39 136.7 -12.4 101.5 29.2C120.3 64.6 157.1 89 200 89C202.4 89 204.8 88.6 207.1 87.9C220.1 83.7 233.7 81 248 81C262.3 81 276 83.7 288.9 87.9C291.2 88.6 293.6 89 296 89C338.9 89 375.7 64.6 394.5 29.2C359.3 -12.4 306.7 -39 248 -39z" />
    <glyph glyph-name="user-friends"
      unicode="&#xF176;"
      horiz-adv-x="640" d=" M192 153C253.9 153 304 203.1 304 265S253.9 377 192 377S80 326.9 80 265S130.1 153 192 153zM268.8 121H260.5C239.7 111 216.6 105 192 105S144.4 111 123.5 121H115.2C51.6 121 0 69.4 0 5.8V-23C0 -49.5 21.5 -71 48 -71H336C362.5 -71 384 -49.5 384 -23V5.8C384 69.4 332.4 121 268.8 121zM480 153C533 153 576 196 576 249S533 345 480 345S384 302 384 249S427 153 480 153zM528 121H524.2C510.3000000000001 116.2 495.6 113 480.0000000000001 113S449.7000000000001 116.2 435.8000000000001 121H432C411.6 121 392.8 115.1 376.3 105.6C400.7 79.3 416 44.4 416 5.8V-32.6C416 -34.8 415.5 -36.9 415.4 -38.9999999999999H592C618.5 -38.9999999999999 640 -17.4999999999999 640 9.0000000000001C640 70.9 589.9 121.0000000000001 528 121.0000000000001z" />
    <glyph glyph-name="user-plus"
      unicode="&#xF177;"
      horiz-adv-x="640" d=" M624 201H560V265C560 273.8 552.8 281 544 281H512C503.2 281 496 273.8 496 265V201H432C423.2 201 416 193.8 416 185V153C416 144.2 423.2 137 432 137H496V73C496 64.2 503.2 57 512 57H544C552.8 57 560 64.2 560 73V137H624C632.8 137 640 144.2 640 153V185C640 193.8 632.8 201 624 201zM224 153C294.7 153 352 210.3 352 281S294.7 409 224 409S96 351.7 96 281S153.3 153 224 153zM313.6 121H296.9000000000001C274.7000000000001 110.8 250.0000000000001 105 224 105S173.4 110.8 151.1 121H134.4C60.2 121 0 60.8 0 -13.4V-55C0 -81.5 21.5 -103 48 -103H400C426.5 -103 448 -81.5 448 -55V-13.4C448 60.8 387.8 121 313.6 121z" />
    <glyph glyph-name="user"
      unicode="&#xF178;"
      horiz-adv-x="448" d=" M224 153C294.7 153 352 210.3 352 281S294.7 409 224 409S96 351.7 96 281S153.3 153 224 153zM313.6 121H296.9000000000001C274.7000000000001 110.8 250.0000000000001 105 224 105S173.4 110.8 151.1 121H134.4C60.2 121 0 60.8 0 -13.4V-55C0 -81.5 21.5 -103 48 -103H400C426.5 -103 448 -81.5 448 -55V-13.4C448 60.8 387.8 121 313.6 121z" />
    <glyph glyph-name="window-close"
      unicode="&#xF179;"
      horiz-adv-x="512" d=" M464 377H48C21.5 377 0 355.5 0 329V-23C0 -49.5 21.5 -71 48 -71H464C490.5 -71 512 -49.5 512 -23V329C512 355.5 490.5 377 464 377zM380.4 86.5C385.2 81.7 385.2 73.9 380.4 69.1L339.9 28.6C335.1 23.8 327.3 23.8 322.5 28.6L256 95.7L189.5 28.6C184.7 23.8 176.9 23.8 172.1 28.6L131.6 69.1C126.8 73.9 126.8 81.7000000000001 131.6 86.5L198.7 153L131.6 219.5C126.8 224.3 126.8 232.1 131.6 236.9L172.1 277.4C176.9 282.2 184.7 282.2 189.5 277.4L256 210.3L322.5 277.4C327.3 282.2 335.1 282.2 339.9 277.4L380.4 236.9C385.2 232.1 385.2 224.3 380.4 219.5L313.3 153L380.4 86.5z" />
  </font>
</defs>
</svg>
